<svg width="101" height="100" viewBox="0 0 101 100" fill="none" xmlns="http://www.w3.org/2000/svg">
<path d="M81.0618 44.3204C82.1239 44.3204 82.985 43.4594 82.985 42.3973C82.985 41.3351 82.1239 40.4741 81.0618 40.4741C79.9997 40.4741 79.1387 41.3351 79.1387 42.3973C79.1387 43.4594 79.9997 44.3204 81.0618 44.3204Z" fill="#F9FAFB"/>
<path d="M50 82.3832C72.0914 82.3832 90 75.3579 90 66.6916C90 58.0254 72.0914 51 50 51C27.9086 51 10 58.0254 10 66.6916C10 75.3579 27.9086 82.3832 50 82.3832Z" fill="#F9FAFB"/>
<path d="M42.3097 2.23486L45.1258 6.07588L37.4104 54.4528L34.5933 50.6128L42.3097 2.23486Z" fill="#D0D5DD"/>
<path d="M37.4105 54.6879C37.3363 54.6879 37.2664 54.6534 37.2215 54.5919L34.4044 50.7519C34.3669 50.7018 34.3523 50.6381 34.3617 50.5755L42.0771 2.1975C42.0917 2.10357 42.1616 2.02842 42.2535 2.0065C42.3453 1.98458 42.4424 2.01902 42.4977 2.09626L45.3148 5.93623C45.3524 5.98633 45.367 6.05 45.3576 6.11262L37.6422 54.4906C37.6276 54.5845 37.5576 54.6597 37.4658 54.6816C37.447 54.6858 37.4292 54.6879 37.4105 54.6879ZM34.8407 50.5536L37.2664 53.8612L44.8785 6.13559L42.4528 2.82793L34.8407 50.5536Z" fill="#F9FAFB"/>
<path d="M51.3831 10.2979L54.1992 14.1378L47.7697 54.4528L44.9536 50.6128L51.3831 10.2979Z" fill="#D0D5DD"/>
<path d="M47.7698 54.6879C47.6957 54.6879 47.6258 54.6534 47.5809 54.5918L44.7638 50.7519C44.7262 50.7018 44.7116 50.6381 44.721 50.5755L51.1505 10.2605C51.1652 10.1666 51.2351 10.0914 51.3269 10.0695C51.4188 10.0476 51.5159 10.082 51.5712 10.1592L54.3883 13.9992C54.4258 14.0493 54.4405 14.113 54.4311 14.1756L48.0015 54.4906C47.9869 54.5845 47.917 54.6597 47.8251 54.6816C47.8064 54.6858 47.7886 54.6879 47.7698 54.6879ZM45.2012 50.5536L47.6268 53.8612L53.953 14.1986L51.5273 10.8909L45.2012 50.5536Z" fill="#F9FAFB"/>
<path d="M60.4566 18.3608L63.2737 22.2008L60.6789 38.4677L57.8618 34.6277L60.4566 18.3608Z" fill="#D0D5DD"/>
<path d="M60.679 38.7028C60.6049 38.7028 60.535 38.6683 60.4901 38.6067L57.673 34.7668C57.6354 34.7167 57.6208 34.653 57.6302 34.5904L60.225 18.3235C60.2396 18.2295 60.3095 18.1544 60.4014 18.1325C60.4932 18.1106 60.5903 18.145 60.6456 18.2222L63.4627 22.0622C63.5003 22.1123 63.5149 22.176 63.5055 22.2386L60.9107 38.5055C60.8961 38.5994 60.8262 38.6746 60.7343 38.6965C60.7155 38.7007 60.6968 38.7028 60.679 38.7028ZM58.1093 34.5685L60.535 37.8761L63.0264 22.2605L60.6007 18.9529L58.1093 34.5685Z" fill="#F9FAFB"/>
<path d="M69.5433 26.3257L72.3604 30.1657L71.4001 36.1871L68.583 32.3471L69.5433 26.3257Z" fill="#D0D5DD"/>
<path d="M71.4002 36.4221C71.3261 36.4221 71.2562 36.3877 71.2113 36.3261L68.3942 32.4861C68.3566 32.436 68.342 32.3724 68.3514 32.3097L69.3116 26.2883C69.3263 26.1944 69.3962 26.1192 69.488 26.0973C69.5799 26.0754 69.677 26.1098 69.7323 26.1871L72.5494 30.027C72.5869 30.0771 72.6016 30.1408 72.5922 30.2034L71.6319 36.2249C71.6173 36.3188 71.5474 36.3939 71.4555 36.4159C71.4367 36.42 71.419 36.4221 71.4002 36.4221ZM68.8305 32.2878L71.2562 35.5955L72.1131 30.2264L69.6874 26.9188L68.8305 32.2878Z" fill="#F9FAFB"/>
<path d="M67.1031 41.626L69.9191 45.466L68.486 54.4527L65.6689 50.6127L67.1031 41.626Z" fill="#D0D5DD"/>
<path d="M68.4866 54.6877C68.4125 54.6877 68.3426 54.6533 68.2977 54.5917L65.4806 50.7517C65.443 50.7016 65.4284 50.638 65.4378 50.5753L66.8709 41.5886C66.8855 41.4947 66.9554 41.4195 67.0473 41.3976C67.1391 41.3757 67.2362 41.4101 67.2915 41.4874L70.1086 45.3273C70.1462 45.3774 70.1608 45.4411 70.1514 45.5037L68.7183 54.4904C68.7037 54.5844 68.6338 54.6595 68.5419 54.6815C68.5232 54.6856 68.5054 54.6877 68.4866 54.6877ZM65.9169 50.5534L68.3426 53.8611L69.6723 45.5267L67.2467 42.219L65.9169 50.5534Z" fill="#F9FAFB"/>
<path d="M42.3095 2.23486L34.593 50.6128H24.2358L31.9513 2.23486H42.3095Z" fill="#D0D5DD"/>
<path d="M34.5932 50.8482H24.235C24.1661 50.8482 24.1014 50.8179 24.0565 50.7657C24.0117 50.7135 23.9929 50.6446 24.0033 50.5768L31.7187 2.1988C31.7365 2.08503 31.8356 2.00049 31.9504 2.00049H42.3087C42.3775 2.00049 42.4423 2.03076 42.4871 2.08294C42.532 2.13513 42.5508 2.20402 42.5404 2.27186L34.8249 50.6498C34.8072 50.7647 34.7091 50.8482 34.5932 50.8482ZM24.5116 50.3785H34.3939L42.0341 2.47018H32.1519L24.5116 50.3785Z" fill="#F9FAFB"/>
<path d="M51.3826 10.2983L44.9531 50.6133H34.5928L41.0233 10.2983H51.3826Z" fill="#98A2B3"/>
<path d="M44.9532 50.8482H34.5939C34.525 50.8482 34.4603 50.8179 34.4154 50.7657C34.3705 50.7135 34.3518 50.6446 34.3622 50.5768L40.7917 10.2618C40.8095 10.148 40.9086 10.0635 41.0234 10.0635H51.3827C51.4516 10.0635 51.5163 10.0937 51.5612 10.1459C51.606 10.1981 51.6248 10.267 51.6144 10.3349L45.1849 50.6498C45.1661 50.7646 45.068 50.8482 44.9532 50.8482ZM34.8684 50.3785H44.7517L51.1061 10.5332H41.2228L34.8684 50.3785Z" fill="#F9FAFB"/>
<path d="M50.0968 18.3613H60.4561L57.8613 34.6282C51.5205 37.7511 46.5929 43.7308 45.4177 50.6133H44.9521L50.0968 18.3613Z" fill="#D0D5DD"/>
<path d="M45.4178 50.8481H44.9523C44.8834 50.8481 44.8187 50.8179 44.7738 50.7657C44.7289 50.7135 44.7101 50.6446 44.7206 50.5768L49.8642 18.3248C49.8819 18.211 49.9811 18.1265 50.0959 18.1265H60.4552C60.5241 18.1265 60.5888 18.1567 60.6337 18.2089C60.6785 18.2611 60.6973 18.33 60.6869 18.3978L58.0921 34.6647C58.0806 34.7399 58.0326 34.8046 57.9637 34.838C51.4883 38.0267 46.7695 44.0867 45.6485 50.6519C45.6307 50.7657 45.5326 50.8481 45.4178 50.8481ZM50.2974 18.5962L45.2665 50.1363C46.5357 43.6306 51.2399 37.6676 57.6485 34.4716L60.1807 18.5962H50.2974Z" fill="#F9FAFB"/>
<path d="M58.9513 60.4069C58.8772 60.2941 58.8041 60.1804 58.7363 60.0635C58.7353 60.0614 58.7332 60.0582 58.7321 60.0562C58.6653 59.9424 58.6017 59.8255 58.5401 59.7075C58.5234 59.6741 58.5077 59.6407 58.491 59.6073C58.443 59.5103 58.396 59.4122 58.3512 59.312C58.3313 59.266 58.3115 59.2201 58.2917 59.1742C58.253 59.0823 58.2165 58.9905 58.181 58.8965C58.1601 58.8412 58.1393 58.7859 58.1194 58.7306C58.1069 58.6951 58.0954 58.6596 58.0829 58.6241C58.0558 58.5417 58.0297 58.4592 58.0046 58.3757C57.9952 58.3454 57.9858 58.3152 57.9775 58.2839C57.9462 58.1711 57.9159 58.0584 57.8888 57.9436C57.8836 57.9238 57.8804 57.9029 57.8752 57.8831C57.8543 57.7902 57.8345 57.6962 57.8168 57.6023C57.8063 57.5491 57.798 57.4958 57.7896 57.4426C57.7771 57.3706 57.7656 57.2986 57.7562 57.2255C57.7489 57.1712 57.7416 57.1159 57.7353 57.0606C57.727 56.9875 57.7186 56.9145 57.7124 56.8403C57.7072 56.785 57.703 56.7287 57.6988 56.6734C57.6936 56.5992 57.6894 56.5241 57.6863 56.4489C57.6842 56.3926 57.6811 56.3362 57.68 56.2799C57.6779 56.2026 57.6779 56.1254 57.6779 56.0481C57.6779 55.9928 57.6779 55.9375 57.679 55.8811C57.6811 55.8008 57.6852 55.7194 57.6884 55.6369C57.6915 55.5837 57.6925 55.5315 57.6967 55.4772C57.703 55.3864 57.7113 55.2956 57.7207 55.2037C57.7249 55.1589 57.728 55.114 57.7332 55.0691C57.7489 54.9324 57.7677 54.7946 57.7896 54.6568C57.8001 54.5879 57.8126 54.519 57.8251 54.4512C57.9577 53.7227 58.1748 53.015 58.4639 52.3366L55.6468 48.4966C55.3566 49.175 55.1406 49.8827 55.008 50.6112C54.9955 50.6801 54.984 50.749 54.9725 50.8169C54.9506 50.9546 54.9318 51.0924 54.9162 51.2291C54.9109 51.274 54.9078 51.3189 54.9036 51.3638C54.8942 51.4546 54.8859 51.5464 54.8796 51.6372C54.8765 51.6905 54.8744 51.7437 54.8713 51.7969C54.8671 51.8783 54.8629 51.9598 54.8619 52.0412C54.8608 52.0975 54.8608 52.1529 54.8608 52.2082C54.8608 52.2854 54.8608 52.3626 54.8629 52.4399C54.864 52.4962 54.8671 52.5526 54.8692 52.609C54.8723 52.6841 54.8765 52.7582 54.8817 52.8334C54.8859 52.8897 54.8901 52.9451 54.8953 53.0014C54.9015 53.0745 54.9099 53.1486 54.9182 53.2206C54.9245 53.2759 54.9318 53.3313 54.9391 53.3855C54.9496 53.4586 54.961 53.5306 54.9725 53.6026C54.9819 53.6559 54.9903 53.7091 55.0007 53.7623C55.0049 53.7832 55.008 53.8041 55.0111 53.8249C55.0258 53.898 55.0414 53.97 55.0581 54.042C55.0623 54.0619 55.0665 54.0828 55.0717 54.1036C55.0988 54.2184 55.128 54.3312 55.1604 54.4439C55.1687 54.4742 55.1781 54.5044 55.1875 54.5357C55.2126 54.6192 55.2376 54.7017 55.2658 54.7842C55.2773 54.8196 55.2898 54.8551 55.3023 54.8906C55.3117 54.9178 55.3201 54.9449 55.3295 54.972C55.3399 55.0002 55.3524 55.0284 55.3629 55.0566C55.3984 55.1505 55.4349 55.2424 55.4735 55.3342C55.4934 55.3801 55.5121 55.4261 55.532 55.472C55.5769 55.5722 55.6238 55.6703 55.6718 55.7674C55.6844 55.7935 55.6958 55.8196 55.7084 55.8457C55.7125 55.853 55.7167 55.8603 55.7198 55.8676C55.7804 55.9855 55.8441 56.1024 55.9119 56.2162C55.9129 56.2183 55.915 56.2214 55.9161 56.2235C55.985 56.3404 56.057 56.4542 56.1311 56.5669C56.1353 56.5731 56.1394 56.5805 56.1436 56.5867C56.2041 56.6775 56.2668 56.7662 56.3304 56.8539L59.1475 60.6939C59.0818 60.6 59.016 60.5039 58.9513 60.4069Z" fill="#D0D5DD"/>
<path d="M59.1516 60.9286C59.0795 60.9286 59.0075 60.8952 58.9616 60.8326L58.9606 60.8315L56.1445 56.9926C56.0777 56.9018 56.013 56.8089 55.9514 56.7171L55.9399 56.6993C55.8564 56.573 55.7834 56.4572 55.7166 56.3424C55.7145 56.3392 55.7113 56.333 55.7103 56.3298C55.6466 56.2202 55.5819 56.1033 55.5151 55.9749C55.5099 55.9666 55.5057 55.9593 55.5026 55.952C55.4942 55.9363 55.4869 55.9196 55.4786 55.9019C55.4744 55.8925 55.4692 55.8821 55.465 55.8727C55.4097 55.762 55.3627 55.6629 55.321 55.5679C55.3012 55.524 55.2824 55.4792 55.2636 55.4343C55.2208 55.332 55.1822 55.236 55.1456 55.1399C55.1415 55.1285 55.1373 55.118 55.1331 55.1076C55.1258 55.0898 55.1185 55.0711 55.1112 55.0533C55.1049 55.0366 55.0997 55.0189 55.0934 55.0022L55.083 54.9698C55.0705 54.9333 55.058 54.8968 55.0454 54.8592C55.0172 54.7746 54.9912 54.689 54.9651 54.6035L54.9557 54.5721C54.9494 54.5513 54.9431 54.5304 54.9369 54.5095C54.9035 54.3895 54.8722 54.2715 54.8461 54.1588L54.8325 54.0962C54.8148 54.0169 54.7981 53.9448 54.7845 53.8728C54.7814 53.8593 54.7793 53.8457 54.7772 53.8311L54.773 53.8071C54.7647 53.7601 54.7563 53.7131 54.748 53.6651L54.7438 53.6422C54.7313 53.5681 54.7198 53.4939 54.7093 53.4188C54.702 53.3624 54.6947 53.3061 54.6874 53.2487C54.6791 53.1735 54.6707 53.0984 54.6634 53.0232C54.6582 52.9658 54.653 52.9084 54.6488 52.851C54.6436 52.7748 54.6394 52.6976 54.6363 52.6203C54.6342 52.5629 54.6311 52.5045 54.63 52.4471C54.6279 52.3677 54.6279 52.2884 54.6279 52.2091V52.1705C54.6279 52.1266 54.6279 52.0817 54.629 52.0369C54.6311 51.9544 54.6352 51.8699 54.6394 51.7864L54.6415 51.7342C54.6436 51.6966 54.6446 51.6601 54.6478 51.6225C54.654 51.5296 54.6634 51.4357 54.6728 51.3417L54.677 51.2916C54.6791 51.2624 54.6822 51.2332 54.6853 51.2029C54.702 51.0578 54.7208 50.9159 54.7427 50.7802C54.7542 50.7092 54.7657 50.6393 54.7793 50.5694C54.9129 49.8366 55.1331 49.1081 55.4337 48.4046C55.4671 48.3274 55.5391 48.2731 55.6226 48.2637C55.7072 48.2543 55.7886 48.2898 55.8387 48.3576L58.6558 52.1976C58.7048 52.2644 58.7153 52.3521 58.6819 52.4283C58.3948 53.0994 58.185 53.7945 58.0577 54.4928C58.0452 54.5596 58.0337 54.6264 58.0233 54.6943C58.0024 54.8226 57.9846 54.9583 57.969 55.0961C57.9659 55.1212 57.9638 55.1473 57.9617 55.1723L57.9565 55.2276C57.9481 55.3163 57.9387 55.4051 57.9325 55.4938C57.9304 55.5272 57.9283 55.5606 57.9272 55.595L57.9252 55.6493C57.921 55.7286 57.9168 55.808 57.9158 55.8862C57.9147 55.928 57.9147 55.9687 57.9147 56.0094V56.048C57.9147 56.1232 57.9147 56.1983 57.9168 56.2724C57.9178 56.3267 57.921 56.382 57.9231 56.4363C57.9262 56.5093 57.9304 56.5824 57.9356 56.6544C57.9398 56.7087 57.9439 56.763 57.9492 56.8173C57.9554 56.8893 57.9638 56.9603 57.9721 57.0312C57.9784 57.0845 57.9846 57.1377 57.992 57.1909C58.0013 57.2619 58.0128 57.3318 58.0243 57.4018L58.0274 57.4205C58.0347 57.4665 58.0431 57.5114 58.0514 57.5573C58.0692 57.6491 58.088 57.7399 58.1078 57.8297L58.1203 57.8882C58.1454 57.9946 58.1736 58.1032 58.2059 58.218L58.232 58.3067C58.256 58.3871 58.2811 58.4674 58.3072 58.5468C58.3186 58.5812 58.3301 58.6156 58.3427 58.6501C58.3573 58.6929 58.3729 58.7346 58.3896 58.7764L58.4021 58.8108C58.4366 58.9016 58.4721 58.9904 58.5096 59.0791C58.5305 59.1281 58.5483 59.1709 58.5671 59.2127C58.6067 59.3024 58.6506 59.3953 58.7027 59.4987L58.7247 59.5435C58.733 59.5613 58.7414 59.579 58.7508 59.5968C58.8113 59.7147 58.8739 59.8285 58.9365 59.9339C58.9376 59.936 58.9418 59.9433 58.9428 59.9454C59.0033 60.0487 59.0722 60.1573 59.1484 60.2731C59.2163 60.3744 59.2789 60.4652 59.3405 60.5487L59.3426 60.5508C59.4188 60.6551 59.3968 60.8023 59.2925 60.8785C59.2476 60.914 59.1996 60.9286 59.1516 60.9286ZM55.7093 48.9776C55.5005 49.5277 55.3439 50.0903 55.2406 50.6549C55.2281 50.7217 55.2166 50.7885 55.2062 50.8564C55.1853 50.9848 55.1676 51.1205 55.1519 51.2582C55.1488 51.2833 55.1467 51.3094 55.1446 51.3344L55.1394 51.3897C55.131 51.4785 55.1216 51.5672 55.1154 51.6559C55.1133 51.6893 55.1112 51.7227 55.1101 51.7561L55.1081 51.8104C55.1039 51.8897 55.0997 51.969 55.0987 52.0473C55.0976 52.0891 55.0976 52.1298 55.0976 52.1705V52.2091C55.0976 52.2842 55.0976 52.3594 55.0997 52.4335C55.1008 52.4888 55.1039 52.5431 55.106 52.5974C55.1091 52.6704 55.1133 52.7424 55.1185 52.8145C55.1227 52.8687 55.1268 52.923 55.1321 52.9773C55.1383 53.0483 55.1456 53.1203 55.154 53.1902C55.1602 53.2434 55.1665 53.2967 55.1738 53.3499C55.1832 53.4209 55.1947 53.4908 55.2062 53.5607L55.2103 53.5837C55.2177 53.6275 55.225 53.6724 55.2333 53.7163L55.2437 53.7778C55.2573 53.8457 55.2719 53.9135 55.2876 53.9803L55.3022 54.0482C55.3272 54.1546 55.3554 54.2653 55.3878 54.378L55.4139 54.4667C55.4379 54.5481 55.4629 54.6275 55.489 54.7078C55.5005 54.7423 55.512 54.7767 55.5245 54.8112L55.5381 54.8508C55.5423 54.8644 55.5464 54.8769 55.5517 54.8905C55.5558 54.902 55.561 54.9135 55.5652 54.926C55.5715 54.9416 55.5777 54.9573 55.584 54.9729C55.6185 55.0627 55.6539 55.1525 55.6915 55.2422C55.7124 55.2923 55.7301 55.3341 55.7489 55.3758C55.7886 55.4646 55.8324 55.5585 55.8846 55.6618C55.8919 55.6764 55.8982 55.69 55.9055 55.7046C55.9107 55.7151 55.9149 55.7265 55.9211 55.737L55.9316 55.7558C55.9953 55.8779 56.0558 55.9885 56.1184 56.095C56.1205 56.0981 56.1236 56.1044 56.1247 56.1075C56.1852 56.2098 56.2531 56.3183 56.3303 56.4352L56.3407 56.4519C56.4002 56.5407 56.4608 56.6273 56.5234 56.7129L57.7738 58.4184L57.7707 58.4079C57.7644 58.3881 57.7581 58.3683 57.7529 58.3474C57.7185 58.2253 57.6882 58.1105 57.6621 57.9967L57.6486 57.9341C57.6266 57.8381 57.6068 57.741 57.5891 57.6439C57.5797 57.5959 57.5713 57.5468 57.564 57.4978L57.5609 57.479C57.5484 57.4049 57.5369 57.3308 57.5264 57.2556C57.5191 57.1993 57.5118 57.1429 57.5045 57.0865C57.4951 57.0114 57.4878 56.9362 57.4805 56.8601C57.4753 56.8026 57.4701 56.7452 57.4669 56.6878C57.4617 56.6116 57.4575 56.5344 57.4544 56.4572C57.4523 56.3998 57.4492 56.3424 57.4482 56.2839C57.4461 56.2046 57.4461 56.1252 57.4461 56.0459V56.0073C57.4461 55.9635 57.4461 55.9186 57.4471 55.8737C57.4492 55.7912 57.4534 55.7067 57.4576 55.6232L57.4596 55.571C57.4617 55.5334 57.4628 55.4969 57.4659 55.4593C57.4722 55.3664 57.4816 55.2725 57.4909 55.1796L57.4951 55.1295C57.4972 55.1003 57.5003 55.0711 57.5035 55.0418C57.5202 54.8968 57.539 54.7548 57.5609 54.6191C57.5724 54.5481 57.5838 54.4782 57.5974 54.4083C57.7227 53.7184 57.9252 53.0326 58.1997 52.3677L55.7093 48.9776Z" fill="#F9FAFB"/>
<path d="M69.543 26.3258L68.5828 32.3472C68.231 32.3284 67.8751 32.319 67.5161 32.319C66.5558 32.319 65.6008 32.3868 64.6572 32.5194L65.3012 41.5959C65.5455 41.5781 65.7939 41.5687 66.0402 41.5687C66.4024 41.5687 66.7562 41.5875 67.1027 41.6261L65.6697 50.6129H55.3125L55.6496 48.4982C56.9543 45.4452 59.737 43.0028 62.9757 42.028L62.3338 32.9745C60.7891 33.3659 59.2903 33.9232 57.8624 34.6267L59.1869 26.3247H69.543V26.3258Z" fill="#D0D5DD"/>
<path d="M65.6698 50.8477H55.3126C55.2438 50.8477 55.1791 50.8174 55.1342 50.7652C55.0893 50.713 55.0705 50.6441 55.0809 50.5763L55.4181 48.4617C55.4212 48.4429 55.4264 48.4241 55.4337 48.4063C56.7269 45.3805 59.5106 42.887 62.7285 41.8599L62.12 33.274C60.7047 33.6518 59.3081 34.1779 57.9659 34.8386C57.8876 34.8772 57.7937 34.8689 57.7227 34.8167C57.6517 34.7645 57.6162 34.6778 57.6298 34.5902L58.9543 26.2882C58.9721 26.1744 59.0712 26.0898 59.186 26.0898H69.5442C69.6131 26.0898 69.6778 26.1201 69.7227 26.1723C69.7676 26.2245 69.7864 26.2934 69.7759 26.3612L68.8157 32.3826C68.7969 32.5016 68.6925 32.5862 68.5715 32.5799C67.3711 32.5152 66.1301 32.5632 64.9089 32.7208L65.5206 41.3454C66.0571 41.3193 66.6061 41.3339 67.129 41.3913C67.1927 41.3986 67.2511 41.4309 67.2897 41.4821C67.3283 41.5332 67.345 41.5979 67.3346 41.6616L65.9015 50.6483C65.8838 50.7642 65.7857 50.8477 65.6698 50.8477ZM55.5872 50.378H65.4694L66.8315 41.8359C66.3336 41.7952 65.8149 41.7931 65.3191 41.8296C65.2565 41.8338 65.1949 41.814 65.1479 41.7733C65.101 41.7326 65.0717 41.6741 65.0676 41.6126L64.4236 32.5361C64.4152 32.4129 64.5029 32.3044 64.625 32.2866C65.8754 32.1123 67.1436 32.0497 68.3836 32.1029L69.2676 26.5606H59.3854L58.1631 34.2217C59.496 33.5965 60.8769 33.1018 62.2745 32.7479C62.3423 32.7312 62.4133 32.7448 62.4697 32.7855C62.526 32.8262 62.5615 32.8899 62.5667 32.9588L63.2086 42.0123C63.216 42.1219 63.1471 42.2221 63.0416 42.2534C59.8874 43.2022 57.1444 45.6195 55.8752 48.5639L55.5872 50.378Z" fill="#F9FAFB"/>
<path d="M34.5925 50.6133H24.2354L27.0514 54.4532H37.4096H47.7689L44.9528 50.6133H34.5925Z" fill="#D0D5DD"/>
<path d="M47.769 54.6881H27.0516C26.9764 54.6881 26.9065 54.6526 26.8626 54.5921L24.0456 50.7521C23.9934 50.6811 23.985 50.5861 24.0257 50.5068C24.0654 50.4275 24.1468 50.3784 24.2355 50.3784H44.953C45.0281 50.3784 45.0981 50.4139 45.1419 50.4744L47.959 54.3144C48.0112 54.3854 48.0195 54.4804 47.9788 54.5597C47.9392 54.639 47.8577 54.6881 47.769 54.6881ZM27.1705 54.2184H47.3056L44.8329 50.8481H24.6989L27.1705 54.2184Z" fill="#F9FAFB"/>
<path d="M65.6702 50.6133H55.313L58.129 54.4532H68.4873L65.6702 50.6133Z" fill="#D0D5DD"/>
<path d="M68.4869 54.6881H58.1287C58.0536 54.6881 57.9836 54.6526 57.9398 54.5921L55.1227 50.7521C55.0705 50.6811 55.0622 50.5861 55.1029 50.5068C55.1425 50.4275 55.2239 50.3784 55.3127 50.3784H65.6709C65.746 50.3784 65.816 50.4139 65.8598 50.4744L68.6769 54.3144C68.7291 54.3854 68.7374 54.4804 68.6967 54.5597C68.656 54.639 68.5756 54.6881 68.4869 54.6881ZM58.2477 54.2184H68.0235L65.5508 50.8481H55.775L58.2477 54.2184Z" fill="#F9FAFB"/>
<path d="M81.6303 39.6339C81.7159 39.7706 81.8004 39.9094 81.8818 40.0493C81.9048 40.0889 81.9267 40.1286 81.9497 40.1683C82.0081 40.2705 82.0655 40.3718 82.1209 40.4751C82.148 40.5252 82.1751 40.5764 82.2023 40.6275C82.2503 40.7194 82.2973 40.8112 82.3442 40.9041C82.3755 40.9678 82.4068 41.0304 82.4382 41.0941C82.482 41.1849 82.5248 41.2757 82.5665 41.3675C82.5947 41.4302 82.624 41.4928 82.6521 41.5554C82.6949 41.6525 82.7356 41.7495 82.7763 41.8477C82.8014 41.9072 82.8264 41.9656 82.8504 42.0251C82.8964 42.1389 82.9392 42.2537 82.983 42.3695C82.9997 42.4144 83.0174 42.4572 83.0331 42.5021C83.0519 42.5532 83.0686 42.6054 83.0863 42.6566C83.1312 42.7839 83.1751 42.9112 83.2168 43.0396C83.2387 43.1085 83.2586 43.1774 83.2805 43.2463C83.3149 43.359 83.3494 43.4707 83.3817 43.5845C83.4026 43.6596 83.4224 43.7369 83.4433 43.813C83.4725 43.9216 83.5007 44.0301 83.5268 44.1408C83.5456 44.2201 83.5644 44.3005 83.5821 44.3798C83.6061 44.4884 83.6301 44.5959 83.652 44.7055C83.6708 44.7994 83.6896 44.8933 83.7074 44.9883C83.7209 45.0593 83.7335 45.1303 83.746 45.2012C83.7637 45.3067 83.7804 45.4142 83.7961 45.5206C83.8065 45.5885 83.817 45.6563 83.8264 45.7252C83.842 45.8431 83.8566 45.9621 83.8702 46.0811C83.8765 46.1385 83.8848 46.197 83.89 46.2544C83.9088 46.4318 83.9245 46.6103 83.937 46.7888L86.7541 50.6288C86.7416 50.4492 86.7249 50.2707 86.7071 50.0944C86.7009 50.0359 86.6935 49.9785 86.6873 49.9211C86.6737 49.8021 86.6601 49.6831 86.6434 49.5652C86.6341 49.4973 86.6236 49.4295 86.6132 49.3616C86.5975 49.2541 86.5808 49.1477 86.5631 49.0412C86.5506 48.9702 86.538 48.8993 86.5245 48.8283C86.514 48.7709 86.5046 48.7124 86.4931 48.655C86.4858 48.6185 86.4764 48.582 86.4691 48.5454C86.4472 48.4369 86.4232 48.3283 86.3992 48.2198C86.3815 48.1394 86.3637 48.0601 86.3439 47.9808C86.3178 47.8712 86.2886 47.7626 86.2604 47.653C86.2406 47.5768 86.2207 47.5006 86.1988 47.4244C86.1665 47.3107 86.133 47.199 86.0986 47.0863C86.0777 47.0174 86.0569 46.9474 86.0349 46.8785C85.9932 46.7502 85.9493 46.6228 85.9045 46.4965C85.8888 46.4506 85.8742 46.4047 85.8575 46.3588C85.8554 46.3525 85.8533 46.3473 85.8512 46.3421C85.8356 46.2972 85.8178 46.2544 85.8011 46.2095C85.7583 46.0936 85.7145 45.9788 85.6686 45.8651C85.6446 45.8056 85.6195 45.7482 85.5955 45.6897C85.5548 45.5916 85.5131 45.4935 85.4703 45.3964C85.4421 45.3338 85.4139 45.2712 85.3847 45.2085C85.3429 45.1167 85.3001 45.0259 85.2563 44.9351C85.226 44.8714 85.1937 44.8077 85.1624 44.7451C85.1394 44.6992 85.1175 44.6533 85.0945 44.6073C85.0705 44.5604 85.0455 44.5145 85.0204 44.4675C84.9933 44.4163 84.9672 44.3652 84.939 44.3151C84.8837 44.2118 84.8263 44.1095 84.7678 44.0082C84.7449 43.9686 84.7229 43.9279 84.7 43.8892C84.6186 43.7494 84.5351 43.6106 84.4484 43.4738C84.4349 43.4519 84.4203 43.431 84.4067 43.4091C84.3461 43.3141 84.2856 43.2192 84.223 43.1263C84.2125 43.1116 84.2021 43.097 84.1917 43.0824C84.08 42.9175 83.9673 42.7536 83.8493 42.5929L81.0322 38.7529C81.1502 38.9137 81.2639 39.0765 81.3746 39.2425C81.4476 39.351 81.5186 39.4596 81.5885 39.5702C81.6011 39.5911 81.6157 39.6119 81.6303 39.6339Z" fill="#D0D5DD"/>
<path d="M86.7504 50.8657C86.6774 50.8657 86.6064 50.8313 86.5615 50.7697L83.7444 46.9297C83.7183 46.8942 83.7027 46.8514 83.6995 46.8076C83.687 46.6385 83.6724 46.4663 83.6526 46.2805C83.6494 46.2461 83.6453 46.2127 83.6411 46.1782L83.6327 46.1093C83.6192 45.9924 83.6056 45.8755 83.5899 45.7586C83.5837 45.7106 83.5764 45.6636 83.5691 45.6167L83.5597 45.5572C83.544 45.4518 83.5273 45.3474 83.5096 45.243C83.4981 45.1741 83.4856 45.1052 83.472 45.0363C83.4542 44.9393 83.4365 44.8464 83.4177 44.7535C83.3958 44.646 83.3728 44.5395 83.3488 44.4331L83.3457 44.4184C83.329 44.3443 83.3123 44.2713 83.2945 44.1972C83.2685 44.0886 83.2403 43.9822 83.2121 43.8746L83.1964 43.8141C83.1818 43.7598 83.1672 43.7045 83.1526 43.6502C83.1213 43.5386 83.0868 43.4279 83.0534 43.3162L83.0315 43.2421C83.018 43.1983 83.0054 43.1545 82.9919 43.1117C82.9512 42.9854 82.9073 42.8591 82.8635 42.7338L82.8405 42.666C82.8311 42.6378 82.8217 42.6096 82.8113 42.5825C82.8019 42.5574 82.7925 42.5334 82.7831 42.5094L82.7612 42.452C82.7184 42.3382 82.6756 42.2255 82.6307 42.1128C82.6151 42.0752 82.5994 42.0366 82.5838 41.999L82.5587 41.9385C82.519 41.8425 82.4783 41.7454 82.4366 41.6504C82.4147 41.6014 82.3927 41.5523 82.3698 41.5032L82.352 41.4657C82.3103 41.3749 82.2685 41.2851 82.2257 41.1964C82.1955 41.1337 82.1642 41.0711 82.1339 41.0095C82.088 40.9187 82.042 40.8279 81.994 40.7371C81.9679 40.687 81.9418 40.6369 81.9147 40.5868C81.8594 40.4856 81.803 40.3843 81.7456 40.2841L81.7185 40.2372C81.7049 40.2142 81.6924 40.1902 81.6788 40.1672C81.5932 40.0211 81.5129 39.8875 81.4315 39.7581L81.3897 39.6944C81.3208 39.5859 81.2498 39.4784 81.1789 39.3719C81.0578 39.1924 80.9482 39.0348 80.8417 38.8907C80.7655 38.7864 80.7875 38.6392 80.8918 38.5619C80.9962 38.4857 81.1434 38.5077 81.2206 38.612L84.0377 42.452C84.1483 42.6023 84.2621 42.7651 84.3853 42.9488L84.3968 42.9645C84.4041 42.9739 84.4103 42.9833 84.4166 42.9937C84.4803 43.0887 84.5418 43.1847 84.6034 43.2818L84.6462 43.3486C84.7297 43.4812 84.8153 43.6231 84.9009 43.7703C84.9155 43.7953 84.9301 43.8204 84.9437 43.8465L84.9698 43.8924C85.0293 43.9957 85.0867 44.0991 85.1441 44.2045C85.1723 44.2556 85.1994 44.3078 85.2265 44.359L85.2547 44.4122C85.2704 44.4414 85.286 44.4706 85.3017 44.4999C85.3163 44.528 85.3299 44.5562 85.3434 44.5844L85.3706 44.6397C85.4029 44.7034 85.4342 44.7681 85.4656 44.8328C85.5104 44.9247 85.5532 45.0176 85.596 45.1115L85.6148 45.1512C85.6378 45.2013 85.6607 45.2514 85.6827 45.3015C85.7265 45.4006 85.7682 45.4998 85.81 45.6L85.834 45.6574C85.8507 45.6981 85.8684 45.7377 85.8841 45.7785C85.9311 45.8943 85.9749 46.0112 86.0187 46.1292L86.0386 46.1824C86.049 46.2095 86.0595 46.2367 86.0699 46.2638L86.0762 46.2805C86.0866 46.3076 86.0949 46.3358 86.1043 46.363L86.1242 46.4204C86.169 46.5487 86.2139 46.6782 86.2557 46.8086C86.2703 46.8546 86.2849 46.9015 86.2985 46.9475L86.3204 47.0195C86.3548 47.1332 86.3903 47.247 86.4227 47.3629C86.4394 47.4203 86.454 47.4787 86.4696 47.5372L86.4853 47.5946C86.5145 47.7052 86.5438 47.8159 86.5709 47.9265C86.5897 48.0017 86.6064 48.0778 86.6231 48.154L86.6262 48.1697C86.6513 48.2793 86.6753 48.3889 86.6972 48.4995L86.7076 48.5454C86.7128 48.5674 86.717 48.5893 86.7212 48.6112C86.7285 48.6467 86.7348 48.6822 86.741 48.7177L86.7536 48.7866C86.7671 48.8607 86.7807 48.9316 86.7922 49.0026C86.811 49.1101 86.8277 49.2187 86.8433 49.3272L86.8527 49.3867C86.86 49.4358 86.8673 49.4848 86.8746 49.5339C86.8913 49.6539 86.9049 49.7739 86.9195 49.895L86.9268 49.9587C86.931 49.9963 86.9362 50.0328 86.9393 50.0704C86.9592 50.2614 86.9748 50.4388 86.9874 50.6131C86.9947 50.7175 86.932 50.8146 86.8339 50.8501C86.8047 50.8605 86.7776 50.8657 86.7504 50.8657ZM84.163 46.7053L86.4321 49.799C86.4237 49.7312 86.4154 49.6644 86.406 49.5976C86.3997 49.5506 86.3924 49.5036 86.3851 49.4566L86.3757 49.3961C86.3601 49.2907 86.3434 49.1853 86.3256 49.0809C86.3141 49.012 86.3006 48.9431 86.288 48.8732L86.2745 48.797C86.2692 48.7646 86.263 48.7323 86.2567 48.701C86.2536 48.6832 86.2494 48.6655 86.2452 48.6477C86.2411 48.6289 86.2369 48.6112 86.2338 48.5924C86.2118 48.4849 86.1889 48.3784 86.1649 48.272L86.1617 48.2563C86.145 48.1822 86.1283 48.1092 86.1106 48.0361C86.0845 47.9275 86.0563 47.8211 86.0281 47.7136L86.0125 47.6551C85.9979 47.5998 85.9833 47.5445 85.9676 47.4892C85.9363 47.3775 85.9029 47.2668 85.8684 47.1562L85.8455 47.0811C85.833 47.0372 85.8194 46.9944 85.8058 46.9516C85.7651 46.8253 85.7213 46.7001 85.6774 46.5748C85.6701 46.5529 85.6628 46.531 85.6555 46.5101C85.6482 46.4861 85.6399 46.4632 85.6315 46.4392L85.6253 46.4235C85.6159 46.3974 85.6065 46.3734 85.5971 46.3494L85.5751 46.292C85.5324 46.1782 85.4896 46.0644 85.4447 45.9528C85.429 45.9141 85.4134 45.8766 85.3977 45.839L85.3727 45.7805C85.332 45.6835 85.2923 45.5874 85.2495 45.4914C85.2286 45.4434 85.2057 45.3954 85.1837 45.3474L85.165 45.3067C85.1232 45.2169 85.0815 45.1261 85.0387 45.0374C85.0084 44.9748 84.9771 44.9121 84.9468 44.8506L84.9176 44.7911C84.9051 44.766 84.8925 44.7399 84.88 44.7159C84.8664 44.6888 84.8518 44.6627 84.8383 44.6355L84.808 44.5781C84.7819 44.528 84.7558 44.4779 84.7287 44.4278C84.6733 44.3266 84.617 44.2253 84.5596 44.1251L84.5324 44.0771C84.5199 44.0542 84.5063 44.0312 84.4928 44.0082C84.4093 43.8653 84.3258 43.7275 84.2454 43.5991L84.2037 43.5354C84.1442 43.4425 84.0847 43.3486 84.0231 43.2567L83.9928 43.214C83.8717 43.0344 83.7622 42.8768 83.6557 42.7317L83.0514 41.9082C83.0555 41.9187 83.0597 41.9291 83.0639 41.9395C83.1098 42.0554 83.1547 42.1723 83.1985 42.2892L83.2184 42.3424C83.2288 42.3696 83.2392 42.3967 83.2497 42.4249C83.2612 42.4562 83.2716 42.4875 83.282 42.5188L83.3039 42.5814C83.3488 42.7109 83.3947 42.8403 83.4365 42.9708C83.4511 43.0167 83.4657 43.0637 83.4793 43.1096L83.5012 43.1806C83.5357 43.2943 83.5711 43.4091 83.6035 43.524C83.6192 43.5814 83.6348 43.6388 83.6494 43.6962L83.6651 43.7557C83.6943 43.8663 83.7235 43.9769 83.7507 44.0876C83.7695 44.1638 83.7862 44.24 83.8039 44.3162L83.807 44.3308C83.8321 44.4404 83.8561 44.55 83.878 44.6606C83.8978 44.7556 83.9156 44.8516 83.9333 44.9476C83.9469 45.0228 83.9605 45.0927 83.9719 45.1637C83.9907 45.2712 84.0074 45.3797 84.0231 45.4873L84.0314 45.5457C84.0387 45.5948 84.0461 45.6449 84.0534 45.695C84.0701 45.815 84.0836 45.935 84.0972 46.0551L84.1045 46.1208C84.1087 46.1573 84.1139 46.1949 84.117 46.2314C84.1379 46.3974 84.1515 46.5529 84.163 46.7053Z" fill="#F9FAFB"/>
<path d="M83.933 46.7896L86.7501 50.6306L77.0734 52.7984L74.2563 48.9585L83.933 46.7896Z" fill="#D0D5DD"/>
<path d="M77.0735 53.0335C76.9994 53.0335 76.9294 52.999 76.8845 52.9374L74.0675 49.0975C74.0205 49.0338 74.009 48.9503 74.0372 48.8762C74.0654 48.8021 74.128 48.7468 74.2052 48.729L83.8819 46.5601C83.9737 46.5392 84.0677 46.5747 84.123 46.6499L86.9401 50.4898C86.987 50.5535 86.9985 50.637 86.9703 50.7111C86.9422 50.7852 86.8795 50.8405 86.8023 50.8583L77.1257 53.0272C77.1069 53.0324 77.0902 53.0335 77.0735 53.0335ZM74.6582 49.109L77.1716 52.5356L86.3483 50.4794L83.8349 47.0528L74.6582 49.109Z" fill="#F9FAFB"/>
<path d="M60.7632 59.7847L63.5792 63.6246L59.7048 72.5717L56.8877 68.7307L60.7632 59.7847Z" fill="#D0D5DD"/>
<path d="M59.7048 72.8064C59.6307 72.8064 59.5597 72.7709 59.5159 72.7104L56.6988 68.8704C56.6497 68.8036 56.6393 68.7149 56.6727 68.6376L60.5482 59.6916C60.5816 59.6144 60.6536 59.5611 60.7371 59.5518C60.8206 59.5424 60.903 59.5789 60.9531 59.6467L63.7702 63.4867C63.8193 63.5535 63.8297 63.6422 63.7963 63.7195L59.9209 72.6655C59.8875 72.7427 59.8154 72.7959 59.7319 72.8053C59.7215 72.8053 59.7132 72.8064 59.7048 72.8064ZM57.157 68.7002L59.6516 72.1018L63.311 63.6547L60.8164 60.2531L57.157 68.7002Z" fill="#F9FAFB"/>
<path d="M50.9191 66.7257L48.1021 62.8857C50.1635 65.6966 53.2039 67.7716 56.8884 68.7308L59.7055 72.5707C56.02 71.6126 52.9806 69.5365 50.9191 66.7257Z" fill="#D0D5DD"/>
<path d="M59.7049 72.8065C59.6851 72.8065 59.6653 72.8044 59.6454 72.7992C55.9547 71.8379 52.8715 69.7869 50.7286 66.8654L47.9116 63.0254C47.8354 62.9211 47.8573 62.7739 47.9617 62.6967C48.066 62.6194 48.2132 62.6424 48.2904 62.7468C50.3685 65.5795 53.361 67.57 56.9463 68.5041C56.9985 68.5177 57.0444 68.549 57.0768 68.5928L59.8938 72.4328C59.9523 72.5132 59.9544 72.6217 59.8991 72.7031C59.8542 72.7689 59.7811 72.8065 59.7049 72.8065ZM50.5178 65.783L51.1075 66.5867C53.0583 69.2462 55.8159 71.1636 59.1121 72.1604L56.748 68.9362C54.3922 68.3121 52.287 67.2412 50.5178 65.783Z" fill="#F9FAFB"/>
<mask id="mask0_425_446" style="mask-type:luminance" maskUnits="userSpaceOnUse" x="48" y="62" width="12" height="11">
<mask id="mask1_425_446" style="mask-type:luminance" maskUnits="userSpaceOnUse" x="48" y="62" width="12" height="11">
<path d="M50.9182 66.7257L48.1011 62.8857C50.1625 65.6966 53.2029 67.7716 56.8874 68.7308L59.7045 72.5707C56.019 71.6126 52.9796 69.5365 50.9182 66.7257Z" fill="white"/>
</mask>
<g mask="url(#mask1_425_446)">
<path d="M59.7049 72.8065C59.6851 72.8065 59.6653 72.8044 59.6454 72.7992C55.9547 71.8379 52.8715 69.7869 50.7286 66.8654L47.9116 63.0254C47.8354 62.9211 47.8573 62.7739 47.9617 62.6967C48.066 62.6194 48.2132 62.6424 48.2904 62.7468C50.3685 65.5795 53.361 67.57 56.9463 68.5041C56.9985 68.5177 57.0444 68.549 57.0768 68.5928L59.8938 72.4328C59.9523 72.5132 59.9544 72.6217 59.8991 72.7031C59.8542 72.7689 59.7811 72.8065 59.7049 72.8065ZM50.5178 65.783L51.1075 66.5867C53.0583 69.2462 55.8159 71.1636 59.1121 72.1604L56.748 68.9362C54.3922 68.3121 52.287 67.2412 50.5178 65.783Z" fill="white"/>
</g>
</mask>
<g mask="url(#mask0_425_446)">
<path d="M56.8874 68.7308L59.7045 72.5707C56.02 71.6115 52.9796 69.5365 50.9182 66.7257L48.1011 62.8857C50.1625 65.6966 53.2029 67.7716 56.8874 68.7308Z" fill="#D0D5DD"/>
<path d="M59.7044 72.8065C59.6846 72.8065 59.6648 72.8044 59.6449 72.7992C55.9542 71.8379 52.871 69.7869 50.7282 66.8654L47.9111 63.0254C47.8349 62.9211 47.8568 62.7739 47.9612 62.6967C48.0655 62.6194 48.2127 62.6424 48.2899 62.7468C50.3681 65.5795 53.3605 67.57 56.9458 68.5041C56.998 68.5177 57.0439 68.549 57.0763 68.5928L59.8934 72.4328C59.9518 72.5132 59.9539 72.6217 59.8986 72.7031C59.8537 72.7689 59.7806 72.8065 59.7044 72.8065ZM50.5173 65.783L51.107 66.5867C53.0578 69.2462 55.8154 71.1636 59.1116 72.1604L56.7475 68.9362C54.3917 68.3121 52.2865 67.2412 50.5173 65.783Z" fill="#F9FAFB"/>
</g>
<path d="M83.9445 48.9897C83.9111 49.592 83.8464 50.2005 83.7483 50.8194C82.119 61.0347 72.2075 69.3179 61.6166 69.3179C60.7481 69.3179 59.9038 69.2626 59.0854 69.1551L63.0225 60.0692H63.0914C68.2559 60.0692 73.0958 56.1301 74.0894 51.1983L83.9445 48.9897Z" fill="#D0D5DD"/>
<path d="M61.616 69.553C60.7445 69.553 59.8824 69.4977 59.0536 69.3881C58.9806 69.3787 58.9158 69.3348 58.8804 69.2712C58.8438 69.2075 58.8396 69.1292 58.8689 69.0624L62.8059 59.9765C62.8435 59.891 62.928 59.8346 63.0209 59.8346H63.0898C68.1468 59.8346 72.876 56.0207 73.8572 51.1526C73.876 51.0618 73.9459 50.9898 74.0357 50.97L83.8908 48.7614C83.9628 48.7457 84.0379 48.7635 84.0943 48.8115C84.1507 48.8595 84.1809 48.9305 84.1768 49.0036C84.1434 49.6152 84.0766 50.2383 83.9774 50.8573C82.3356 61.1654 72.303 69.553 61.616 69.553ZM59.4242 68.9601C60.137 69.0415 60.8729 69.0833 61.615 69.0833C72.0818 69.0833 81.9056 60.8731 83.515 50.7821C83.5944 50.2842 83.6528 49.7832 83.6893 49.2875L74.2872 51.3948C73.2038 56.3756 68.3639 60.2615 63.1754 60.3043L59.4242 68.9601Z" fill="#F9FAFB"/>
<path d="M85.3395 58.9993C85.3979 58.8574 85.4543 58.7134 85.5096 58.5704C85.5263 58.5265 85.543 58.4837 85.5597 58.4399C85.6286 58.2572 85.6944 58.0735 85.757 57.8888C85.7705 57.8481 85.7841 57.8063 85.7977 57.7656C85.8478 57.6174 85.8948 57.4692 85.9417 57.3199C85.9595 57.2636 85.9762 57.2072 85.9929 57.1509C86.0409 56.9912 86.0868 56.8315 86.1296 56.6707C86.1379 56.6405 86.1473 56.6091 86.1546 56.5789C86.2047 56.39 86.2517 56.199 86.2966 56.0079C86.3081 55.9578 86.3196 55.9067 86.331 55.8556C86.3644 55.7084 86.3958 55.5602 86.426 55.412C86.4375 55.3556 86.449 55.3003 86.4594 55.2439C86.497 55.0498 86.5314 54.8556 86.5628 54.6594C86.6609 54.0415 86.7266 53.432 86.759 52.8297L83.9419 48.9897C83.9085 49.592 83.8438 50.2005 83.7457 50.8194C83.7144 51.0146 83.6789 51.2098 83.6423 51.4039C83.6319 51.4603 83.6204 51.5156 83.6089 51.572C83.5787 51.7202 83.5473 51.8684 83.5139 52.0156C83.5025 52.0667 83.492 52.1168 83.4795 52.168C83.4346 52.359 83.3877 52.5489 83.3376 52.7389C83.3292 52.7692 83.3209 52.7994 83.3125 52.8308C83.2687 52.9915 83.2227 53.1512 83.1758 53.3109C83.1591 53.3672 83.1413 53.4236 83.1246 53.48C83.0787 53.6292 83.0307 53.7774 82.9806 53.9257C82.967 53.9664 82.9535 54.0081 82.9399 54.0488C82.8762 54.2336 82.8105 54.4173 82.7426 54.5999C82.7259 54.6438 82.7092 54.6866 82.6925 54.7304C82.6372 54.8744 82.5808 55.0174 82.5224 55.1594C82.5005 55.2136 82.4775 55.2679 82.4556 55.3222C82.3888 55.4808 82.3209 55.6395 82.25 55.7961C82.2395 55.819 82.2301 55.842 82.2197 55.865C82.1383 56.0455 82.0527 56.224 81.9661 56.4025C81.9421 56.4505 81.9181 56.4985 81.894 56.5476C81.8252 56.6853 81.7552 56.8221 81.6842 56.9588C81.6592 57.0058 81.6352 57.0538 81.6091 57.1008C81.5162 57.2751 81.4202 57.4494 81.3221 57.6216C81.3085 57.6445 81.2949 57.6675 81.2824 57.6905C81.1958 57.8418 81.1071 57.9911 81.0162 58.1403C80.9818 58.1967 80.9474 58.2531 80.9129 58.3084C80.8597 58.395 80.8054 58.4806 80.7511 58.5662C80.7125 58.6267 80.6739 58.6862 80.6353 58.7468C80.5789 58.8334 80.5215 58.919 80.4641 59.0056C80.4255 59.063 80.3869 59.1204 80.3482 59.1778C80.2867 59.2676 80.224 59.3574 80.1604 59.4461C80.1238 59.4972 80.0873 59.5494 80.0508 59.6005C79.9746 59.707 79.8963 59.8124 79.818 59.9178C79.794 59.9492 79.771 59.9815 79.747 60.0128C79.5508 60.2727 79.3483 60.5295 79.1406 60.7821C79.1385 60.7842 79.1375 60.7862 79.1354 60.7883C78.9267 61.042 78.7116 61.2914 78.4914 61.5367C78.4862 61.5419 78.482 61.5471 78.4768 61.5524C78.2712 61.7809 78.0624 62.0054 77.8474 62.2256C77.8443 62.2287 77.8411 62.2329 77.838 62.236C77.6261 62.4542 77.409 62.6671 77.1888 62.8769C77.1773 62.8873 77.1669 62.8978 77.1554 62.9092C76.9456 63.1086 76.7316 63.3027 76.5135 63.4948C76.4937 63.5125 76.4738 63.5303 76.454 63.548C76.2421 63.7338 76.0261 63.9144 75.8079 64.0929C75.7818 64.1148 75.7547 64.1367 75.7286 64.1576C75.5084 64.335 75.285 64.5093 75.0585 64.6795C75.0293 64.7014 74.999 64.7243 74.9698 64.7462C74.7443 64.9143 74.5157 65.0771 74.2851 65.2368C74.2538 65.2587 74.2214 65.2807 74.1901 65.3026C73.9448 65.4706 73.6964 65.6334 73.4449 65.7921C73.4146 65.8109 73.3854 65.8297 73.3551 65.8485C73.1015 66.0071 72.8437 66.1605 72.5838 66.3098C72.5483 66.3296 72.5138 66.3505 72.4794 66.3703C72.3781 66.4277 72.2769 66.4831 72.1746 66.5394C72.1235 66.5676 72.0713 66.5968 72.0201 66.624C71.8782 66.7002 71.7341 66.7753 71.5912 66.8494C71.5797 66.8557 71.5682 66.8619 71.5567 66.8682C71.4012 66.9475 71.2436 67.0248 71.087 67.101C71.038 67.125 70.9889 67.1469 70.9388 67.1709C70.8303 67.222 70.7207 67.2732 70.6111 67.3233C70.5631 67.3452 70.514 67.3661 70.466 67.388C70.323 67.4517 70.18 67.5143 70.036 67.5748C69.9827 67.5978 69.9295 67.6197 69.8763 67.6416C69.6926 67.7178 69.5078 67.7919 69.321 67.8639C69.3189 67.865 69.3168 67.866 69.3147 67.866C69.1268 67.938 68.9379 68.0069 68.748 68.0737C68.6937 68.0925 68.6405 68.1113 68.5862 68.1301C68.439 68.1812 68.2908 68.2303 68.1426 68.2783C68.0956 68.2929 68.0486 68.3086 68.0017 68.3242C67.7773 68.3952 67.5518 68.462 67.3243 68.5246C67.2784 68.5372 67.2314 68.5497 67.1844 68.5633C66.9517 68.6269 66.7189 68.6875 66.4841 68.7428C66.4695 68.7459 66.4548 68.749 66.4413 68.7522C66.2148 68.8054 65.9862 68.8545 65.7587 68.9004C65.7169 68.9087 65.6741 68.9181 65.6324 68.9265C65.4006 68.9714 65.1689 69.0131 64.9362 69.0507C64.8892 69.058 64.8433 69.0653 64.7963 69.0726C64.5563 69.1102 64.3151 69.1446 64.074 69.1728C64.0657 69.1739 64.0573 69.1749 64.049 69.1759C63.8131 69.2041 63.5751 69.2271 63.3382 69.2469C63.2933 69.2511 63.2484 69.2553 63.2035 69.2584C62.9677 69.2772 62.7318 69.2908 62.4948 69.3012C62.4489 69.3033 62.4019 69.3043 62.356 69.3064C62.1097 69.3158 61.8644 69.321 61.617 69.321C60.7486 69.321 59.9042 69.2657 59.0859 69.1582L61.903 72.9982C62.7224 73.1067 63.5657 73.161 64.4341 73.161C64.6805 73.161 64.9268 73.1547 65.1731 73.1464C65.219 73.1443 65.266 73.1432 65.3119 73.1412C65.5489 73.1307 65.7847 73.1172 66.0206 73.0984C66.0655 73.0952 66.1104 73.0911 66.1553 73.0869C66.3933 73.0671 66.6302 73.0441 66.8661 73.0159C66.8744 73.0149 66.8828 73.0138 66.8911 73.0128C67.1322 72.9836 67.3733 72.9491 67.6124 72.9126C67.6593 72.9053 67.7063 72.898 67.7533 72.8907C67.986 72.8531 68.2177 72.8113 68.4484 72.7665C68.4912 72.7581 68.533 72.7487 68.5757 72.7404C68.8033 72.6944 69.0308 72.6454 69.2573 72.5921C69.2719 72.589 69.2876 72.5859 69.3022 72.5817C69.536 72.5264 69.7698 72.4648 70.0015 72.4022C70.0485 72.3897 70.0944 72.3771 70.1414 72.3636C70.3679 72.2999 70.5933 72.2331 70.8177 72.1632C70.8313 72.159 70.8459 72.1548 70.8595 72.1506C70.8929 72.1402 70.9263 72.1277 70.9607 72.1172C71.1089 72.0692 71.2561 72.0202 71.4033 71.9701C71.4576 71.9513 71.5118 71.9325 71.5661 71.9137C71.7561 71.8469 71.945 71.778 72.1329 71.706C72.136 71.705 72.1391 71.7039 72.1423 71.7029C72.327 71.6319 72.5107 71.5578 72.6944 71.4816C72.7476 71.4597 72.8019 71.4367 72.8551 71.4137C72.9981 71.3532 73.1411 71.2916 73.2831 71.228C73.3154 71.2134 73.3478 71.2008 73.3791 71.1862C73.3958 71.1789 73.4125 71.1706 73.4292 71.1622C73.5377 71.1131 73.6463 71.062 73.7538 71.0109C73.8039 70.9869 73.854 70.9639 73.9041 70.9399C74.0617 70.8637 74.2183 70.7865 74.3738 70.7071C74.3853 70.7009 74.3968 70.6946 74.4082 70.6894C74.5523 70.6153 74.6953 70.5412 74.8383 70.4639C74.8905 70.4358 74.9416 70.4076 74.9927 70.3794C75.095 70.3241 75.1963 70.2677 75.2975 70.2103C75.3153 70.1999 75.333 70.1915 75.3497 70.1811C75.3675 70.1706 75.3842 70.1602 75.4019 70.1498C75.6618 70.0005 75.9186 69.8471 76.1722 69.6884C76.2025 69.6696 76.2327 69.6498 76.263 69.631C76.5145 69.4724 76.763 69.3095 77.0072 69.1425C77.0208 69.1331 77.0343 69.1248 77.0479 69.1164C77.0667 69.1039 77.0844 69.0893 77.1032 69.0768C77.3339 68.9171 77.5625 68.7543 77.7879 68.5862C77.8182 68.5643 77.8474 68.5413 77.8766 68.5194C78.1031 68.3493 78.3265 68.176 78.5467 67.9975C78.5561 67.9902 78.5666 67.9819 78.577 67.9746C78.5937 67.961 78.6093 67.9464 78.6271 67.9328C78.8452 67.7543 79.0613 67.5738 79.2732 67.388C79.293 67.3702 79.3128 67.3525 79.3327 67.3348C79.5498 67.1438 79.7637 66.9486 79.9735 66.7503C79.9767 66.7471 79.9798 66.744 79.984 66.7409C79.9923 66.7336 79.9996 66.7252 80.008 66.7179C80.2282 66.5081 80.4453 66.2952 80.6572 66.077C80.6603 66.0739 80.6635 66.0697 80.6676 66.0666C80.8816 65.8464 81.0914 65.622 81.297 65.3944C81.3001 65.3902 81.3043 65.3871 81.3075 65.3829C81.3085 65.3819 81.3095 65.3798 81.3106 65.3788C81.5308 65.1335 81.7458 64.884 81.9546 64.6304C81.9567 64.6283 81.9577 64.6262 81.9598 64.6241C82.1675 64.3715 82.37 64.1158 82.5662 63.8549C82.5683 63.8528 82.5704 63.8507 82.5714 63.8476C82.5934 63.8184 82.6142 63.7891 82.6362 63.7599C82.7144 63.6545 82.7927 63.5491 82.87 63.4416C82.9065 63.3904 82.942 63.3393 82.9785 63.2881C83.0422 63.1984 83.1048 63.1086 83.1674 63.0178C83.206 62.9614 83.2447 62.904 83.2833 62.8466C83.3407 62.761 83.3981 62.6744 83.4555 62.5878C83.4941 62.5283 83.5327 62.4677 83.5714 62.4072C83.6256 62.3216 83.6799 62.236 83.7331 62.1504C83.754 62.117 83.7749 62.0847 83.7947 62.0523C83.8093 62.0294 83.8219 62.0054 83.8365 61.9824C83.9273 61.8331 84.016 61.6839 84.1026 61.5325C84.1162 61.5096 84.1298 61.4866 84.1423 61.4636C84.2404 61.2914 84.3354 61.1182 84.4293 60.9428C84.4544 60.8958 84.4794 60.8478 84.5045 60.8009C84.5754 60.6641 84.6454 60.5274 84.7143 60.3896C84.7383 60.3416 84.7623 60.2936 84.7863 60.2445C84.8729 60.0661 84.9575 59.8876 85.0399 59.707C85.042 59.7028 85.0441 59.6987 85.0462 59.6945C85.0545 59.6757 85.0618 59.6569 85.0702 59.6381C85.1412 59.4805 85.209 59.3229 85.2758 59.1643C85.2956 59.1079 85.3176 59.0536 85.3395 58.9993Z" fill="#D0D5DD"/>
<path d="M64.4321 73.3929C63.5606 73.3929 62.6984 73.3375 61.8697 73.228C61.806 73.2196 61.7486 73.1852 61.711 73.134L58.8939 69.294C58.8386 69.2179 58.8334 69.1166 58.8814 69.0352C58.9294 68.9538 59.0213 68.9099 59.1142 68.9225C59.9231 69.0289 60.7654 69.0832 61.615 69.0832C61.8342 69.0832 62.0659 69.079 62.3456 69.0686L62.4834 69.0634C62.7172 69.0529 62.9531 69.0394 63.1838 69.0216L63.3174 69.0101C63.5752 68.9882 63.8048 68.9653 64.0209 68.9402C64.0219 68.9402 64.0323 68.9392 64.0334 68.9392L64.0459 68.9381C64.2599 68.912 64.4937 68.8797 64.7598 68.839L64.8976 68.8171C65.1283 68.7795 65.36 68.7388 65.5865 68.6939L65.7117 68.6688C65.9549 68.6198 66.1762 68.5718 66.387 68.5217L66.4298 68.5123C66.6417 68.4622 66.8682 68.4037 67.1218 68.3348L67.2596 68.2973C67.4892 68.2336 67.7147 68.1657 67.9297 68.0989L68.0696 68.0541C68.2167 68.0071 68.3629 67.958 68.5079 67.9079L68.5184 67.9048C68.5685 67.8881 68.6186 67.8704 68.6687 67.8526C68.8837 67.7764 69.0622 67.7107 69.2302 67.647C69.4024 67.5813 69.582 67.5092 69.7855 67.4247C69.8346 67.4049 69.8826 67.384 69.9316 67.3631L69.9431 67.3579C70.0861 67.2973 70.2281 67.2358 70.369 67.1731L70.4211 67.1502C70.4514 67.1366 70.4827 67.123 70.513 67.1095C70.6215 67.0604 70.7301 67.0093 70.8376 66.9581L70.8992 66.9289C70.9274 66.9153 70.9555 66.9028 70.9837 66.8892C71.1392 66.8141 71.2948 66.7379 71.4492 66.6586L71.4837 66.6408C71.6267 66.5678 71.7686 66.4937 71.9095 66.4175C71.9419 66.3997 71.9743 66.382 72.0066 66.3642L72.063 66.3329C72.1642 66.2776 72.2644 66.2223 72.3646 66.1659L72.4679 66.1064C72.7299 65.9561 72.9867 65.8027 73.232 65.6493L73.3217 65.5929C73.5733 65.4342 73.8207 65.2714 74.0597 65.1086L74.1536 65.0439C74.3885 64.8811 74.617 64.7182 74.832 64.5585L74.9208 64.4917C75.1504 64.3195 75.3738 64.1452 75.5846 63.9751L75.6629 63.9104C75.8935 63.7225 76.1033 63.5461 76.3027 63.3707L76.3622 63.3175C76.5897 63.1171 76.7974 62.9282 76.9968 62.7382L77.0291 62.7069C77.2546 62.4929 77.4707 62.279 77.6721 62.0723L77.8506 62.2258L77.6825 62.0619C77.8923 61.8458 78.1021 61.6214 78.3057 61.396C78.3067 61.3949 78.313 61.3876 78.314 61.3866C78.5374 61.1371 78.7524 60.8887 78.958 60.6392C79.1668 60.3856 79.3682 60.1299 79.5623 59.8721L79.6323 59.7781C79.7095 59.6738 79.7867 59.5694 79.8629 59.464C79.8869 59.4316 79.9099 59.3982 79.9329 59.3648L79.9715 59.3105C80.0341 59.2218 80.0957 59.1341 80.1573 59.0444C80.1886 58.9995 80.2189 58.9536 80.2491 58.9077L80.2721 58.8743C80.3295 58.7887 80.3859 58.7041 80.4422 58.6185C80.4808 58.559 80.5184 58.4995 80.557 58.4401C80.6113 58.3555 80.6645 58.2699 80.7178 58.1854C80.7522 58.1301 80.7867 58.0747 80.8201 58.0184C80.9098 57.8712 80.9975 57.723 81.0831 57.5737L81.1228 57.5059C81.2146 57.3452 81.3075 57.1761 81.4067 56.9913L81.4808 56.8504C81.5517 56.7158 81.6206 56.5801 81.6885 56.4444L81.7594 56.3014C81.8523 56.1114 81.9338 55.9371 82.0099 55.7701L82.0402 55.7023C82.1101 55.5468 82.178 55.3902 82.2437 55.2336C82.2657 55.1804 82.2876 55.1272 82.3095 55.0729C82.3669 54.932 82.4233 54.7911 82.4775 54.6481L82.4974 54.5959C82.5068 54.5709 82.5172 54.5448 82.5266 54.5197C82.5944 54.3391 82.6602 54.1554 82.7218 53.9749L82.7625 53.8528C82.8115 53.7066 82.8585 53.5595 82.9044 53.4113C82.9211 53.3559 82.9389 53.2996 82.9556 53.2443C83.0026 53.0866 83.0485 52.928 83.0913 52.7693L83.1163 52.6785C83.1643 52.499 83.2103 52.3153 83.2572 52.1149C83.2645 52.0826 83.2718 52.0502 83.2791 52.0178L83.2906 51.9646C83.323 51.8195 83.3543 51.6734 83.3846 51.5262L83.3919 51.4918C83.4002 51.4479 83.4096 51.4041 83.418 51.3603C83.4597 51.1442 83.4931 50.9563 83.5203 50.7831C83.6163 50.1808 83.681 49.5734 83.7144 48.9784C83.7196 48.8793 83.7864 48.7947 83.8814 48.7665C83.9764 48.7384 84.0787 48.7728 84.1382 48.8532L86.9552 52.6931C86.9876 52.737 87.0033 52.7902 87.0001 52.8445C86.9667 53.4561 86.8999 54.0803 86.8008 54.6982C86.7726 54.8756 86.7382 55.0687 86.6964 55.289C86.6881 55.3328 86.6787 55.3766 86.6703 55.4205L86.663 55.458C86.6327 55.6083 86.6004 55.7576 86.567 55.9069L86.5555 55.959C86.5482 55.9924 86.5409 56.0269 86.5325 56.0603C86.4845 56.2659 86.4375 56.4548 86.3885 56.6385L86.3624 56.7314C86.3186 56.8943 86.2716 57.056 86.2236 57.2178C86.2069 57.2752 86.1891 57.3316 86.1714 57.389C86.1244 57.5403 86.0764 57.6906 86.0263 57.8399L85.9846 57.9651C85.9209 58.1499 85.8541 58.3378 85.7842 58.5236C85.7737 58.5507 85.7633 58.5778 85.7528 58.605L85.733 58.6551C85.6777 58.8001 85.6203 58.9452 85.5608 59.0893C85.5389 59.1446 85.5159 59.1989 85.4929 59.2531C85.4251 59.4139 85.3562 59.5736 85.2852 59.7333L85.2602 59.7907C85.2592 59.7928 85.256 59.8011 85.255 59.8022C85.1767 59.9744 85.0932 60.1529 84.9982 60.347L84.9251 60.4931C84.8563 60.6319 84.7853 60.7708 84.7133 60.9085L84.6381 61.0526C84.5369 61.2425 84.4419 61.4148 84.348 61.5786L84.3072 61.6475C84.2196 61.7999 84.1298 61.9512 84.039 62.1015L83.9972 62.1725C83.9858 62.1913 83.9732 62.2111 83.9618 62.2299L83.9357 62.2717C83.8814 62.3583 83.8271 62.4449 83.7718 62.5316C83.7332 62.5921 83.6935 62.6537 83.6539 62.7142C83.5964 62.8019 83.539 62.8885 83.4806 62.9762L83.4524 63.018C83.4232 63.0618 83.3929 63.1056 83.3637 63.1495C83.3011 63.2403 83.2374 63.3311 83.1727 63.4219L83.1351 63.4751C83.1111 63.5096 83.0871 63.543 83.0631 63.5764C82.9858 63.6839 82.9065 63.7914 82.8272 63.8978L82.7614 63.9866C82.7594 63.9887 82.7552 63.9949 82.7531 63.997C82.5569 64.2558 82.3512 64.5178 82.1435 64.7704C82.1425 64.7725 82.1362 64.7798 82.1352 64.7809C81.9306 65.0303 81.7114 65.2839 81.4881 65.5324L81.4735 65.5491C81.2668 65.7797 81.0528 66.0083 80.8389 66.2285L80.8284 66.239C80.6218 66.4509 80.4015 66.669 80.1729 66.8861L80.1489 66.9101C80.1479 66.9112 80.1406 66.9185 80.1385 66.9195C79.936 67.1116 79.7241 67.3047 79.4914 67.5103L79.4308 67.5635C79.2263 67.742 79.0071 67.9278 78.7785 68.1136L78.6971 68.1804C78.4831 68.3536 78.2556 68.5311 78.0207 68.7064L77.931 68.7743C77.7107 68.9381 77.478 69.1051 77.24 69.269L77.2181 69.2847C77.2066 69.293 77.1951 69.3014 77.1836 69.3087C77.1742 69.3149 77.1659 69.3212 77.1565 69.3264L77.1429 69.3358C76.9029 69.4997 76.6503 69.6656 76.3914 69.8295L76.2996 69.8879C76.0501 70.0445 75.7881 70.2011 75.5209 70.3535L75.5001 70.366C75.4896 70.3722 75.4792 70.3785 75.4677 70.3848L75.4145 70.414C75.3122 70.4724 75.2099 70.5288 75.1066 70.5852L75.0502 70.6165C75.0168 70.6353 74.9844 70.653 74.951 70.6708C74.807 70.748 74.663 70.8242 74.5168 70.8983L74.4824 70.9171C74.3248 70.9975 74.1672 71.0757 74.0075 71.1519C73.9762 71.1676 73.9438 71.1822 73.9115 71.1979L73.8551 71.2239C73.7465 71.2751 73.637 71.3273 73.5274 71.3763L73.4762 71.4003C73.4574 71.4087 73.4386 71.417 73.4199 71.4254L73.3791 71.4431C73.2362 71.5068 73.0921 71.5694 72.947 71.631L72.9063 71.6477C72.8656 71.6644 72.8249 71.6822 72.7842 71.6989C72.5734 71.7865 72.3959 71.8575 72.2268 71.9222C72.0452 71.9921 71.8574 72.061 71.6455 72.1351C71.5964 72.1529 71.5474 72.1696 71.4973 72.1863L71.4806 72.1926C71.3323 72.2437 71.1831 72.2928 71.0338 72.3418L70.99 72.3564C70.9702 72.3627 70.9514 72.37 70.9315 72.3763L70.8888 72.3888C70.6706 72.4577 70.441 72.5255 70.2051 72.5913L70.0631 72.6299C69.8032 72.7009 69.5715 72.7604 69.3565 72.8115L69.3116 72.8219C69.0945 72.8731 68.8691 72.9221 68.6228 72.9722L68.4933 72.9983C68.2668 73.0432 68.0299 73.085 67.7909 73.1236L67.6489 73.1455C67.3786 73.1873 67.1406 73.2206 66.9194 73.2467L66.8995 73.2488C66.673 73.276 66.4382 73.2989 66.1752 73.3209L66.0384 73.3323C65.8025 73.3511 65.5614 73.3647 65.3214 73.3751L65.1805 73.3803C64.8955 73.3887 64.6586 73.3929 64.4321 73.3929ZM62.0304 72.775C62.8091 72.8731 63.6159 72.9232 64.4321 72.9232C64.6523 72.9232 64.884 72.919 65.1627 72.9086L65.3005 72.9033C65.5343 72.8929 65.7702 72.8793 66.0009 72.8616L66.1345 72.8501C66.3923 72.8282 66.6219 72.8052 66.8379 72.7802C66.839 72.7802 66.8484 72.7791 66.8494 72.7791L66.8619 72.7781C67.078 72.752 67.3108 72.7196 67.5759 72.6789L67.7147 72.657C67.9495 72.6194 68.1813 72.5777 68.4025 72.5339L68.5288 72.5078C68.7699 72.4587 68.9912 72.4107 69.202 72.3616L69.2469 72.3512C69.4557 72.3011 69.6822 72.2437 69.9379 72.1738L70.0767 72.1362C70.3074 72.0715 70.5318 72.0047 70.7458 71.9379L70.7865 71.9254C70.8032 71.9201 70.8199 71.9149 70.8355 71.9086L70.8867 71.892C71.0328 71.845 71.1789 71.7959 71.324 71.7458L71.3417 71.7396C71.3897 71.7229 71.4378 71.7072 71.4858 71.6895C71.6945 71.6164 71.8772 71.5486 72.0463 71.4838C72.2206 71.417 72.3938 71.3471 72.6015 71.2615L72.7602 71.1947C72.9022 71.1352 73.0431 71.0736 73.184 71.011L73.232 70.9901C73.2476 70.9828 73.2633 70.9766 73.28 70.9693L73.3311 70.9453C73.4376 70.8962 73.5451 70.8461 73.6516 70.796L73.71 70.7689C73.7403 70.7543 73.7706 70.7407 73.8008 70.7261C73.9574 70.6509 74.1119 70.5747 74.2663 70.4954L74.3008 70.4766C74.4427 70.4036 74.5847 70.3295 74.7256 70.2533C74.7569 70.2366 74.7893 70.2188 74.8206 70.2011L74.879 70.1687C74.9803 70.1134 75.0805 70.0581 75.1807 70.0017L75.2527 69.961C75.2631 69.9547 75.2736 69.9485 75.285 69.9422C75.546 69.7919 75.8027 69.6385 76.048 69.4861L76.1378 69.4297C76.3914 69.27 76.6398 69.1072 76.8747 68.9454L76.9697 68.8797C77.2035 68.7179 77.431 68.5551 77.6481 68.3943L77.7358 68.3275C77.9654 68.1553 78.1888 67.981 78.3996 67.8109L78.4779 67.7462C78.7023 67.5635 78.9173 67.3819 79.1177 67.2065L79.1772 67.1544C79.4058 66.9529 79.6135 66.764 79.8118 66.5751C79.8128 66.574 79.8191 66.5688 79.8212 66.5667L79.8452 66.5427C80.0696 66.3298 80.2857 66.1158 80.4881 65.9081L80.5007 65.8956C80.7084 65.6816 80.9182 65.4583 81.1207 65.2318C81.1228 65.2297 81.128 65.2234 81.1301 65.2213C81.3534 64.9719 81.5684 64.7235 81.773 64.474C81.9818 64.2204 82.1842 63.9646 82.3784 63.7068C82.3794 63.7048 82.3836 63.7006 82.3846 63.6985L82.4473 63.6129C82.5256 63.5085 82.6028 63.4041 82.6779 63.2987C82.7009 63.2664 82.7239 63.234 82.7468 63.2017L82.7855 63.1463C82.8481 63.0576 82.9107 62.9689 82.9723 62.8791C83.0015 62.8363 83.0297 62.7936 83.0589 62.7518L83.0871 62.71C83.1445 62.6245 83.2009 62.5399 83.2572 62.4533C83.2958 62.3938 83.3345 62.3343 83.372 62.2748C83.4263 62.1903 83.4796 62.1057 83.5317 62.0201L83.634 61.8531C83.7227 61.706 83.8104 61.5577 83.8971 61.4085L83.9367 61.3406C84.0275 61.1809 84.1204 61.0119 84.2206 60.8261L84.2947 60.6852C84.3657 60.5505 84.4346 60.4148 84.5024 60.2791L84.5734 60.1362C84.6663 59.9462 84.7477 59.7719 84.8239 59.6049C84.8249 59.6028 84.8281 59.5955 84.8291 59.5934L84.8542 59.537C84.9241 59.3815 84.9919 59.225 85.0577 59.0684C85.0796 59.0152 85.1015 58.9619 85.1235 58.9077C85.1809 58.7667 85.2372 58.6258 85.2915 58.4839L85.3113 58.4317C85.3207 58.4067 85.3312 58.3806 85.3406 58.3555C85.4084 58.1749 85.4742 57.9912 85.5357 57.8107L85.5765 57.6885C85.6255 57.5424 85.6725 57.3953 85.7184 57.247C85.7351 57.1917 85.7528 57.1354 85.7695 57.08C85.8165 56.9224 85.8614 56.7648 85.9052 56.6062L85.9303 56.5154C85.9783 56.3369 86.0242 56.1521 86.0712 55.9517L86.1046 55.8014C86.1369 55.6564 86.1683 55.5102 86.1985 55.3631L86.2058 55.3245C86.2142 55.2817 86.2225 55.2399 86.2309 55.1971C86.2726 54.9821 86.306 54.7932 86.3332 54.6199C86.425 54.0459 86.4887 53.4676 86.5221 52.8988L84.1319 49.6402C84.0954 50.0441 84.0442 50.4501 83.9795 50.853C83.9513 51.0304 83.9169 51.2235 83.8751 51.4438C83.8668 51.4887 83.8574 51.5346 83.848 51.5805L83.8417 51.6139C83.8115 51.7642 83.7791 51.9135 83.7457 52.0627L83.7342 52.1149C83.7269 52.1494 83.7186 52.1828 83.7113 52.2172C83.6632 52.4218 83.6163 52.6107 83.5672 52.7954L83.5411 52.8883C83.4973 53.0512 83.4503 53.2129 83.4023 53.3747C83.3856 53.4321 83.3679 53.4885 83.3501 53.5459C83.3032 53.6972 83.2551 53.8475 83.205 53.9978L83.1633 54.1231C83.0996 54.3078 83.0328 54.4957 82.9629 54.6815C82.9525 54.7086 82.942 54.7358 82.9316 54.7629L82.9117 54.813C82.8564 54.9581 82.799 55.1032 82.7395 55.2472C82.7176 55.3025 82.6946 55.3568 82.6717 55.4111C82.6038 55.5718 82.535 55.7315 82.464 55.8912L82.4337 55.9611C82.3554 56.1323 82.2719 56.3108 82.1769 56.5049L82.1039 56.6511C82.035 56.7899 81.964 56.9287 81.892 57.0665L81.869 57.1103C81.8513 57.1437 81.8336 57.1771 81.8158 57.2105C81.7146 57.3994 81.6196 57.5717 81.5256 57.7366L81.4849 57.8055C81.3973 57.9578 81.3075 58.1092 81.2167 58.2605C81.1822 58.3179 81.1468 58.3743 81.1123 58.4307C81.058 58.5173 81.0038 58.605 80.9484 58.6916C80.9098 58.7521 80.8702 58.8127 80.8315 58.8732C80.7741 58.9609 80.7167 59.0475 80.6583 59.1342L80.6364 59.1676C80.605 59.2145 80.5737 59.2615 80.5414 59.3085C80.4788 59.3993 80.4151 59.489 80.3514 59.5798L80.3138 59.6331C80.2898 59.6675 80.2658 59.702 80.2408 59.7364C80.1635 59.8439 80.0842 59.9504 80.0049 60.0568L79.9339 60.1529C79.7356 60.4159 79.53 60.6768 79.3212 60.9294C79.3202 60.9304 79.3139 60.9378 79.3129 60.9388C79.1062 61.1893 78.887 61.444 78.6647 61.6913L78.6543 61.7028C78.4434 61.9377 78.2295 62.1663 78.0155 62.3865C78.0155 62.3865 78.0061 62.3969 78.0051 62.3969C77.7994 62.6078 77.5792 62.8259 77.3496 63.0441L77.3162 63.0764C77.1126 63.2695 76.9008 63.4626 76.6691 63.6672L76.6085 63.7204C76.4039 63.8989 76.191 64.0795 75.9562 64.2705L75.8758 64.3362C75.6608 64.5095 75.4333 64.6869 75.1984 64.8633L75.1086 64.9312C74.8895 65.094 74.6567 65.261 74.4177 65.4269L74.3217 65.4937C74.0785 65.6597 73.8259 65.8267 73.5691 65.9874L73.4783 66.0448C73.2288 66.2014 72.9669 66.358 72.6997 66.5114L72.5942 66.5719C72.492 66.6293 72.3897 66.6868 72.2863 66.7431L72.2321 66.7734C72.1976 66.7922 72.1642 66.811 72.1298 66.8297C71.9857 66.907 71.8417 66.9832 71.6956 67.0573L71.6601 67.0761C71.5025 67.1564 71.3449 67.2347 71.1852 67.3109C71.1549 67.3255 71.1257 67.3391 71.0954 67.3537L71.0359 67.3819C70.9253 67.4341 70.8157 67.4863 70.705 67.5364C70.6737 67.551 70.6414 67.5645 70.609 67.5792L70.5579 67.6021C70.4138 67.6668 70.2688 67.7295 70.1237 67.791L70.1122 67.7963C70.0621 67.8171 70.013 67.838 69.9629 67.8589C69.7552 67.9445 69.5715 68.0186 69.4024 68.0833C69.225 68.1511 69.0434 68.2179 68.8232 68.2952C68.772 68.3129 68.7209 68.3307 68.6697 68.3484L68.6624 68.3495C68.5142 68.4006 68.3639 68.4507 68.2147 68.4987L68.0727 68.5446C67.8525 68.6135 67.6218 68.6824 67.388 68.7471L67.2471 68.7857C66.9882 68.8567 66.7576 68.9162 66.5394 68.9674L66.4956 68.9767C66.2795 69.0279 66.053 69.0769 65.8057 69.127L65.6783 69.1531C65.4466 69.198 65.2107 69.2408 64.9738 69.2784L64.8329 69.3003C64.5615 69.3421 64.3225 69.3755 64.1023 69.4016L64.0824 69.4036C63.8559 69.4308 63.6211 69.4537 63.3581 69.4757L63.2213 69.4871C62.9854 69.5059 62.7443 69.5195 62.5043 69.5299L62.3634 69.5352C62.0784 69.5456 61.8415 69.5498 61.616 69.5498C60.9324 69.5498 60.2539 69.5153 59.5932 69.4475L62.0304 72.775Z" fill="#F9FAFB"/>
<path d="M62.3337 32.9756L62.9756 42.0291C59.7369 43.004 56.9542 45.4464 55.6495 48.4993C55.3594 49.1767 55.1433 49.8854 55.0107 50.614C54.9982 50.6829 54.9867 50.7518 54.9753 50.8196C54.2864 55.1366 56.7757 58.7667 60.7629 59.7854L56.8874 68.7315C48.9549 66.6669 44.0106 59.4295 45.3842 50.8196C45.3946 50.7507 45.4061 50.6818 45.4187 50.614C46.5939 43.7315 51.5204 37.7518 57.8623 34.6289C59.2891 33.9244 60.789 33.367 62.3337 32.9756Z" fill="#D0D5DD"/>
<path d="M56.8876 68.9654C56.8677 68.9654 56.8479 68.9633 56.8281 68.9581C48.5887 66.8132 43.7874 59.3389 45.1516 50.7822C45.1631 50.7122 45.1746 50.6433 45.186 50.5734C46.3321 43.8621 51.149 37.6716 57.757 34.4172C59.2141 33.699 60.7348 33.1375 62.2754 32.7482C62.3433 32.7315 62.4142 32.7451 62.4706 32.7858C62.527 32.8265 62.5625 32.8901 62.5677 32.959L63.2096 42.0125C63.2169 42.1221 63.148 42.2223 63.0426 42.2537C59.879 43.2056 57.1287 45.6344 55.8647 48.5913C55.5777 49.2625 55.3679 49.9576 55.2405 50.6559C55.228 50.7227 55.2165 50.7895 55.2061 50.8573C54.5506 54.9687 56.8594 58.5467 60.8204 59.5581C60.8872 59.5748 60.9426 59.6207 60.9728 59.6823C61.0031 59.7438 61.0052 59.8159 60.977 59.8795L57.1015 68.8255C57.065 68.9122 56.9794 68.9654 56.8876 68.9654ZM62.1189 33.2742C60.7035 33.6521 59.307 34.1781 57.9647 34.8388C51.4893 38.0275 46.7705 44.0875 45.6495 50.6527C45.638 50.7206 45.6265 50.7884 45.6161 50.8563C44.302 59.0978 48.8747 66.3038 56.7529 68.4519L60.4395 59.9401C56.396 58.7763 54.0621 55.0501 54.7427 50.7822C54.7541 50.7122 54.7656 50.6413 54.7792 50.5713C54.9128 49.8386 55.133 49.1101 55.4336 48.4066C56.7268 45.3807 59.5105 42.8872 62.7284 41.8602L62.1189 33.2742Z" fill="#F9FAFB"/>
<path d="M72.797 44.7857L75.614 48.6257C74.3501 46.9024 72.3492 45.7313 69.9204 45.4662C69.5749 45.4287 69.22 45.4088 68.8578 45.4088C68.6115 45.4088 68.3631 45.4172 68.1188 45.436L65.3018 41.596C65.546 41.5782 65.7944 41.5688 66.0407 41.5688C66.4029 41.5688 66.7568 41.5876 67.1033 41.6263C69.5321 41.8914 71.533 43.0614 72.797 44.7857Z" fill="#D0D5DD"/>
<path d="M75.614 48.8606C75.542 48.8606 75.4699 48.8272 75.424 48.7645L75.423 48.7635C74.1579 47.0392 72.1946 45.9516 69.8942 45.7001C69.3222 45.6375 68.7148 45.6281 68.1355 45.6709C68.0551 45.6761 67.9768 45.6406 67.9288 45.5759L65.1117 41.7359C65.0616 41.667 65.0522 41.5762 65.0877 41.499C65.1232 41.4217 65.1984 41.3696 65.2839 41.3633C65.8914 41.3195 66.5271 41.3288 67.1272 41.3946C69.5602 41.6597 71.6404 42.8151 72.9848 44.648L75.8019 48.488C75.878 48.5923 75.8561 48.7395 75.7517 48.8167C75.711 48.846 75.662 48.8606 75.614 48.8606ZM68.8578 45.174C69.2241 45.174 69.5905 45.1939 69.9453 45.2325C71.4003 45.3911 72.729 45.8681 73.85 46.6186L72.6069 44.9235C71.3419 43.1982 69.3775 42.1096 67.0771 41.8591C66.645 41.8121 66.1941 41.7944 65.7484 41.8079L68.2315 45.1928C68.4392 45.1803 68.649 45.174 68.8578 45.174Z" fill="#F9FAFB"/>
<mask id="mask2_425_446" style="mask-type:luminance" maskUnits="userSpaceOnUse" x="65" y="41" width="11" height="8">
<mask id="mask3_425_446" style="mask-type:luminance" maskUnits="userSpaceOnUse" x="65" y="41" width="11" height="8">
<path d="M72.7974 44.7857L75.6145 48.6257C74.3505 46.9024 72.3497 45.7313 69.9209 45.4662C69.5754 45.4287 69.2205 45.4088 68.8583 45.4088C68.612 45.4088 68.3636 45.4172 68.1193 45.436L65.3022 41.596C65.5465 41.5782 65.7949 41.5688 66.0412 41.5688C66.4034 41.5688 66.7572 41.5876 67.1038 41.6263C69.5326 41.8914 71.5335 43.0614 72.7974 44.7857Z" fill="white"/>
</mask>
<g mask="url(#mask3_425_446)">
<path d="M75.6135 48.8606C75.5415 48.8606 75.4694 48.8272 75.4235 48.7645L75.4225 48.7635C74.1575 47.0392 72.1941 45.9516 69.8937 45.7001C69.3217 45.6375 68.7143 45.6281 68.135 45.6709C68.0546 45.6761 67.9763 45.6406 67.9283 45.5759L65.1112 41.7359C65.0611 41.667 65.0517 41.5762 65.0872 41.499C65.1227 41.4217 65.1979 41.3696 65.2835 41.3633C65.8909 41.3195 66.5266 41.3288 67.1267 41.3946C69.5597 41.6597 71.6399 42.8151 72.9843 44.648L75.8014 48.488C75.8776 48.5923 75.8556 48.7395 75.7513 48.8167C75.7106 48.846 75.6615 48.8606 75.6135 48.8606ZM68.8573 45.174C69.2236 45.174 69.59 45.1939 69.9449 45.2325C71.3998 45.3911 72.7286 45.8681 73.8495 46.6186L72.6064 44.9235C71.3414 43.1982 69.3771 42.1096 67.0766 41.8591C66.6445 41.8121 66.1936 41.7944 65.7479 41.8079L68.231 45.1928C68.4387 45.1803 68.6485 45.174 68.8573 45.174Z" fill="white"/>
</g>
</mask>
<g mask="url(#mask2_425_446)">
<path d="M72.7974 44.7857L75.6145 48.6257C74.3505 46.9024 72.3497 45.7313 69.9209 45.4662C69.5754 45.4287 69.2205 45.4088 68.8583 45.4088C68.612 45.4088 68.3636 45.4172 68.1193 45.436L65.3022 41.596C65.5465 41.5782 65.7949 41.5688 66.0412 41.5688C66.4034 41.5688 66.7572 41.5876 67.1038 41.6263C69.5326 41.8914 71.5335 43.0614 72.7974 44.7857Z" fill="#D0D5DD"/>
<path d="M75.6145 48.8606C75.5424 48.8606 75.4704 48.8272 75.4245 48.7645L75.4235 48.7635C74.1584 47.0392 72.1951 45.9516 69.8947 45.7001C69.3227 45.6375 68.7153 45.6281 68.136 45.6709C68.0556 45.6761 67.9773 45.6406 67.9293 45.5759L65.1122 41.7359C65.0621 41.667 65.0527 41.5762 65.0882 41.499C65.1237 41.4217 65.1988 41.3696 65.2844 41.3633C65.8919 41.3195 66.5275 41.3288 67.1277 41.3946C69.5607 41.6597 71.6409 42.8151 72.9852 44.648L75.8023 48.488C75.8785 48.5923 75.8566 48.7395 75.7522 48.8167C75.7115 48.846 75.6625 48.8606 75.6145 48.8606ZM68.8582 45.174C69.2246 45.174 69.591 45.1939 69.9458 45.2325C71.4008 45.3911 72.7295 45.8681 73.8505 46.6186L72.6074 44.9235C71.3424 43.1982 69.378 42.1096 67.0776 41.8591C66.6455 41.8121 66.1946 41.7944 65.7489 41.8079L68.232 45.1928C68.4397 45.1803 68.6495 45.174 68.8582 45.174Z" fill="#F9FAFB"/>
</g>
<path d="M67.5161 32.3193C67.8751 32.3193 68.231 32.3287 68.5828 32.3475C77.1885 32.8078 83.3696 38.8344 83.9333 46.7899L74.2566 48.9589C74.0562 45.0719 71.1828 42.0711 67.1027 41.6265C66.7573 41.5889 66.4024 41.5691 66.0402 41.5691C65.7939 41.5691 65.5455 41.5774 65.3012 41.5962L64.6572 32.5197C65.6008 32.3872 66.5558 32.3193 67.5161 32.3193Z" fill="#98A2B3"/>
<path d="M74.2566 49.1936C74.2055 49.1936 74.1554 49.1769 74.1146 49.1455C74.0593 49.1038 74.0259 49.0401 74.0218 48.9702C73.8245 45.148 71.0335 42.2902 67.0777 41.8591C66.5057 41.7965 65.8982 41.7871 65.3189 41.8299C65.2563 41.8341 65.1947 41.8142 65.1478 41.7735C65.1008 41.7328 65.0716 41.6744 65.0674 41.6128L64.4234 32.5363C64.4151 32.4131 64.5027 32.3046 64.6248 32.2868C65.9462 32.1021 67.2937 32.0436 68.5953 32.1136C77.1843 32.5739 83.5888 38.6026 84.167 46.7741C84.1754 46.89 84.0971 46.9944 83.9844 47.0194L74.3077 49.1883C74.291 49.1915 74.2733 49.1936 74.2566 49.1936ZM66.0412 41.3341C66.4076 41.3341 66.7739 41.3539 67.1288 41.3925C69.1787 41.6159 70.9677 42.4624 72.3027 43.8381C73.5698 45.1438 74.3161 46.8096 74.4716 48.6696L83.6827 46.605C83.0304 38.779 76.8441 33.0248 68.5692 32.5812C67.3689 32.5165 66.1279 32.5645 64.9067 32.7221L65.5183 41.3466C65.6926 41.3383 65.8669 41.3341 66.0412 41.3341Z" fill="#F9FAFB"/>
<path d="M80.4002 10.2301C79.6072 9.32606 78.4502 8.87402 77.2206 8.87402C75.9918 8.87402 74.6903 9.32606 73.6085 10.2301C72.5259 11.1351 71.8679 12.3211 71.6782 13.5064C71.4885 14.6924 71.7688 15.8776 72.5617 16.7817C73.3556 17.6866 74.5118 18.1378 75.7405 18.1378C76.9702 18.1378 78.2725 17.6849 79.3551 16.78C80.437 15.8759 81.0949 14.6907 81.2838 13.5055C81.4735 12.3203 81.1941 11.1351 80.4002 10.2301Z" fill="#F9FAFB"/>
<path d="M75.7126 12.6372C75.9006 12.6372 76.0783 12.7064 76.2014 12.8449C76.444 13.1217 76.3723 13.5703 76.0416 13.8463C75.8749 13.9848 75.675 14.054 75.487 14.054C75.299 14.054 75.1221 13.9848 75.0008 13.8463C74.7581 13.5695 74.8299 13.1209 75.1606 12.8449C75.3255 12.7064 75.5237 12.6372 75.7126 12.6372Z" fill="#F9FAFB"/>
<path d="M74.4673 11.0117C74.8338 11.0117 75.1782 11.1467 75.4149 11.4159C75.8875 11.9542 75.7482 12.8276 75.1039 13.3659C74.7809 13.6359 74.3929 13.7709 74.0263 13.7709C73.6606 13.7709 73.3162 13.6359 73.0795 13.3668C72.607 12.8284 72.7463 11.9542 73.3906 11.4151C73.7136 11.1459 74.1007 11.0117 74.4673 11.0117Z" fill="#F9FAFB"/>
<path d="M82.2674 8.66875C84.3789 11.0742 84.0286 14.8264 81.6052 17.4993L81.4505 17.3233C81.2608 17.1079 80.9848 17.0003 80.6917 17.0003C80.3986 17.0003 80.0884 17.1079 79.8303 17.3233C79.3151 17.7557 79.2031 18.4538 79.5808 18.8862L79.7355 19.0622C78.3657 19.9185 76.8438 20.3474 75.3903 20.3474C73.5753 20.3474 71.8662 19.6792 70.6939 18.3427C68.3491 15.6698 69.0395 11.3391 72.2371 8.66705C73.8342 7.33144 75.7551 6.66406 77.5701 6.66406C79.386 6.66406 81.095 7.33229 82.2674 8.66875ZM79.3552 16.7798C80.437 15.8757 81.095 14.6905 81.2839 13.5053C81.4727 12.3201 81.1933 11.1349 80.3994 10.23C79.6065 9.32588 78.4494 8.87384 77.2198 8.87384C75.9901 8.87384 74.6896 9.32588 73.6078 10.23C72.5251 11.1349 71.8671 12.321 71.6774 13.5062C71.4877 14.6922 71.768 15.8774 72.561 16.7815C73.3548 17.6865 74.511 18.1376 75.7398 18.1376C76.9703 18.1385 78.2726 17.6856 79.3552 16.7798Z" fill="#D0D5DD"/>
<path d="M80.6924 17.001C80.9855 17.001 81.2615 17.1086 81.4512 17.324L81.6059 17.5L84.7727 21.1112C85.1504 21.5419 85.0393 22.2417 84.524 22.6724C84.2668 22.8877 83.9558 22.9954 83.6635 22.9954C83.3704 22.9954 83.0944 22.8877 82.9056 22.6724L79.737 19.0629L79.5824 18.8869C79.2047 18.4545 79.3158 17.7564 79.8319 17.324C80.0891 17.1086 80.3993 17.001 80.6924 17.001Z" fill="#D0D5DD"/>
<path d="M81.0619 60.0251C81.8228 60.0251 82.4396 59.4082 82.4396 58.6473C82.4396 57.8864 81.8228 57.2695 81.0619 57.2695C80.3009 57.2695 79.6841 57.8864 79.6841 58.6473C79.6841 59.4082 80.3009 60.0251 81.0619 60.0251Z" fill="#F9FAFB"/>
<path d="M23.1229 54.9416C23.8838 54.9416 24.5007 54.3247 24.5007 53.5638C24.5007 52.8029 23.8838 52.186 23.1229 52.186C22.362 52.186 21.7451 52.8029 21.7451 53.5638C21.7451 54.3247 22.362 54.9416 23.1229 54.9416Z" fill="#F9FAFB"/>
<path d="M23.8128 56.0553C24.0808 56.0553 24.298 55.8381 24.298 55.5701C24.298 55.3022 24.0808 55.085 23.8128 55.085C23.5449 55.085 23.3276 55.3022 23.3276 55.5701C23.3276 55.8381 23.5449 56.0553 23.8128 56.0553Z" fill="#F9FAFB"/>
<path d="M30.6444 37.613C31.4053 37.613 32.0222 36.9961 32.0222 36.2352C32.0222 35.4743 31.4053 34.8574 30.6444 34.8574C29.8835 34.8574 29.2666 35.4743 29.2666 36.2352C29.2666 36.9961 29.8835 37.613 30.6444 37.613Z" fill="#F9FAFB"/>
<path d="M32.2542 35.339C32.5222 35.339 32.7394 35.1218 32.7394 34.8538C32.7394 34.5859 32.5222 34.3687 32.2542 34.3687C31.9863 34.3687 31.769 34.5859 31.769 34.8538C31.769 35.1218 31.9863 35.339 32.2542 35.339Z" fill="#F9FAFB"/>
<path d="M84.5999 30.3574C85.909 30.3574 86.9702 29.2962 86.9702 27.9871C86.9702 26.678 85.909 25.6167 84.5999 25.6167C83.2907 25.6167 82.2295 26.678 82.2295 27.9871C82.2295 29.2962 83.2907 30.3574 84.5999 30.3574Z" fill="#E4E7EC"/>
<path d="M82.2298 26.8165C82.8531 26.8165 83.3585 26.3112 83.3585 25.6878C83.3585 25.0644 82.8531 24.5591 82.2298 24.5591C81.6064 24.5591 81.1011 25.0644 81.1011 25.6878C81.1011 26.3112 81.6064 26.8165 82.2298 26.8165Z" fill="#F9FAFB"/>
</svg>
