<svg width="101" height="100" viewBox="0 0 101 100" fill="none" xmlns="http://www.w3.org/2000/svg">
<path d="M81.0618 44.3204C82.1239 44.3204 82.985 43.4594 82.985 42.3973C82.985 41.3351 82.1239 40.4741 81.0618 40.4741C79.9997 40.4741 79.1387 41.3351 79.1387 42.3973C79.1387 43.4594 79.9997 44.3204 81.0618 44.3204Z" fill="#F9FAFB"/>
<path d="M50.5498 91.1948C67.9468 91.1948 82.0498 85.6623 82.0498 78.8376C82.0498 72.013 67.9468 66.4805 50.5498 66.4805C33.1528 66.4805 19.0498 72.013 19.0498 78.8376C19.0498 85.6623 33.1528 91.1948 50.5498 91.1948Z" fill="#F9FAFB"/>
<path d="M40.2551 27.6602L38.6562 37.6866H33.4595L35.0585 27.6602H40.2551Z" fill="#F7F9FC"/>
<path d="M66.0967 38.022C66.4426 38.022 66.6799 38.2921 66.626 38.626C66.5733 38.9598 66.2505 39.2311 65.9034 39.2311H45.5922C45.2463 39.2311 45.008 38.9598 45.0618 38.626C45.1145 38.2921 45.4385 38.022 45.7844 38.022H66.0967Z" fill="#667185"/>
<path d="M67.785 30.8607H79.6181L77.8435 41.9887L77.1406 46.3968H46C44.8656 46.3968 43.9903 45.6632 43.8651 44.6057L43.7685 43.7787C43.6433 42.7223 42.768 41.9876 41.6336 41.9876H32.7744L33.2675 38.8929H39.7172L41.7017 26.4504H35.252L36.4007 19.2451H69.4312L69.6048 19.4428L67.785 30.8607ZM66.5507 35.1799C66.8966 35.1799 67.2195 34.9097 67.2722 34.5759C67.3249 34.242 67.0888 33.9708 66.7428 33.9708H46.4305C46.0846 33.9708 45.7606 34.242 45.7068 34.5759C45.6541 34.9097 45.8913 35.1799 46.2372 35.1799H66.5507ZM65.9049 39.23C66.2508 39.23 66.5737 38.9588 66.6275 38.6249C66.6802 38.2911 66.4441 38.0209 66.0982 38.0209H45.7848C45.4389 38.0209 45.1149 38.2911 45.0622 38.6249C45.0095 38.9588 45.2467 39.23 45.5926 39.23H65.9049ZM65.2592 43.2779C65.6051 43.2779 65.928 43.0078 65.9807 42.6739C66.0334 42.3401 65.7973 42.0688 65.4514 42.0688H45.139C44.7931 42.0688 44.4691 42.3401 44.4153 42.6739C44.3626 43.0078 44.5998 43.2779 44.9458 43.2779H65.2592Z" fill="#F7F9FC"/>
<path d="M65.4512 42.0698C65.7971 42.0698 66.0332 42.3411 65.9805 42.6749C65.9278 43.0088 65.6049 43.2789 65.259 43.2789H44.9467C44.6008 43.2789 44.3625 43.0088 44.4163 42.6749C44.469 42.3411 44.793 42.0698 45.14 42.0698H65.4512Z" fill="#667185"/>
<path d="M65.4512 42.0698C65.7971 42.0698 66.0332 42.3411 65.9805 42.6749C65.9278 43.0088 65.6049 43.2789 65.259 43.2789H44.9467C44.6008 43.2789 44.3625 43.0088 44.4163 42.6749C44.469 42.3411 44.793 42.0698 45.14 42.0698H65.4512Z" fill="#667185"/>
<path d="M87.7551 46.7593C87.754 46.7252 87.7507 46.6912 87.7474 46.6571C87.7452 46.6374 87.7441 46.6165 87.7419 46.5967C87.7376 46.5594 87.731 46.5221 87.7244 46.4847C87.7222 46.4716 87.7211 46.4584 87.7178 46.4452C87.7178 46.443 87.7167 46.4408 87.7156 46.4375C87.7079 46.398 87.698 46.3584 87.6881 46.32C87.6859 46.3101 87.6837 46.2991 87.6804 46.2893C87.6673 46.2409 87.6519 46.1926 87.6343 46.1454C87.6343 46.1443 87.6332 46.1432 87.6332 46.1421C87.6321 46.1399 87.631 46.1377 87.6299 46.1344C87.6036 46.063 87.5739 45.9949 87.5399 45.928C87.5366 45.9225 87.5355 45.9159 87.5322 45.9104C87.5311 45.9071 87.5289 45.9049 87.5267 45.9016C87.4959 45.8434 87.463 45.7863 87.4268 45.7314C87.4235 45.7259 87.4202 45.7204 87.4169 45.7149C87.4004 45.6907 87.3839 45.6666 87.3675 45.6435L85.3017 42.8267C85.3226 42.8552 85.3424 42.8849 85.361 42.9145C85.3973 42.9694 85.4302 43.0265 85.461 43.0847C85.4654 43.0935 85.4698 43.1023 85.4742 43.1111C85.5071 43.1781 85.5379 43.2473 85.5642 43.3176C85.5653 43.3208 85.5675 43.3241 85.5686 43.3285C85.5851 43.3758 85.6005 43.4241 85.6147 43.4724C85.618 43.4823 85.6191 43.4933 85.6224 43.5031C85.6323 43.5416 85.6422 43.5811 85.6499 43.6207C85.6532 43.636 85.6554 43.6514 85.6576 43.6668C85.6641 43.7041 85.6696 43.7404 85.6751 43.7788C85.6773 43.7986 85.6784 43.8194 85.6806 43.8392C85.6839 43.8732 85.6861 43.9073 85.6883 43.9413C85.6894 43.9633 85.6894 43.9853 85.6894 44.0072C85.6894 44.0402 85.6894 44.0742 85.6883 44.1072C85.6872 44.1291 85.6872 44.1522 85.685 44.1752C85.6828 44.2093 85.6795 44.2433 85.6762 44.2785C85.674 44.3004 85.6718 44.3224 85.6685 44.3455C85.6631 44.3828 85.6576 44.419 85.6499 44.4564C85.6466 44.4761 85.6433 44.4959 85.6389 44.5157C85.629 44.564 85.6169 44.6123 85.6037 44.6606C85.6015 44.6694 85.5994 44.6782 85.5972 44.6881C85.5807 44.7452 85.562 44.8034 85.5411 44.8605C85.5346 44.8781 85.5269 44.8957 85.5203 44.9132C85.5049 44.9539 85.4884 44.9945 85.4709 45.034C85.45 45.0801 85.4291 45.1263 85.4061 45.1735L70.5859 74.4117L70.5112 74.3107C70.4848 74.3711 70.4563 74.4293 70.4255 74.4875C70.4233 74.4919 70.4211 74.4952 70.42 74.4996C70.3904 74.5556 70.3585 74.6094 70.3256 74.6632C70.2806 74.7357 70.2333 74.8049 70.1828 74.873C70.1685 74.8927 70.1532 74.9103 70.1389 74.929C70.1048 74.9718 70.0708 75.0146 70.0346 75.0564C70.0159 75.0783 69.9961 75.0992 69.9764 75.1201C69.9434 75.1552 69.9094 75.1904 69.8742 75.2244C69.8534 75.2442 69.8336 75.265 69.8127 75.2837C69.7754 75.3177 69.737 75.3507 69.6985 75.3836C69.6787 75.4001 69.6601 75.4166 69.6403 75.4331C69.581 75.4814 69.5195 75.5275 69.4558 75.5703C69.3899 75.6154 69.3218 75.6571 69.2526 75.6977C69.234 75.7087 69.2142 75.7186 69.1944 75.7296C69.1351 75.7625 69.0747 75.7933 69.0132 75.8218C68.9891 75.8339 68.9638 75.8449 68.9397 75.8559C68.9166 75.8657 68.8935 75.8756 68.8705 75.8844C68.8331 75.8998 68.7958 75.9141 68.7585 75.9272C68.7343 75.936 68.7112 75.9437 68.6871 75.9525C68.6497 75.9646 68.6124 75.9767 68.5751 75.9865C68.5487 75.9942 68.5234 76.0019 68.4971 76.0085C68.4586 76.0184 68.4191 76.0272 68.3796 76.036C68.3543 76.0415 68.3291 76.0469 68.3049 76.0524C68.2621 76.0601 68.2181 76.0667 68.1742 76.0722C68.1534 76.0755 68.1314 76.0788 68.1105 76.081C68.0457 76.0887 67.9798 76.0942 67.915 76.0964L69.9808 78.9132C69.984 78.9132 69.9873 78.9121 69.9906 78.9121L69.9917 78.9132C69.9983 78.9132 70.0049 78.9132 70.0126 78.9132C70.0434 78.9132 70.073 78.9121 70.1038 78.911C70.1169 78.9099 70.1301 78.9077 70.1433 78.9077C70.2092 78.9044 70.2751 78.8979 70.3399 78.8891C70.3596 78.8869 70.3783 78.8847 70.3981 78.8825C70.4815 78.8704 70.5639 78.8539 70.6463 78.8331C70.666 78.8287 70.6847 78.8221 70.7034 78.8177C70.7462 78.8056 70.7901 78.7957 70.833 78.7814C70.856 78.7738 70.8791 78.765 70.9021 78.7573C70.9197 78.7518 70.9362 78.7452 70.9538 78.7397C71.0251 78.7134 71.0954 78.6859 71.1646 78.6552C71.169 78.653 71.1734 78.6497 71.1789 78.6486C71.1833 78.6464 71.1888 78.6453 71.1943 78.642C71.1943 78.642 71.1943 78.6409 71.1932 78.6409C71.1932 78.6409 71.1932 78.642 71.1943 78.642C71.2711 78.6068 71.3458 78.5673 71.4194 78.5256C71.4216 78.5245 71.4227 78.5234 71.4249 78.5223C71.4469 78.5102 71.4666 78.4959 71.4875 78.4827C71.5369 78.4531 71.5863 78.4234 71.6346 78.3905C71.639 78.3883 71.6423 78.3861 71.6467 78.3828C71.6764 78.363 71.7038 78.34 71.7324 78.318C71.7664 78.2928 71.8005 78.2697 71.8323 78.2433C71.8367 78.24 71.84 78.2378 71.8444 78.2345C71.8752 78.2104 71.9026 78.1829 71.9323 78.1577C71.9575 78.1357 71.9839 78.1148 72.008 78.0918C72.0135 78.0863 72.019 78.0819 72.0245 78.0764C72.0256 78.0753 72.0256 78.0753 72.0267 78.0742C72.0278 78.0731 72.0278 78.0731 72.0289 78.072C72.0355 78.0665 72.0421 78.0599 72.0476 78.0544C72.0618 78.0413 72.0728 78.0259 72.0871 78.0127C72.1244 77.9754 72.1629 77.938 72.198 77.8985C72.2079 77.8875 72.2167 77.8754 72.2266 77.8645C72.2343 77.8557 72.2441 77.8469 72.2518 77.8381C72.2595 77.8293 72.2672 77.8194 72.2749 77.8106C72.3002 77.7799 72.3243 77.7491 72.3485 77.7173C72.3529 77.7118 72.3584 77.7063 72.3627 77.6997C72.3638 77.6975 72.3649 77.6953 72.3671 77.6931C72.4177 77.6261 72.4649 77.5559 72.5099 77.4845C72.5143 77.4768 72.5198 77.4702 72.5242 77.4636C72.5286 77.457 72.5319 77.4493 72.5363 77.4427C72.5714 77.3845 72.6044 77.3263 72.6351 77.2648L87.4773 47.9871C87.497 47.9475 87.5168 47.9069 87.5344 47.8674C87.5377 47.8608 87.5399 47.8542 87.5421 47.8487C87.5596 47.8081 87.5761 47.7674 87.5915 47.7279C87.5981 47.7103 87.6058 47.6927 87.6124 47.6752C87.6332 47.6181 87.6519 47.5599 87.6684 47.5028C87.6706 47.494 87.6728 47.4852 87.6749 47.4753C87.6881 47.427 87.7002 47.3787 87.7101 47.3303C87.7145 47.3106 87.7178 47.2908 87.7211 47.271C87.7277 47.2337 87.7343 47.1964 87.7397 47.1601C87.743 47.1382 87.7452 47.1162 87.7474 47.0931C87.7507 47.0591 87.754 47.0239 87.7562 46.9899C87.7573 46.9668 87.7584 46.9449 87.7595 46.9218C87.7606 46.8878 87.7606 46.8548 87.7606 46.8219C87.7562 46.8032 87.7562 46.7812 87.7551 46.7593Z" fill="#667185"/>
<path d="M69.8577 79.1689L67.4395 75.8711L67.9029 75.8524C67.9622 75.8502 68.0215 75.8447 68.0808 75.8381C68.0907 75.837 68.1006 75.8359 68.1094 75.8337L68.139 75.8293C68.1785 75.8238 68.2181 75.8183 68.2576 75.8107C68.2719 75.8085 68.2873 75.8052 68.3015 75.8019L68.3268 75.7964C68.3619 75.7887 68.3982 75.781 68.4333 75.7722C68.4531 75.7667 68.4718 75.7612 68.4915 75.7557L68.5047 75.7514C68.5387 75.7415 68.5739 75.7316 68.6079 75.7195C68.6299 75.7118 68.6519 75.7041 68.6738 75.6964C68.7079 75.6844 68.743 75.6712 68.7771 75.6569C68.8023 75.647 68.821 75.6393 68.8408 75.6305C68.8572 75.624 68.8715 75.6163 68.8869 75.6086L68.9088 75.5987C68.9659 75.5723 69.0209 75.5438 69.0758 75.5141L69.0988 75.5021C69.1087 75.4966 69.1197 75.4911 69.1296 75.4856C69.201 75.4439 69.2614 75.4065 69.3163 75.3681C69.3701 75.3307 69.425 75.2901 69.4854 75.2418C69.4953 75.233 69.5063 75.2253 69.5161 75.2165L69.5392 75.1968C69.5744 75.1671 69.6095 75.1364 69.6435 75.1045C69.66 75.0891 69.6754 75.0738 69.6919 75.0584L69.7006 75.0496C69.7325 75.0189 69.7632 74.9859 69.794 74.9541C69.8116 74.9354 69.8291 74.9156 69.8467 74.8959C69.8808 74.8574 69.9115 74.819 69.9433 74.7794L69.9609 74.7575C69.9686 74.7476 69.9763 74.7377 69.984 74.7278C70.0323 74.6641 70.0762 74.5993 70.1147 74.5357C70.1454 74.4862 70.174 74.4368 70.2014 74.3863L70.2058 74.3764C70.2344 74.3226 70.2607 74.2688 70.2838 74.2139L70.4551 73.8207L70.5452 73.9437L85.1875 45.0613C85.2094 45.0185 85.2281 44.9767 85.2468 44.9339C85.2632 44.8966 85.2775 44.8603 85.2918 44.823L85.3105 44.7758C85.3291 44.7231 85.3467 44.6714 85.361 44.6187L85.3665 44.5946C85.3786 44.5506 85.3895 44.5067 85.3983 44.4639L85.4082 44.4112C85.4148 44.3771 85.4203 44.3442 85.4247 44.3112C85.4269 44.297 85.428 44.2816 85.4302 44.2662L85.4313 44.2519C85.4346 44.2212 85.4379 44.1904 85.439 44.1597C85.4401 44.1399 85.4412 44.1201 85.4412 44.1004C85.4422 44.0696 85.4422 44.04 85.4422 44.0103C85.4422 43.9906 85.4422 43.9719 85.4412 43.9521C85.4401 43.9225 85.4379 43.8917 85.4346 43.8621L85.4324 43.8423C85.4313 43.8313 85.4302 43.8203 85.4291 43.8083C85.4247 43.7753 85.4192 43.7424 85.4137 43.7094L85.4071 43.6677C85.4005 43.6326 85.3917 43.5985 85.3829 43.5634L85.3775 43.5414C85.3643 43.4931 85.3511 43.4513 85.3357 43.4096L85.3335 43.4041C85.3105 43.3415 85.2852 43.2822 85.2534 43.2196L85.2457 43.2032C85.2171 43.1482 85.1875 43.0977 85.1545 43.0472C85.137 43.0209 85.1205 42.9956 85.1029 42.9703L85.5016 42.6782C85.5026 42.6793 85.5037 42.6804 85.5037 42.6815L87.5673 45.4951C87.587 45.5214 87.6057 45.5478 87.6233 45.5753L87.6387 45.6016C87.6749 45.6565 87.7111 45.718 87.743 45.7784L87.7507 45.7916C87.7573 45.8048 87.7616 45.8158 87.766 45.8256C87.8001 45.8926 87.8319 45.9651 87.8583 46.0387L87.8693 46.0694C87.8846 46.1134 87.9022 46.1672 87.9176 46.221C87.9198 46.2309 87.922 46.2397 87.9242 46.2495C87.9374 46.299 87.9472 46.3429 87.956 46.3879L87.9593 46.4022C87.9604 46.4077 87.9626 46.4198 87.9637 46.4318C87.9725 46.4813 87.9791 46.523 87.9835 46.5647C87.9857 46.5823 87.9868 46.5999 87.989 46.6174L87.9901 46.6328C87.9934 46.6701 87.9967 46.7075 87.9978 46.7459C87.9989 46.7701 87.9989 46.7942 88 46.8184C88.0011 46.8546 88 46.892 87.9989 46.9304C87.9978 46.9557 87.9967 46.9798 87.9956 47.0051C87.9934 47.0435 87.9901 47.0809 87.9857 47.1193L87.9846 47.1325C87.9824 47.1523 87.9802 47.1731 87.978 47.1929C87.9725 47.2335 87.9648 47.2742 87.9582 47.3148L87.9549 47.3335C87.9527 47.3488 87.9494 47.3653 87.9461 47.3807C87.9352 47.4334 87.922 47.4872 87.9077 47.5399C87.9044 47.5531 87.9022 47.5619 87.9 47.5696C87.8825 47.6322 87.8616 47.6959 87.8385 47.7585C87.8341 47.7716 87.8286 47.7848 87.8231 47.798L87.8166 47.8145C87.799 47.8584 87.7814 47.9023 87.7627 47.9462C87.7606 47.9528 87.7573 47.9605 87.754 47.9682C87.7342 48.011 87.7144 48.0539 87.6925 48.0978L72.8503 77.3756C72.8195 77.4349 72.7844 77.4986 72.7427 77.5689C72.7394 77.5754 72.735 77.5831 72.7306 77.5908C72.7251 77.5996 72.7196 77.6084 72.7141 77.6161C72.6647 77.694 72.6164 77.7654 72.567 77.8324L72.5713 77.8379L72.4352 77.9961L72.4341 77.9972L72.2452 78.2179L72.2364 78.208C72.2298 78.2157 72.2221 78.2223 72.2155 78.23L72.1727 78.2706C72.154 78.2882 72.1354 78.3035 72.1167 78.32L72.0629 78.3661C72.0409 78.3859 72.0189 78.4057 71.9959 78.4243L71.9783 78.4375C71.9563 78.4551 71.9289 78.476 71.9014 78.4957L71.8465 78.5364C71.8257 78.5528 71.8037 78.5693 71.7817 78.5847L71.7631 78.5968C71.718 78.6275 71.6653 78.6594 71.6126 78.6912L71.5906 78.7055C71.5797 78.7132 71.5676 78.7198 71.5566 78.7274L71.5643 78.7373L71.3084 78.857C71.304 78.8592 71.2996 78.8614 71.2952 78.8625L71.1151 78.946L71.1107 78.9405C71.0866 78.9493 71.0613 78.9592 71.035 78.9691L70.9559 78.9965C70.9383 79.0031 70.9218 79.0086 70.9043 79.0141C70.8669 79.0262 70.8285 79.036 70.7912 79.0459L70.7461 79.0635C70.7319 79.0679 70.7176 79.0723 70.7022 79.0756C70.6132 79.0975 70.5221 79.1151 70.432 79.1294C70.4167 79.1316 70.4024 79.1338 70.387 79.1349L70.3684 79.1371C70.2959 79.147 70.2234 79.1535 70.1542 79.1568C70.1377 79.159 70.1245 79.1601 70.1114 79.1612C70.0773 79.1623 70.0444 79.1634 70.0114 79.1634H69.9884H69.984L69.8577 79.1689ZM68.363 76.2939L70.1026 78.6649C70.1114 78.6638 70.1191 78.6627 70.1278 78.6627C70.1871 78.6594 70.2475 78.6539 70.3069 78.6462L70.3596 78.6396C70.4353 78.6286 70.5111 78.6132 70.5858 78.5946L70.6682 78.5726C70.6978 78.5649 70.7286 78.5572 70.7582 78.5473C70.7692 78.544 70.7802 78.5397 70.7912 78.5364L70.8691 78.5089C70.9449 78.4815 71.0064 78.4562 71.0624 78.4309C71.0613 78.4309 71.0679 78.4276 71.0745 78.4243L71.0943 78.4167C71.1613 78.3859 71.2293 78.3508 71.2963 78.3123L71.3073 78.3057C71.3117 78.3024 71.3183 78.2992 71.3249 78.2948C71.3359 78.2871 71.3479 78.2805 71.3589 78.2728C71.4062 78.2442 71.4512 78.2179 71.494 78.1882L71.5116 78.1773C71.5193 78.1718 71.5335 78.1608 71.5478 78.1498L71.6126 78.1015C71.6335 78.0861 71.6554 78.0707 71.6763 78.0543L71.6928 78.0422C71.7038 78.0334 71.7191 78.0191 71.7345 78.0048L71.8015 77.9466C71.8136 77.9368 71.8268 77.9258 71.8377 77.9148L71.8839 77.8698C71.8927 77.8599 71.9014 77.85 71.9102 77.8412L71.9333 77.8181C71.9607 77.7907 71.9871 77.7643 72.0135 77.7358C72.0255 77.7215 72.0321 77.7127 72.0387 77.705C72.0464 77.6962 72.053 77.6886 72.0607 77.682L72.2485 77.839L72.0629 77.6798L72.0837 77.6556C72.1057 77.6293 72.1255 77.6029 72.1463 77.5765C72.154 77.5656 72.1595 77.5601 72.1639 77.5546L72.1683 77.548C72.2111 77.4909 72.254 77.4283 72.2979 77.3569C72.3023 77.3503 72.3078 77.3415 72.3133 77.3338C72.3133 77.3327 72.3177 77.3262 72.3209 77.3185C72.3528 77.2658 72.3835 77.2119 72.4121 77.1559L87.2543 47.8793C87.2729 47.843 87.2905 47.8057 87.307 47.7694L87.3147 47.7519C87.3312 47.7156 87.3454 47.6783 87.3597 47.642L87.3784 47.5948C87.397 47.5421 87.4146 47.4905 87.4289 47.4378L87.4355 47.4136C87.4476 47.3708 87.4585 47.3269 87.4673 47.2829L87.4772 47.2291C87.4838 47.1962 87.4893 47.1621 87.4937 47.1292C87.4959 47.1138 87.497 47.0984 87.4992 47.0831L87.5003 47.0699C87.5036 47.0391 87.5069 47.0084 87.508 46.9776C87.5091 46.9579 87.5102 46.9381 87.5102 46.9172C87.5113 46.8876 87.5113 46.8579 87.5113 46.8283C87.5113 46.8085 87.5113 46.7888 87.5102 46.7701C87.5091 46.7404 87.5069 46.7097 87.5036 46.68L87.5025 46.6614C87.5014 46.6493 87.5003 46.6372 87.4992 46.6251C87.4948 46.5922 87.4904 46.5603 87.4838 46.5274L87.4783 46.4911C87.4772 46.4868 87.4761 46.4835 87.4761 46.4791C87.4706 46.4505 87.4618 46.4165 87.4531 46.3813L87.4476 46.3594C87.4355 46.3132 87.4223 46.2726 87.408 46.232C87.4069 46.2298 87.4047 46.2254 87.4036 46.2199C87.3817 46.1606 87.3564 46.1013 87.3246 46.0376L87.3125 46.0134C87.2872 45.9651 87.2587 45.9168 87.2257 45.8652L87.2114 45.8421C87.2027 45.83 87.1884 45.8092 87.1741 45.7894L85.9408 44.107C85.9408 44.1092 85.9408 44.1125 85.9408 44.1147C85.9397 44.1399 85.9386 44.1652 85.9375 44.1904C85.9353 44.2278 85.932 44.2662 85.9277 44.3046L85.9266 44.3189C85.9244 44.3387 85.9222 44.3585 85.92 44.3782C85.9145 44.42 85.9068 44.4606 85.8991 44.5023L85.8958 44.521C85.8936 44.5364 85.8903 44.5517 85.887 44.5671C85.876 44.6209 85.8629 44.6736 85.8475 44.7274L85.8409 44.7549C85.8222 44.8197 85.8025 44.8823 85.7794 44.9449C85.775 44.9581 85.7695 44.9712 85.764 44.9844L85.7574 45.0009C85.7399 45.0448 85.7234 45.0888 85.7036 45.1327C85.6817 45.1832 85.6586 45.2337 85.6322 45.2831L70.6275 74.8794L70.5496 74.7729C70.5463 74.7784 70.543 74.7849 70.5386 74.7904C70.4924 74.8662 70.4397 74.942 70.3837 75.0178C70.3727 75.032 70.3618 75.0463 70.3508 75.0606L70.3365 75.0793C70.2992 75.1265 70.2618 75.1726 70.2223 75.2176C70.2025 75.2407 70.1817 75.2638 70.1597 75.2868C70.1235 75.3252 70.0872 75.3626 70.0499 75.3999L70.0411 75.4087C70.0224 75.4274 70.0027 75.4461 69.984 75.4647C69.9433 75.5021 69.9027 75.5372 69.861 75.5723L69.8423 75.5888C69.828 75.6009 69.8138 75.6141 69.7984 75.6251C69.7281 75.6811 69.6633 75.7294 69.5996 75.7733C69.5348 75.8183 69.4634 75.8634 69.3811 75.9106C69.3668 75.9194 69.3514 75.9271 69.3371 75.9347L69.3185 75.9446C69.2548 75.9798 69.1889 76.0138 69.1219 76.0446L69.1021 76.0534C69.0824 76.0632 69.0615 76.072 69.0417 76.0819C69.0198 76.0918 68.9956 76.1017 68.9725 76.1105C68.9264 76.1291 68.8858 76.1445 68.8451 76.1599C68.8199 76.1687 68.7935 76.1785 68.7683 76.1873C68.7276 76.2005 68.687 76.2126 68.6464 76.2247L68.6332 76.228C68.609 76.2346 68.5849 76.2422 68.5618 76.2477C68.5201 76.2587 68.4773 76.2675 68.4344 76.2774L68.4125 76.2818C68.3938 76.2884 68.3784 76.2917 68.363 76.2939Z" fill="#F9FAFB"/>
<path d="M83.5393 41.9897C85.2514 41.9897 86.2013 43.6085 85.4073 45.1734L70.5651 74.4512C70.0654 75.4363 69.0013 76.1007 67.9229 76.0996C69.009 76.0545 70.0632 75.333 70.5102 74.3106L81.3868 49.4399C82.0578 47.9057 81.0991 46.3979 79.4507 46.3979H77.1378L77.8407 41.9897H83.5393Z" fill="#D0D5DD"/>
<path d="M67.9258 76.3466C67.9247 76.3466 67.9236 76.3466 67.9225 76.3466L67.9126 75.8524C68.9043 75.8117 69.8795 75.1375 70.2836 74.2117L81.1602 49.3409C81.4501 48.6776 81.4172 47.9913 81.0679 47.4586C80.7297 46.9425 80.1411 46.646 79.4503 46.646H76.8487L77.6306 41.7437H83.5389C84.4262 41.7437 85.1785 42.1401 85.6035 42.8331C86.0384 43.5414 86.0472 44.4595 85.6277 45.2864L70.7855 74.562C70.2441 75.6294 69.0954 76.3466 67.9258 76.3466ZM77.4296 46.1507H79.4525C80.3124 46.1507 81.0526 46.5285 81.4831 47.1874C81.9245 47.8628 81.9729 48.7194 81.6137 49.5386L73.4267 68.2595L85.1873 45.0613C85.5343 44.3782 85.5321 43.6589 85.1829 43.09C84.8501 42.5475 84.2516 42.2367 83.54 42.2367H78.0534L77.4296 46.1507Z" fill="#F9FAFB"/>
<path d="M83.6658 51.1506C83.6636 51.1133 83.6614 51.076 83.657 51.0386C83.6548 51.02 83.6526 51.0013 83.6504 50.9826C83.646 50.9497 83.6416 50.9167 83.635 50.8838C83.6328 50.8739 83.6328 50.864 83.6306 50.8541C83.6284 50.8443 83.6262 50.8355 83.624 50.8256C83.6174 50.7959 83.6109 50.7652 83.6032 50.7355C83.5988 50.7169 83.5933 50.6982 83.5889 50.6795C83.5801 50.6488 83.5702 50.618 83.5592 50.5873C83.5548 50.5752 83.5516 50.562 83.5472 50.5499C83.5461 50.5477 83.545 50.5455 83.5439 50.5422C83.5175 50.4709 83.4879 50.4028 83.4538 50.3358C83.4505 50.3303 83.4494 50.3237 83.4461 50.3182C83.4439 50.3138 83.4406 50.3105 83.4384 50.3061C83.4077 50.2479 83.3747 50.1919 83.3396 50.1381C83.3363 50.1337 83.3341 50.1293 83.3319 50.1249C83.3154 50.1008 83.299 50.0777 83.2825 50.0546L81.2168 47.2378C81.2365 47.2652 81.2552 47.2938 81.2739 47.3223C81.309 47.3773 81.3431 47.4333 81.3727 47.4904C81.3782 47.5003 81.3826 47.5101 81.3881 47.52C81.4221 47.587 81.4518 47.6562 81.4781 47.7265C81.4836 47.7419 81.488 47.7561 81.4935 47.7715C81.5034 47.8023 81.5144 47.833 81.5232 47.8638C81.5287 47.8824 81.5331 47.9011 81.5374 47.9198C81.5451 47.9494 81.5517 47.9791 81.5583 48.0098C81.5627 48.0296 81.566 48.0483 81.5693 48.068C81.5748 48.101 81.5803 48.1339 81.5847 48.1669C81.5869 48.1855 81.5902 48.2042 81.5913 48.2229C81.5946 48.2602 81.5979 48.2975 81.599 48.3349C81.6001 48.3503 81.6011 48.3656 81.6011 48.381C81.6022 48.4337 81.6022 48.4875 81.6 48.5413C81.6 48.5501 81.599 48.5589 81.5979 48.5688C81.5957 48.6138 81.5924 48.6589 81.5869 48.705C81.5847 48.7236 81.5814 48.7423 81.5792 48.761C81.5737 48.7972 81.5682 48.8346 81.5616 48.8708C81.5583 48.8917 81.5539 48.9125 81.5495 48.9334C81.5418 48.9685 81.5331 49.0048 81.5243 49.041C81.5188 49.0619 81.5133 49.0828 81.5078 49.1036C81.4968 49.1421 81.4847 49.1805 81.4716 49.2189C81.465 49.2365 81.4595 49.2552 81.4529 49.2727C81.4331 49.3287 81.4101 49.3859 81.3859 49.4419L70.5093 74.3126C70.483 74.373 70.4544 74.4312 70.4237 74.4894C70.4215 74.4938 70.4193 74.4971 70.4182 74.5015C70.3885 74.5575 70.3567 74.6113 70.3237 74.6651C70.2787 74.7376 70.2315 74.8068 70.181 74.8749C70.1667 74.8946 70.1513 74.9122 70.137 74.9309C70.103 74.9737 70.0689 75.0165 70.0327 75.0583C70.014 75.0802 69.9943 75.1011 69.9745 75.122C69.9416 75.1571 69.9075 75.1923 69.8724 75.2263C69.8515 75.2461 69.8317 75.2669 69.8109 75.2856C69.7735 75.3196 69.7351 75.3526 69.6967 75.3855C69.6769 75.402 69.6582 75.4185 69.6385 75.435C69.5791 75.4833 69.5177 75.5294 69.454 75.5722C69.3881 75.6173 69.32 75.659 69.2508 75.6996C69.2321 75.7106 69.2123 75.7205 69.1926 75.7315C69.1333 75.7644 69.0729 75.7952 69.0114 75.8237C68.9872 75.8358 68.962 75.8468 68.9378 75.8578C68.9147 75.8676 68.8917 75.8775 68.8686 75.8863C68.8313 75.9017 68.7939 75.916 68.7566 75.9291C68.7324 75.9379 68.7094 75.9456 68.6852 75.9544C68.6479 75.9665 68.6105 75.9786 68.5732 75.9884C68.5468 75.9961 68.5216 76.0038 68.4952 76.0104C68.4568 76.0203 68.4173 76.0291 68.3777 76.0379C68.3525 76.0434 68.3272 76.0488 68.303 76.0543C68.2602 76.062 68.2163 76.0686 68.1724 76.0741C68.1515 76.0774 68.1295 76.0807 68.1087 76.0829C68.0439 76.0906 67.978 76.0961 67.9132 76.0983L30.861 76.1005C30.1131 76.1005 29.4784 75.7809 29.0962 75.2603L31.1619 78.0772C31.5441 78.5977 32.1788 78.9173 32.9267 78.9173L69.9789 78.9151C70.0448 78.9129 70.1096 78.9074 70.1744 78.8997C70.1963 78.8976 70.2172 78.8932 70.2381 78.891C70.282 78.8855 70.3248 78.8789 70.3677 78.8712C70.3929 78.8668 70.4182 78.8602 70.4434 78.8547C70.483 78.8459 70.5214 78.8382 70.5598 78.8273C70.5862 78.8207 70.6126 78.813 70.6389 78.8053C70.662 78.7987 70.685 78.7932 70.7081 78.7855C70.7224 78.7811 70.7367 78.7757 70.7509 78.7713C70.7751 78.7636 70.7982 78.7548 70.8223 78.746C70.8597 78.7328 70.897 78.7174 70.9343 78.7032C70.9574 78.6933 70.9804 78.6845 71.0035 78.6746C71.0156 78.6691 71.0277 78.6647 71.0387 78.6603C71.0518 78.6549 71.0639 78.6472 71.0771 78.6406C71.1386 78.612 71.199 78.5813 71.2583 78.5483C71.2715 78.5417 71.2846 78.5362 71.2967 78.5286C71.3033 78.5242 71.3099 78.5198 71.3165 78.5165C71.4516 78.4385 71.5812 78.3496 71.7031 78.2518C71.7075 78.2485 71.713 78.2452 71.7173 78.2408C71.7327 78.2288 71.7459 78.2145 71.7613 78.2024C71.7997 78.1694 71.8381 78.1365 71.8755 78.1025C71.8832 78.0948 71.892 78.0882 71.9007 78.0805C71.9139 78.0684 71.9249 78.0552 71.9381 78.0421C71.9732 78.008 72.0073 77.9729 72.0402 77.9377C72.0512 77.9257 72.0622 77.9158 72.0732 77.9037C72.0819 77.8938 72.0896 77.8839 72.0984 77.874C72.1347 77.8323 72.1687 77.7906 72.2027 77.7466C72.2137 77.7324 72.2258 77.7192 72.2368 77.7049C72.2401 77.7005 72.2434 77.695 72.2478 77.6895C72.2983 77.6215 72.3466 77.5512 72.3905 77.4798C72.3927 77.4765 72.396 77.4732 72.3982 77.4688C72.429 77.4183 72.4575 77.3678 72.485 77.3162C72.4872 77.3118 72.4894 77.3074 72.4916 77.303C72.5157 77.2558 72.5399 77.2085 72.5619 77.1602C72.5673 77.1492 72.5717 77.1371 72.5772 77.1262L83.4538 52.2554C83.478 52.1994 83.4999 52.1423 83.5208 52.0863C83.5274 52.0676 83.5329 52.0501 83.5395 52.0325C83.5527 51.9941 83.5647 51.9556 83.5757 51.9172C83.5812 51.8963 83.5867 51.8755 83.5922 51.8546C83.601 51.8183 83.6098 51.7832 83.6174 51.747C83.6218 51.7261 83.6262 51.7052 83.6295 51.6844C83.6361 51.6481 83.6416 51.6108 83.6471 51.5745C83.6493 51.5559 83.6526 51.5372 83.6548 51.5185C83.6603 51.4724 83.6636 51.4274 83.6658 51.3824C83.6658 51.3736 83.6669 51.3648 83.668 51.3549C83.6702 51.3011 83.6702 51.2473 83.6691 51.1946C83.668 51.1814 83.6669 51.166 83.6658 51.1506Z" fill="#D0D5DD"/>
<path d="M32.9272 79.1656C32.1179 79.1656 31.4018 78.8229 30.9637 78.2244L28.8979 75.4076L29.2966 75.1154L29.2988 75.1176C29.6436 75.5855 30.2136 75.8545 30.8626 75.8545L67.9148 75.8523C67.9642 75.8501 68.0235 75.8446 68.0828 75.8381C68.0927 75.837 68.1026 75.8359 68.1114 75.8337L68.141 75.8293C68.1806 75.8238 68.2201 75.8183 68.2596 75.8106C68.2739 75.8084 68.2893 75.8051 68.3036 75.8018L68.3288 75.7963C68.364 75.7886 68.4002 75.781 68.4353 75.7722C68.4551 75.7667 68.4738 75.7612 68.4936 75.7557L68.5067 75.7513C68.5408 75.7414 68.5759 75.7315 68.61 75.7194C68.6319 75.7118 68.6539 75.7041 68.6759 75.6964C68.7099 75.6843 68.745 75.6711 68.7791 75.6569C68.8043 75.647 68.823 75.6393 68.8428 75.6305C68.8593 75.6239 68.8735 75.6162 68.8889 75.6085L68.9109 75.5986C68.968 75.5723 69.0229 75.5437 69.0778 75.5141L69.1009 75.502C69.1107 75.4965 69.1217 75.491 69.1316 75.4855C69.203 75.4438 69.2634 75.4065 69.3183 75.368C69.3721 75.3307 69.427 75.2901 69.4874 75.2417C69.4973 75.233 69.5083 75.2253 69.5182 75.2165L69.5412 75.1967C69.5764 75.1671 69.6115 75.1363 69.6456 75.1045C69.662 75.0891 69.6774 75.0737 69.6939 75.0583L69.7027 75.0496C69.7345 75.0188 69.7653 74.9859 69.796 74.954C69.8136 74.9353 69.8312 74.9156 69.8487 74.8958C69.8828 74.8574 69.9135 74.8189 69.9454 74.7794L69.9629 74.7574C69.9706 74.7475 69.9783 74.7377 69.986 74.7278C70.0343 74.6641 70.0783 74.5993 70.1167 74.5356C70.1474 74.4862 70.176 74.4368 70.2035 74.3862L70.2078 74.3764C70.2364 74.3226 70.2628 74.2687 70.2858 74.2138L81.1624 49.3431C81.1844 49.2915 81.2052 49.2399 81.2239 49.1893L81.2404 49.1399C81.2514 49.1059 81.2634 49.0707 81.2733 49.0356C81.2777 49.018 81.2832 49.0005 81.2876 48.9829C81.2975 48.9466 81.3052 48.9148 81.3117 48.8829C81.3161 48.8643 81.3194 48.8456 81.3227 48.8269C81.3293 48.7929 81.3337 48.76 81.3381 48.7281L81.3447 48.6787C81.3491 48.6381 81.3524 48.5974 81.3546 48.5568L81.3557 48.5359C81.3579 48.4843 81.3579 48.4371 81.3568 48.3899L81.3546 48.3492C81.3524 48.3152 81.3513 48.2822 81.3469 48.2504C81.3458 48.2372 81.3436 48.2251 81.3425 48.2142L81.3403 48.201C81.3359 48.1713 81.3315 48.1428 81.3271 48.1131C81.3238 48.0955 81.3205 48.0791 81.3172 48.0615C81.3118 48.0351 81.3052 48.0088 81.2986 47.9824L81.2854 47.933C81.2777 47.9067 81.2689 47.8792 81.2601 47.8517L81.247 47.8122C81.225 47.7529 81.1997 47.6936 81.1679 47.631L81.1547 47.6047C81.1283 47.5541 81.0998 47.5047 81.068 47.4575C81.0526 47.4333 81.0361 47.4092 81.0196 47.3861L81.0185 47.3839L81.4172 47.0918C81.4172 47.0918 81.4172 47.0918 81.4172 47.0929L83.4829 49.9087C83.5016 49.935 83.5202 49.9614 83.5389 49.9877L83.5521 50.0086C83.5905 50.0679 83.6257 50.1272 83.6575 50.1865C83.6608 50.192 83.6641 50.1975 83.6674 50.203L83.6806 50.2315C83.7179 50.3062 83.7487 50.3776 83.775 50.4479L83.7805 50.4632C83.786 50.4775 83.7893 50.4885 83.7926 50.4995C83.8069 50.5423 83.8178 50.5775 83.8288 50.6126C83.8343 50.6313 83.8387 50.6499 83.8442 50.6686C83.8541 50.7081 83.8629 50.7411 83.8695 50.7751C83.8728 50.7883 83.875 50.7971 83.876 50.8059C83.8782 50.818 83.8793 50.8267 83.8804 50.8366C83.8881 50.8773 83.8936 50.9146 83.898 50.9508C83.9013 50.9783 83.9035 50.9959 83.9057 51.0145C83.9101 51.0563 83.9123 51.098 83.9145 51.1397L83.9156 51.154C83.9167 51.1661 83.9178 51.1782 83.9178 51.1913C83.92 51.2506 83.92 51.31 83.9167 51.3693L83.9145 51.3945C83.9112 51.4494 83.9079 51.4988 83.9013 51.5494C83.8991 51.5647 83.8969 51.5801 83.8947 51.5944L83.8925 51.6109C83.887 51.6504 83.8804 51.691 83.8727 51.7317C83.8684 51.7547 83.864 51.7778 83.8596 51.7997C83.8508 51.8393 83.842 51.8788 83.8321 51.9183C83.8266 51.9414 83.82 51.9645 83.8134 51.9875C83.8014 52.0293 83.7882 52.071 83.7739 52.1138L83.7684 52.1292C83.764 52.1435 83.7585 52.1589 83.7531 52.1731C83.7311 52.2335 83.7069 52.295 83.6806 52.3565L72.7864 77.2657C72.7634 77.3173 72.737 77.3689 72.7106 77.4195L72.7041 77.4326C72.6733 77.4897 72.6426 77.5457 72.6085 77.5996L72.5975 77.616C72.5503 77.6929 72.4998 77.7665 72.4449 77.839C72.4438 77.8412 72.4394 77.8477 72.4339 77.8554C72.4251 77.8675 72.4152 77.8785 72.4053 77.8895L72.3966 77.9005C72.3592 77.9477 72.3219 77.9938 72.2834 78.0377C72.2725 78.052 72.2648 78.0608 72.256 78.0707C72.2472 78.0806 72.2384 78.0893 72.2285 78.0992L72.2208 78.1069C72.1846 78.1454 72.1484 78.1827 72.111 78.22L72.1011 78.2299C72.0913 78.2409 72.0814 78.2508 72.0704 78.2607C72.0627 78.2684 72.055 78.2749 72.0473 78.2815C72.0034 78.3222 71.9617 78.3573 71.9199 78.3924L71.9068 78.4034C71.8958 78.4133 71.8837 78.4243 71.8716 78.4331L71.853 78.4474C71.7256 78.5495 71.585 78.645 71.4389 78.7307C71.4334 78.734 71.4258 78.7395 71.4181 78.7439C71.406 78.7505 71.395 78.756 71.3829 78.7625C71.3126 78.801 71.2467 78.8339 71.1809 78.8658C71.1622 78.8757 71.1512 78.8811 71.1391 78.8866C71.1303 78.891 71.1205 78.8943 71.1106 78.8987C71.0754 78.9141 71.0502 78.924 71.0249 78.9339C70.9854 78.9503 70.9447 78.9657 70.9041 78.98C70.8788 78.9888 70.8525 78.9986 70.8272 79.0074L70.8141 79.0118C70.8031 79.0162 70.7921 79.0195 70.7811 79.0228C70.7646 79.0283 70.7471 79.0327 70.7295 79.0382L70.6932 79.0481C70.6691 79.0547 70.6449 79.0623 70.6208 79.0678C70.579 79.0788 70.5362 79.0876 70.4945 79.0975L70.4736 79.1019C70.4538 79.1063 70.433 79.1107 70.4132 79.1151C70.366 79.1238 70.3188 79.1304 70.2715 79.137L70.2507 79.1403C70.2342 79.1425 70.2177 79.1458 70.2013 79.1469C70.1266 79.1557 70.0563 79.1612 69.9871 79.1634L32.9272 79.1656ZM30.1268 76.2477L31.3623 77.9312C31.7071 78.4012 32.2771 78.6703 32.9272 78.6703L69.9794 78.6681C70.0288 78.6659 70.0881 78.6604 70.1474 78.6538C70.1573 78.6527 70.1672 78.6516 70.1771 78.6494L70.2057 78.645C70.2452 78.6395 70.2847 78.6341 70.3243 78.6264C70.3396 78.6231 70.3539 78.6198 70.3682 78.6165L70.3923 78.611C70.4275 78.6033 70.4637 78.5956 70.4989 78.5868C70.5186 78.5813 70.5384 78.5758 70.5571 78.5704L70.6032 78.5572C70.6142 78.5539 70.6241 78.5517 70.635 78.5484L70.6746 78.5341C70.6954 78.5275 70.7174 78.5187 70.7394 78.511C70.7734 78.499 70.8086 78.4858 70.8426 78.4715C70.8646 78.4627 70.8854 78.4539 70.9063 78.4452L70.9447 78.4287C70.9546 78.4232 70.9645 78.4177 70.9744 78.4133C71.0304 78.387 71.0864 78.3584 71.1413 78.3288C71.1512 78.3233 71.1611 78.3189 71.171 78.3134C71.1809 78.3079 71.1874 78.3035 71.1951 78.2991C71.3203 78.2266 71.44 78.1443 71.5509 78.0553L71.5784 78.0333C71.5872 78.0257 71.596 78.018 71.6048 78.0103C71.6399 77.9806 71.6761 77.9499 71.7102 77.918C71.7168 77.9125 71.7234 77.9059 71.731 77.9005L71.7442 77.8873C71.7519 77.8796 71.7596 77.8719 71.7673 77.8642C71.8002 77.8324 71.831 77.8005 71.8617 77.7676C71.8683 77.7599 71.876 77.7522 71.8837 77.7445L71.8914 77.7357C71.9013 77.7236 71.9079 77.716 71.9145 77.7083C71.9474 77.6698 71.9792 77.6314 72.0111 77.5919C72.0177 77.5831 72.0254 77.5743 72.0331 77.5644L72.0418 77.5534C72.0418 77.5523 72.0462 77.5457 72.0517 77.5392C72.0989 77.4755 72.1429 77.4107 72.1824 77.347L72.1923 77.3327C72.2197 77.2877 72.245 77.2437 72.2692 77.1987L72.2758 77.1844C72.2966 77.1438 72.3186 77.101 72.3384 77.057L72.3526 77.0263L83.2292 52.1556C83.2512 52.1039 83.272 52.0534 83.2896 52.0018L83.3061 51.9524C83.3182 51.9173 83.3291 51.8821 83.339 51.8481C83.3445 51.8294 83.3489 51.8107 83.3544 51.7921C83.3632 51.7591 83.3709 51.7273 83.3775 51.6954C83.3819 51.6767 83.3852 51.6581 83.3884 51.6394C83.395 51.6065 83.3994 51.5735 83.4038 51.5406L83.4104 51.4901C83.4148 51.4494 83.4181 51.4099 83.4203 51.3693L83.4214 51.3506C83.4236 51.2968 83.4236 51.2495 83.4225 51.2034L83.4203 51.1628C83.4181 51.1298 83.4159 51.0969 83.4126 51.064C83.4115 51.0508 83.4093 51.0365 83.4071 51.0233C83.4016 50.9849 83.3972 50.9563 83.3928 50.9267C83.3917 50.919 83.3906 50.9113 83.3895 50.9025C83.3874 50.8904 83.3852 50.8828 83.383 50.874C83.3775 50.8498 83.372 50.8235 83.3643 50.7971C83.3588 50.7762 83.3555 50.762 83.3511 50.7488C83.3434 50.7213 83.3346 50.6939 83.3247 50.6664L83.3171 50.6412C83.3149 50.6357 83.3127 50.6302 83.3105 50.6247C83.2896 50.5676 83.2644 50.5094 83.2325 50.4468L83.2193 50.4204C83.1941 50.371 83.1644 50.3216 83.1326 50.2733L83.1216 50.2557C83.1095 50.2381 83.0963 50.2194 83.0821 50.1997L81.8488 48.5183C81.8488 48.5293 81.8477 48.5403 81.8477 48.5502L81.8455 48.5755C81.8422 48.6304 81.8389 48.6809 81.8323 48.7314C81.8301 48.7468 81.8279 48.7621 81.8257 48.7775L81.8235 48.794C81.818 48.8346 81.8114 48.8753 81.8037 48.9159C81.7994 48.9379 81.795 48.9609 81.7906 48.984C81.7818 49.0235 81.773 49.0631 81.7631 49.1026C81.7565 49.1278 81.751 49.1498 81.7444 49.1707C81.7324 49.2124 81.7192 49.2541 81.7049 49.297L81.6983 49.3156C81.6939 49.3288 81.6895 49.3431 81.684 49.3563C81.6621 49.4178 81.6379 49.4793 81.6105 49.5408L70.7339 74.4115C70.7064 74.473 70.6768 74.5367 70.6405 74.6048L70.6361 74.6147C70.6021 74.6795 70.567 74.7377 70.5318 74.7959C70.4857 74.8716 70.433 74.9474 70.377 75.0232C70.366 75.0375 70.355 75.0517 70.344 75.066L70.3297 75.0847C70.2924 75.1319 70.2551 75.178 70.2155 75.2231C70.1958 75.2461 70.1749 75.2692 70.1529 75.2922C70.1167 75.3307 70.0805 75.368 70.0431 75.4054L70.0343 75.4142C70.0157 75.4328 69.9959 75.4515 69.9772 75.4702C69.9366 75.5075 69.896 75.5426 69.8542 75.5778L69.8356 75.5943C69.8213 75.6063 69.807 75.6195 69.7916 75.6305C69.7213 75.6865 69.6566 75.7348 69.5929 75.7788C69.5281 75.8238 69.4567 75.8688 69.3743 75.916C69.36 75.9248 69.3447 75.9325 69.3304 75.9402L69.3117 75.9501C69.248 75.9852 69.1821 76.0193 69.1151 76.05L69.0954 76.0588C69.0756 76.0687 69.0547 76.0775 69.035 76.0873C69.013 76.0972 68.9888 76.1071 68.9658 76.1159C68.9197 76.1346 68.879 76.1499 68.8384 76.1653C68.8131 76.1741 68.7868 76.184 68.7615 76.1928C68.7209 76.2059 68.6803 76.218 68.6396 76.2301L68.6264 76.2334C68.6023 76.24 68.5781 76.2477 68.5551 76.2532C68.5133 76.2642 68.4705 76.2729 68.4277 76.2828L68.4057 76.2872C68.3859 76.2916 68.3662 76.296 68.3453 76.2993C68.2981 76.3081 68.2509 76.3147 68.2036 76.3213L68.1828 76.3246C68.1663 76.3267 68.1509 76.3289 68.1344 76.3311C68.0598 76.3399 67.9895 76.3454 67.9203 76.3476L30.8582 76.3498C30.6045 76.3487 30.3586 76.3136 30.1268 76.2477ZM72.5964 77.6171L72.5953 77.6193C72.5964 77.6182 72.5964 77.6182 72.5964 77.6171ZM72.1945 77.3305C72.1945 77.3316 72.1934 77.3316 72.1934 77.3327L72.1945 77.3305Z" fill="#F9FAFB"/>
<path d="M81.6835 33.6777L79.6178 30.8608L77.8431 41.9888L77.1392 46.397H79.452C79.5201 46.397 79.5881 46.3991 79.6529 46.4046L79.9088 44.8046V44.8035L81.6835 33.6777Z" fill="#E4E7EC"/>
<path d="M79.862 46.6712L79.6335 46.6526C79.5753 46.6482 79.5138 46.6449 79.4523 46.6449H76.8496L79.4666 30.2368L81.9442 33.6138L80.1706 44.7373L80.1541 44.845L79.862 46.6712ZM77.4295 46.1507H79.4446L79.6654 44.767L81.4236 33.7411L79.7686 31.4844L77.4295 46.1507Z" fill="#F9FAFB"/>
<path d="M81.3887 49.4383L70.5122 74.309C70.0652 75.3315 69.0109 76.0541 67.9138 76.098L30.8616 76.1002C29.7272 76.1002 28.853 75.3644 28.7267 74.3079L25.263 45.0302C25.0818 43.496 26.5205 41.9893 28.1678 41.9893H41.6328C42.7672 41.9893 43.6436 42.7228 43.7688 43.7793L43.8665 44.6062C43.9917 45.6638 44.8659 46.3985 46.0014 46.3985H79.4537C79.5218 46.3985 79.5899 46.4007 79.6547 46.4062C81.1779 46.5226 82.0312 47.9678 81.3887 49.4383Z" fill="#D0D5DD"/>
<path d="M30.8604 76.3485C29.5997 76.3485 28.6212 75.5216 28.4806 74.3388L25.0169 45.0588C24.9268 44.2956 25.2003 43.4906 25.7691 42.8515C26.3962 42.1464 27.2704 41.7412 28.1676 41.7412H41.6326C42.8945 41.7412 43.8741 42.5671 44.0135 43.7498L44.1113 44.5767C44.2211 45.5036 44.9975 46.1504 46.0002 46.1504H79.4525C79.5282 46.1504 79.6018 46.1537 79.6743 46.1592C80.4694 46.2207 81.1459 46.6216 81.5292 47.2585C81.9278 47.9207 81.9585 48.7521 81.6159 49.5373L70.7393 74.408C70.2539 75.5183 69.1228 76.2969 67.9246 76.3452L30.8604 76.3485ZM28.1676 42.2365C27.4219 42.2365 26.6642 42.589 26.1381 43.1798C25.6637 43.7136 25.4342 44.3769 25.5078 45.0006L28.9715 74.2806C29.0813 75.2075 29.8577 75.8543 30.8604 75.8543L67.9126 75.8521C68.9009 75.8126 69.8794 75.1372 70.2847 74.2114L81.1624 49.3407C81.4402 48.7037 81.4193 48.0382 81.1053 47.5144C80.8054 47.0158 80.2706 46.7017 79.6359 46.6534C79.5766 46.649 79.5151 46.6457 79.4536 46.6457H46.0002C44.7394 46.6457 43.7609 45.8188 43.6204 44.636L43.5226 43.8091C43.4128 42.8833 42.6353 42.2365 41.6326 42.2365H28.1676Z" fill="#F9FAFB"/>
<path d="M77.1398 46.6448H46.0003C44.7396 46.6448 43.76 45.8189 43.6194 44.6362L43.5228 43.8092C43.413 42.8835 42.6355 42.2366 41.6328 42.2366H32.7736C32.7011 42.2366 32.633 42.2048 32.5858 42.1499C32.5386 42.095 32.5188 42.0225 32.5298 41.9511L33.0229 38.8564C33.0416 38.7367 33.1459 38.6477 33.2667 38.6477H39.5067L41.4121 26.6994H35.2512C35.1787 26.6994 35.1106 26.6676 35.0634 26.6127C35.0161 26.5578 34.9964 26.4853 35.0074 26.4139L36.1561 19.2087C36.1747 19.089 36.2791 19 36.3999 19H69.4304C69.5018 19 69.5688 19.0307 69.616 19.0846L69.7896 19.2822C69.8379 19.3371 69.8598 19.4118 69.8478 19.4843L68.0742 30.6134H79.6173C79.6898 30.6134 79.7579 30.6452 79.8051 30.7001C79.8524 30.755 79.8721 30.8275 79.8611 30.8989L77.3836 46.4361C77.3649 46.5569 77.2617 46.6448 77.1398 46.6448ZM33.0635 41.7424H41.6339C42.8946 41.7424 43.8742 42.5683 44.0148 43.751L44.1114 44.578C44.2213 45.5037 44.9988 46.1506 46.0014 46.1506H76.929L79.3285 31.1076H67.7853C67.7129 31.1076 67.6448 31.0757 67.5975 31.0208C67.5503 30.9659 67.5306 30.8934 67.5415 30.822L69.3426 19.5205L69.3195 19.4942H36.6118L35.5411 26.2052H41.702C41.7745 26.2052 41.8426 26.2371 41.8898 26.292C41.937 26.3469 41.9568 26.4194 41.9458 26.4908L39.9613 38.9333C39.9427 39.053 39.8383 39.1419 39.7175 39.1419H33.4776L33.0635 41.7424ZM65.2595 43.5248H44.9472C44.7067 43.5248 44.4848 43.4271 44.3388 43.2558C44.1949 43.0866 44.1356 42.8659 44.1718 42.6353C44.2443 42.1795 44.6693 41.8226 45.1394 41.8226H65.4517C65.6911 41.8226 65.9129 41.9203 66.0579 42.0906C66.2028 42.2597 66.2621 42.4815 66.2248 42.7132C66.1523 43.1679 65.7284 43.5248 65.2595 43.5248ZM45.1394 42.3168C44.9142 42.3168 44.6946 42.498 44.6605 42.7132C44.6463 42.8 44.666 42.8769 44.7154 42.9351C44.7682 42.9966 44.8505 43.0306 44.9472 43.0306H65.2595C65.4846 43.0306 65.7032 42.8494 65.7372 42.6353C65.7515 42.5485 65.7317 42.4694 65.6823 42.4112C65.6296 42.3497 65.5483 42.3168 65.4517 42.3168H45.1394ZM65.9052 39.4769H45.5918C45.3513 39.4769 45.1306 39.3791 44.9845 39.2078C44.8395 39.0387 44.7802 38.818 44.8176 38.5862C44.8901 38.1316 45.3151 37.7747 45.7851 37.7747H66.0974C66.3379 37.7747 66.5587 37.8724 66.7047 38.0426C66.8486 38.2118 66.9079 38.4325 66.8716 38.6642C66.7981 39.12 66.3741 39.4769 65.9052 39.4769ZM45.7851 38.2689C45.56 38.2689 45.3403 38.4501 45.3063 38.6642C45.292 38.7521 45.3118 38.8289 45.3612 38.8871C45.4139 38.9486 45.4963 38.9827 45.5929 38.9827H65.9052C66.1303 38.9827 66.3489 38.8015 66.3829 38.5862C66.3972 38.4984 66.3785 38.4215 66.328 38.3633C66.2753 38.3018 66.194 38.2689 66.0974 38.2689H45.7851ZM66.551 35.4267H46.2387C45.9981 35.4267 45.7763 35.329 45.6302 35.1577C45.4864 34.9886 45.4271 34.7678 45.4633 34.5372C45.5358 34.0815 45.9608 33.7245 46.4308 33.7245H66.7431C66.9826 33.7245 67.2044 33.8223 67.3494 33.9925C67.4943 34.1616 67.5536 34.3835 67.5163 34.6152C67.4438 35.0709 67.0199 35.4267 66.551 35.4267ZM46.4308 34.2187C46.2057 34.2187 45.9861 34.3999 45.952 34.6152C45.9377 34.7019 45.9564 34.7788 46.0069 34.837C46.0596 34.8985 46.142 34.9326 46.2387 34.9326H66.551C66.7761 34.9326 66.9946 34.7514 67.0287 34.5372C67.043 34.4505 67.0232 34.3714 66.9738 34.3132C66.9211 34.2517 66.8398 34.2187 66.7431 34.2187H46.4308Z" fill="#F9FAFB"/>
<path d="M28.6307 26.2524L26.5825 39.0947H39.8883L41.9365 26.2524H28.6307ZM40.0201 27.8602L38.4848 37.4858H28.4956L30.0309 27.8602H40.0201Z" fill="#D0D5DD"/>
<path d="M69.606 19.4463L79.6194 30.8609H67.7852L69.606 19.4463Z" fill="#D0D5DD"/>
<path d="M79.6195 31.1078H67.7853C67.7129 31.1078 67.6448 31.0759 67.5975 31.021C67.5503 30.9661 67.5306 30.8936 67.5415 30.8222L69.3623 19.4076C69.3777 19.3132 69.4458 19.2352 69.5381 19.2089C69.6303 19.1825 69.7291 19.2111 69.7928 19.2835L79.8062 30.6981C79.8699 30.7706 79.8853 30.875 79.8458 30.9628C79.804 31.0518 79.7162 31.1078 79.6195 31.1078ZM68.0753 30.6136H79.0737L69.7665 20.0051L68.0753 30.6136Z" fill="#F9FAFB"/>
<path d="M67.3149 34.0235C67.1765 33.8609 66.9734 33.772 66.7449 33.772H46.4315C45.9846 33.772 45.5793 34.1113 45.5112 34.5451C45.4761 34.7625 45.5321 34.969 45.6672 35.1282C45.8044 35.2886 46.0131 35.3808 46.2393 35.3808H66.5516C66.9986 35.3808 67.4017 35.0415 67.4708 34.6088C67.506 34.3903 67.45 34.1827 67.3149 34.0235Z" fill="#D0D5DD"/>
<path d="M66.0973 37.8223H45.785C45.3381 37.8223 44.9339 38.1616 44.8647 38.5943C44.8296 38.8117 44.8856 39.0193 45.0207 39.1774C45.158 39.3378 45.3655 39.43 45.5928 39.43H65.9052C66.3521 39.43 66.7552 39.0907 66.8244 38.6569C66.8595 38.4394 66.8035 38.2319 66.6684 38.0738C66.5322 37.9134 66.3236 37.8223 66.0973 37.8223Z" fill="#D0D5DD"/>
<path d="M65.4518 41.8701H45.1395C44.6926 41.8701 44.2873 42.2095 44.2192 42.6432C44.1841 42.8607 44.2401 43.0671 44.3752 43.2264C44.5125 43.3867 44.7211 43.479 44.9473 43.479H65.2596C65.7066 43.479 66.1097 43.1396 66.1788 42.7069C66.214 42.4895 66.158 42.2819 66.0229 42.1227C65.8834 41.9591 65.6814 41.8701 65.4518 41.8701Z" fill="#D0D5DD"/>
<path d="M81.0619 60.0251C81.8228 60.0251 82.4396 59.4082 82.4396 58.6473C82.4396 57.8864 81.8228 57.2695 81.0619 57.2695C80.3009 57.2695 79.6841 57.8864 79.6841 58.6473C79.6841 59.4082 80.3009 60.0251 81.0619 60.0251Z" fill="#F9FAFB"/>
<path d="M23.1229 54.9416C23.8838 54.9416 24.5007 54.3247 24.5007 53.5638C24.5007 52.8029 23.8838 52.186 23.1229 52.186C22.362 52.186 21.7451 52.8029 21.7451 53.5638C21.7451 54.3247 22.362 54.9416 23.1229 54.9416Z" fill="#F9FAFB"/>
<path d="M23.8128 56.0553C24.0808 56.0553 24.298 55.8381 24.298 55.5701C24.298 55.3022 24.0808 55.085 23.8128 55.085C23.5449 55.085 23.3276 55.3022 23.3276 55.5701C23.3276 55.8381 23.5449 56.0553 23.8128 56.0553Z" fill="#F9FAFB"/>
<path d="M30.6444 37.613C31.4053 37.613 32.0222 36.9961 32.0222 36.2352C32.0222 35.4743 31.4053 34.8574 30.6444 34.8574C29.8835 34.8574 29.2666 35.4743 29.2666 36.2352C29.2666 36.9961 29.8835 37.613 30.6444 37.613Z" fill="#F9FAFB"/>
<path d="M32.2542 35.339C32.5222 35.339 32.7394 35.1218 32.7394 34.8538C32.7394 34.5859 32.5222 34.3687 32.2542 34.3687C31.9863 34.3687 31.769 34.5859 31.769 34.8538C31.769 35.1218 31.9863 35.339 32.2542 35.339Z" fill="#F9FAFB"/>
<path d="M84.5999 30.3574C85.909 30.3574 86.9702 29.2962 86.9702 27.9871C86.9702 26.678 85.909 25.6167 84.5999 25.6167C83.2907 25.6167 82.2295 26.678 82.2295 27.9871C82.2295 29.2962 83.2907 30.3574 84.5999 30.3574Z" fill="#E4E7EC"/>
<path d="M82.2298 26.8165C82.8531 26.8165 83.3585 26.3112 83.3585 25.6878C83.3585 25.0644 82.8531 24.5591 82.2298 24.5591C81.6064 24.5591 81.1011 25.0644 81.1011 25.6878C81.1011 26.3112 81.6064 26.8165 82.2298 26.8165Z" fill="#F9FAFB"/>
</svg>
