<svg width="24" height="24" viewBox="0 0 24 24" fill="none" xmlns="http://www.w3.org/2000/svg">
<g clip-path="url(#clip0_231_275)">
<path d="M21.125 4.125C21.125 3.50644 20.6236 3 20.005 3H4.245C3.62644 3 3.125 3.50644 3.125 4.125C3.125 4.74356 3.62644 5.25 4.245 5.25H20.005C20.6236 5.25 21.125 4.74356 21.125 4.125ZM21.125 14.25C21.7436 14.25 22.25 13.7486 22.25 13.13V12L21.3051 7.27535C21.2004 6.75183 20.7407 6.375 20.2068 6.375H4.04318C3.5093 6.375 3.04963 6.75183 2.94493 7.27535L2 12V13.13C2 13.7486 2.50644 14.25 3.125 14.25V19.875C3.125 20.4963 3.62868 21 4.25 21H13.25C13.8713 21 14.375 20.4963 14.375 19.875V14.25H18.875V19.875C18.875 20.4963 19.3787 21 20 21C20.6213 21 21.125 20.4963 21.125 19.875V14.25ZM12.125 18.75H5.375V14.25H12.125V18.75Z" fill="#6C6C6C"/>
<path d="M21.125 4.125C21.125 3.50644 20.6236 3 20.005 3H4.245C3.62644 3 3.125 3.50644 3.125 4.125C3.125 4.74356 3.62644 5.25 4.245 5.25H20.005C20.6236 5.25 21.125 4.74356 21.125 4.125ZM21.125 14.25C21.7436 14.25 22.25 13.7486 22.25 13.13V12L21.3051 7.27535C21.2004 6.75183 20.7407 6.375 20.2068 6.375H4.04318C3.5093 6.375 3.04963 6.75183 2.94493 7.27535L2 12V13.13C2 13.7486 2.50644 14.25 3.125 14.25V19.875C3.125 20.4963 3.62868 21 4.25 21H13.25C13.8713 21 14.375 20.4963 14.375 19.875V14.25H18.875V19.875C18.875 20.4963 19.3787 21 20 21C20.6213 21 21.125 20.4963 21.125 19.875V14.25ZM12.125 18.75H5.375V14.25H12.125V18.75Z" fill="black" fill-opacity="0.2"/>
</g>
<defs>
<clipPath id="clip0_231_275">
<rect width="24" height="24" fill="white"/>
</clipPath>
</defs>
</svg>
