<svg width="30" height="30" viewBox="0 0 30 30" fill="none" xmlns="http://www.w3.org/2000/svg">
<path d="M6.18424 2.86474C11.4416 -0.954914 18.5605 -0.954915 23.8178 2.86474C29.0751 6.6844 31.275 13.4549 29.2669 19.6353C27.2588 25.8156 21.4994 30 15.001 30C8.50263 30 2.74329 25.8156 0.735175 19.6353C-1.27294 13.4549 0.926935 6.6844 6.18424 2.86474Z" fill="#B6720F"/>
<path d="M11.25 9.75V7.5C11.25 7.30109 11.329 7.11032 11.4697 6.96967C11.6103 6.82902 11.8011 6.75 12 6.75H18C18.1989 6.75 18.3897 6.82902 18.5303 6.96967C18.671 7.11032 18.75 7.30109 18.75 7.5V9.75H21.75C21.9489 9.75 22.1397 9.82902 22.2803 9.96967C22.421 10.1103 22.5 10.3011 22.5 10.5V21C22.5 21.1989 22.421 21.3897 22.2803 21.5303C22.1397 21.671 21.9489 21.75 21.75 21.75H8.25C8.05109 21.75 7.86032 21.671 7.71967 21.5303C7.57902 21.3897 7.5 21.1989 7.5 21V10.5C7.5 10.3011 7.57902 10.1103 7.71967 9.96967C7.86032 9.82902 8.05109 9.75 8.25 9.75H11.25ZM9 17.25V20.25H21V17.25H9ZM14.25 14.25V15.75H15.75V14.25H14.25ZM12.75 8.25V9.75H17.25V8.25H12.75Z" fill="white"/>
</svg>
