<svg width="32" height="32" viewBox="0 0 32 32" fill="none" xmlns="http://www.w3.org/2000/svg">
<rect width="32.0022" height="32" rx="16" fill="#F3B923"/>
<path d="M19.1111 8H12.8889C10.1667 8 9 9.6 9 12V20C9 22.4 10.1667 24 12.8889 24H19.1111C21.8333 24 23 22.4 23 20V12C23 9.6 21.8333 8 19.1111 8ZM12.8889 16.2H16C16.3189 16.2 16.5833 16.472 16.5833 16.8C16.5833 17.128 16.3189 17.4 16 17.4H12.8889C12.57 17.4 12.3056 17.128 12.3056 16.8C12.3056 16.472 12.57 16.2 12.8889 16.2ZM19.1111 20.6H12.8889C12.57 20.6 12.3056 20.328 12.3056 20C12.3056 19.672 12.57 19.4 12.8889 19.4H19.1111C19.43 19.4 19.6944 19.672 19.6944 20C19.6944 20.328 19.43 20.6 19.1111 20.6ZM21.0556 13.8H19.5C18.3178 13.8 17.3611 12.816 17.3611 11.6V10C17.3611 9.672 17.6256 9.4 17.9444 9.4C18.2633 9.4 18.5278 9.672 18.5278 10V11.6C18.5278 12.152 18.9633 12.6 19.5 12.6H21.0556C21.3744 12.6 21.6389 12.872 21.6389 13.2C21.6389 13.528 21.3744 13.8 21.0556 13.8Z" fill="white"/>
</svg>
