<svg width="64" height="64" viewBox="0 0 64 64" fill="none" xmlns="http://www.w3.org/2000/svg">
<rect width="64" height="64" rx="5.81818" fill="#FCF3F4"/>
<path d="M33.2265 23.1666H32.0007V20.0119H33.2265V17.4881V16.8571V15.8545L27.2563 12.4404H25.713L19.7427 15.8545V16.8571V17.4881V20.0119H20.9685V23.1666H19.7427V26.9524H33.2265V23.1666ZM26.0304 13.7023H26.9388L31.3511 16.2262H21.6182L26.0304 13.7023ZM20.9685 17.4881H32.0007V18.75H20.9685V17.4881ZM30.7749 20.0119V23.1666H29.5491V20.0119H30.7749ZM28.3233 20.0119V23.1666H27.0975V20.0119H28.3233ZM25.8717 20.0119V23.1666H24.6459V20.0119H25.8717ZM23.4201 20.0119V23.1666H22.1943V20.0119H23.4201ZM32.0007 25.6905H20.9685V24.4286H32.0007V25.6905Z" fill="#A90836"/>
<path d="M38.7425 30.1069H39.9683V17.4878H34.4521V18.7497H38.7425V30.1069Z" fill="#A90836"/>
<path d="M38.7419 50.2974H19.129V45.2498H14.2258V18.7497H18.5161V17.4878H13V46.1419L18.2624 51.5593H39.9677V46.5117H38.7419V50.2974ZM17.9032 49.4052L15.0925 46.5117H17.9032V49.4052Z" fill="#A90836"/>
<path d="M35.0644 30.1074C30.6711 30.1074 27.0967 33.7871 27.0967 38.3098C27.0967 42.8325 30.6711 46.5122 35.0644 46.5122C39.4577 46.5122 43.0322 42.8325 43.0322 38.3098C43.0322 33.7871 39.4577 30.1074 35.0644 30.1074ZM35.0644 45.2503C31.3472 45.2503 28.3225 42.1366 28.3225 38.3098C28.3225 34.4831 31.3472 31.3693 35.0644 31.3693C38.7817 31.3693 41.8064 34.4831 41.8064 38.3098C41.8064 42.1366 38.7817 45.2503 35.0644 45.2503Z" fill="#A90836"/>
<path d="M33.8398 35.1547H36.2914C36.9668 35.1547 37.5172 35.7206 37.5172 36.4166H38.743C38.743 35.0247 37.6435 33.8928 36.2914 33.8928H35.6785V32.6309H34.4527V33.8928H33.8398C32.4877 33.8928 31.3882 35.0247 31.3882 36.4166C31.3882 37.8085 32.4877 38.9404 33.8398 38.9404H36.2914C36.9668 38.9404 37.5172 39.5064 37.5172 40.2023C37.5172 40.8982 36.9668 41.4642 36.2914 41.4642H33.8398C33.1638 41.4642 32.614 40.8982 32.614 40.2023H31.3882C31.3882 41.5942 32.4877 42.7261 33.8398 42.7261H34.4527V43.988H35.6785V42.7261H36.2914C37.6435 42.7261 38.743 41.5942 38.743 40.2023C38.743 38.8104 37.6435 37.6785 36.2914 37.6785H33.8398C33.1638 37.6785 32.614 37.1125 32.614 36.4166C32.614 35.7206 33.1638 35.1547 33.8398 35.1547Z" fill="#A90836"/>
<path d="M49.0207 33.2618L47.7079 35.1546H43.645V36.4165H46.8321L46.2106 37.3119L47.2078 38.045L50.5267 33.2618L47.2078 28.4785L46.2106 29.2117L46.8321 30.107H41.1934V31.3689H47.7079L49.0207 33.2618Z" fill="#A90836"/>
<path d="M50.9998 41.4641V40.2022H45.974L46.5949 39.3069L45.5977 38.5737L42.2788 43.357L45.5977 48.1403L46.5949 47.4071L45.974 46.5118H50.9998V45.2499H45.0982L43.7847 43.357L45.0982 41.4641H50.9998Z" fill="#A90836"/>
<path d="M26.4848 41.4641V40.2022H23.2977L23.9186 39.3069L22.9214 38.5737L19.6025 43.357L22.9214 48.1403L23.9186 47.4071L23.2977 46.5118H29.5493V45.2499H22.4219L21.1084 43.357L22.4219 41.4641H26.4848Z" fill="#A90836"/>
<path d="M23.5342 37.3119L24.5314 38.045L27.8503 33.2618L24.5314 28.4785L23.5342 29.2117L24.1557 30.107H19.1299V31.3689H25.0315L26.3444 33.2618L25.0315 35.1546H19.1299V36.4165H24.1557L23.5342 37.3119Z" fill="#A90836"/>
</svg>
