<svg width="101" height="100" viewBox="0 0 101 100" fill="none" xmlns="http://www.w3.org/2000/svg">
<path d="M81.0618 44.3209C82.1239 44.3209 82.985 43.4599 82.985 42.3978C82.985 41.3356 82.1239 40.4746 81.0618 40.4746C79.9997 40.4746 79.1387 41.3356 79.1387 42.3978C79.1387 43.4599 79.9997 44.3209 81.0618 44.3209Z" fill="#F9FAFB"/>
<path d="M50.5002 84.6944C69.3796 84.6944 84.6844 78.6905 84.6844 71.2842C84.6844 63.878 69.3796 57.874 50.5002 57.874C31.6207 57.874 16.3159 63.878 16.3159 71.2842C16.3159 78.6905 31.6207 84.6944 50.5002 84.6944Z" fill="#F9FAFB"/>
<path d="M49.4029 22.9902L47.9826 31.8939H38.7529L49.4029 22.9902Z" fill="#D0D5DD"/>
<path d="M47.9827 32.1027H38.7531C38.6651 32.1027 38.5873 32.0481 38.5568 31.9657C38.5271 31.8833 38.5521 31.7907 38.6188 31.7351L49.2688 22.8305C49.3355 22.775 49.4299 22.7666 49.5049 22.8092C49.5808 22.8518 49.6216 22.937 49.6077 23.0231L48.1873 31.9277C48.1725 32.0287 48.0855 32.1027 47.9827 32.1027ZM39.3271 31.6861H47.8049L49.1095 23.5074L39.3271 31.6861Z" fill="#F9FAFB"/>
<path d="M50.2542 39.7297C50.1903 39.7297 50.1264 39.7001 50.0856 39.6445L49.5236 38.8778C49.4606 38.7917 49.4727 38.6714 49.5523 38.5991C49.6319 38.5278 49.7532 38.5278 49.8319 38.601C49.8356 38.6047 49.8403 38.6084 49.844 38.613C49.8477 38.6167 49.8514 38.6214 49.8542 38.6251C49.8634 38.6362 49.8736 38.651 49.8838 38.6649L50.4218 39.3982C50.4893 39.4908 50.4699 39.6214 50.3773 39.689C50.3403 39.7167 50.2977 39.7297 50.2542 39.7297Z" fill="#F9FAFB"/>
<mask id="mask0_177_10610" style="mask-type:luminance" maskUnits="userSpaceOnUse" x="49" y="38" width="2" height="2">
<path d="M50.2537 39.7307C50.1898 39.7307 50.1259 39.701 50.0852 39.6455L49.5231 38.8788C49.4602 38.7927 49.4722 38.6723 49.5518 38.6001C49.6315 38.5288 49.7528 38.5288 49.8315 38.602C49.8352 38.6057 49.8398 38.6094 49.8435 38.614C49.8472 38.6177 49.8509 38.6223 49.8537 38.626C49.8629 38.6372 49.8731 38.652 49.8833 38.6659L50.4213 39.3992C50.4889 39.4918 50.4694 39.6223 50.3768 39.6899C50.3398 39.7177 50.2972 39.7307 50.2537 39.7307Z" fill="white"/>
</mask>
<g mask="url(#mask0_177_10610)">
<path d="M50.1365 39.3093L52.4716 42.4926C52.3328 42.3028 52.1846 42.1185 52.0272 41.9389C50.3004 39.9713 47.7828 38.987 45.1087 38.987C43.9485 38.987 42.7596 39.1722 41.592 39.5426L39.2568 36.3593C40.4244 35.9889 41.6133 35.8037 42.7735 35.8037C45.4476 35.8037 47.9652 36.788 49.692 38.7556C49.8494 38.9352 49.9976 39.1195 50.1365 39.3093Z" fill="#667185"/>
<path d="M52.4714 42.7013C52.4075 42.7013 52.3436 42.6716 52.3029 42.6161C52.1677 42.4309 52.0214 42.2494 51.8695 42.0763C50.239 40.2189 47.8381 39.1957 45.1075 39.1957C43.9566 39.1957 42.7955 39.379 41.6538 39.7411C41.5686 39.7679 41.476 39.7374 41.4223 39.6661L39.0871 36.4827C39.0473 36.429 39.0362 36.3587 39.0575 36.2948C39.0779 36.2309 39.1288 36.1809 39.1927 36.1605C40.3751 35.7855 41.5788 35.5957 42.7723 35.5957C45.6242 35.5957 48.1371 36.6688 49.8473 38.6179C50.0075 38.8003 50.1603 38.992 50.3038 39.1864L52.6371 42.3679C52.6381 42.3689 52.6381 42.3698 52.639 42.3698C52.7066 42.4624 52.6871 42.5929 52.5945 42.6614C52.5575 42.6883 52.5149 42.7013 52.4714 42.7013ZM45.1084 38.779C47.2464 38.779 49.1936 39.3827 50.7557 40.5059L49.9686 39.4327C49.8334 39.2476 49.6871 39.0661 49.5353 38.8929C47.9047 37.0355 45.5038 36.0124 42.7732 36.0124C41.7158 36.0124 40.6492 36.167 39.5982 36.4735L41.6714 39.3003C42.8075 38.954 43.9631 38.779 45.1084 38.779Z" fill="#F9FAFB"/>
</g>
<path d="M37.9031 54.015C37.8457 54.015 37.7892 53.9919 37.7475 53.9456L37.7151 53.9085C37.6077 53.7854 37.505 53.6576 37.4096 53.528L35.0744 50.3446C35.0068 50.252 35.0263 50.1215 35.1188 50.0539C35.2114 49.9863 35.342 50.0057 35.4105 50.0983L35.4124 50.1011C35.5003 50.2206 35.5948 50.3382 35.6938 50.4511L35.7235 50.4844C35.7281 50.49 35.7327 50.4946 35.7364 50.5002L38.0716 53.6835C38.1374 53.7733 38.1216 53.8983 38.0346 53.9687C37.9957 54.0002 37.9485 54.015 37.9031 54.015Z" fill="#F9FAFB"/>
<mask id="mask1_177_10610" style="mask-type:luminance" maskUnits="userSpaceOnUse" x="35" y="50" width="4" height="5">
<path d="M37.9026 54.016C37.8452 54.016 37.7887 53.9928 37.7471 53.9465L37.7147 53.9095C37.6072 53.7863 37.5045 53.6586 37.4091 53.5289L35.0739 50.3456C35.0063 50.253 35.0258 50.1225 35.1184 50.0549C35.211 49.9873 35.3415 50.0067 35.41 50.0993L35.4119 50.1021C35.4998 50.2215 35.5943 50.3391 35.6934 50.4521L35.723 50.4854C35.7276 50.491 35.7322 50.4956 35.7359 50.5012L38.0711 53.6845C38.1369 53.7743 38.1211 53.8993 38.0341 53.9697C37.9952 54.0012 37.948 54.016 37.9026 54.016Z" fill="white"/>
</mask>
<g mask="url(#mask1_177_10610)">
<g opacity="0.6">
<path d="M35.7366 50.805L38.0718 53.9883C38.0032 53.918 37.9357 53.8458 37.8708 53.7717C37.7662 53.6532 37.6681 53.53 37.5764 53.405L35.2412 50.2217C35.3329 50.3467 35.431 50.4698 35.5357 50.5883C35.6005 50.6624 35.6681 50.7346 35.7366 50.805Z" fill="#667185"/>
<path d="M38.072 54.1975C38.0174 54.1975 37.9637 54.1762 37.9229 54.1345C37.8507 54.0614 37.7803 53.9854 37.7137 53.9095C37.6063 53.7873 37.5035 53.6595 37.4081 53.5289L35.0729 50.3456C35.0053 50.253 35.0248 50.1225 35.1174 50.0549C35.21 49.9873 35.3405 50.0067 35.409 50.0993L35.4109 50.1021C35.4989 50.2215 35.5933 50.3391 35.6924 50.4521C35.7544 50.5225 35.8192 50.5928 35.8859 50.6604C35.8933 50.6678 35.8989 50.6752 35.9053 50.6826L38.2405 53.866C38.3053 53.9539 38.2905 54.0771 38.2072 54.1484C38.1683 54.1817 38.1202 54.1975 38.072 54.1975Z" fill="#F9FAFB"/>
</g>
</g>
<path d="M38.0725 54.1959C38.0178 54.1959 37.9641 54.1746 37.9234 54.133C37.8632 54.0719 37.8039 54.0089 37.7465 53.9441C37.7447 53.9413 37.7419 53.9395 37.7401 53.9367C37.716 53.9071 37.6882 53.8682 37.6623 53.8321L37.6336 53.7922L35.3984 50.745C35.3326 50.6552 35.3484 50.5302 35.4354 50.4598C35.5215 50.3895 35.6475 50.3996 35.7215 50.483C35.7752 50.5422 35.8299 50.6006 35.8854 50.658C35.8919 50.6654 35.8984 50.6728 35.9049 50.6802L38.2401 53.8635C38.3049 53.9515 38.2901 54.0746 38.2067 54.1459C38.1678 54.1802 38.1206 54.1959 38.0725 54.1959Z" fill="#F9FAFB"/>
<mask id="mask2_177_10610" style="mask-type:luminance" maskUnits="userSpaceOnUse" x="35" y="50" width="4" height="5">
<path d="M38.0725 54.1959C38.0178 54.1959 37.9641 54.1746 37.9234 54.133C37.8632 54.0719 37.8039 54.0089 37.7465 53.9441C37.7447 53.9413 37.7419 53.9395 37.7401 53.9367C37.716 53.9071 37.6882 53.8682 37.6623 53.8321L37.6336 53.7922L35.3984 50.745C35.3326 50.6552 35.3484 50.5302 35.4354 50.4598C35.5215 50.3895 35.6475 50.3996 35.7215 50.483C35.7752 50.5422 35.8299 50.6006 35.8854 50.658C35.8919 50.6654 35.8984 50.6728 35.9049 50.6802L38.2401 53.8635C38.3049 53.9515 38.2901 54.0746 38.2067 54.1459C38.1678 54.1802 38.1206 54.1959 38.0725 54.1959Z" fill="white"/>
</mask>
<g mask="url(#mask2_177_10610)">
<g opacity="0.6">
<path d="M35.7366 50.804L38.0718 53.9874C38.0032 53.917 37.9357 53.8448 37.8708 53.7707C37.7662 53.6522 37.6681 53.529 37.5764 53.404L35.2412 50.2207C35.3329 50.3457 35.431 50.4688 35.5357 50.5874C35.6005 50.6614 35.6681 50.7337 35.7366 50.804Z" fill="#667185"/>
<path d="M38.072 54.1965C38.0174 54.1965 37.9637 54.1752 37.9229 54.1335C37.8507 54.0604 37.7803 53.9844 37.7137 53.9085C37.6063 53.7863 37.5035 53.6585 37.4081 53.528L35.0729 50.3446C35.0053 50.252 35.0248 50.1215 35.1174 50.0539C35.21 49.9863 35.3405 50.0057 35.409 50.0983L35.4109 50.1011C35.4989 50.2206 35.5933 50.3382 35.6924 50.4511C35.7544 50.5215 35.8192 50.5919 35.8859 50.6594C35.8933 50.6669 35.8989 50.6743 35.9053 50.6817L38.2405 53.865C38.3053 53.953 38.2905 54.0761 38.2072 54.1474C38.1683 54.1807 38.1202 54.1965 38.072 54.1965Z" fill="#F9FAFB"/>
</g>
</g>
<path d="M47.8541 46.8937C47.7986 47.0696 47.7347 47.2464 47.6643 47.4205C47.5134 47.7946 47.33 48.1622 47.1143 48.5187C47.0106 48.69 46.9004 48.8594 46.781 49.0261C46.3773 49.5955 45.8865 50.1307 45.3125 50.6094C43.7504 51.9159 41.8726 52.5677 40.0986 52.5677C38.3254 52.5677 36.656 51.915 35.5115 50.6094C33.2199 47.9983 33.8949 43.7668 37.018 41.1576C38.58 39.8511 40.4578 39.1992 42.2319 39.1992C44.005 39.1992 45.6745 39.852 46.8189 41.1576C46.8523 41.1955 46.8838 41.2326 46.9134 41.2705C47.0625 41.4501 47.1995 41.6381 47.3217 41.8298C47.543 42.1779 47.718 42.5437 47.8532 42.927C47.9226 43.1214 47.98 43.3205 48.0254 43.5224C48.2763 44.602 48.2125 45.765 47.8541 46.8937Z" fill="#E4E7EC"/>
<path d="M48.026 43.5215H41.9185C41.2741 43.5215 40.8306 43.0187 40.9306 42.3965C41.0297 41.7743 41.6324 41.2715 42.2778 41.2715H46.9148C47.0639 41.4511 47.201 41.6391 47.3232 41.8307C47.5445 42.1789 47.7195 42.5446 47.8547 42.928C47.9232 43.1206 47.9806 43.3196 48.026 43.5215Z" fill="#98A2B3"/>
<path d="M47.854 46.8925C47.7984 47.0685 47.7345 47.2453 47.6641 47.4194C47.5132 47.7935 47.3299 48.161 47.1141 48.5175C47.0104 48.6888 46.9003 48.8583 46.7808 49.0249H40.9771C40.3651 49.0249 39.9484 48.5472 40.0419 47.9583C40.1364 47.3694 40.7067 46.8916 41.3169 46.8916H47.854V46.8925Z" fill="#98A2B3"/>
<path d="M49.5879 22.8359H75.3518L74.9583 25.3045L68.1879 67.7545H35.5934H33.0342L35.0814 54.9156C36.4296 55.6137 37.9684 55.9628 39.562 55.9628C41.7036 55.9628 43.9453 55.3322 45.9629 54.0702H64.0277C64.3416 54.0702 64.6333 53.8258 64.6823 53.523C64.7305 53.2221 64.5157 52.9776 64.2027 52.9776H47.4601C48.9897 51.6887 50.124 50.1406 50.8388 48.5054H64.9157C65.2296 48.5054 65.5212 48.2609 65.5694 47.96C65.6175 47.6582 65.4027 47.4128 65.0897 47.4128H51.2518C51.7268 45.923 51.8583 44.3924 51.6323 42.9406H65.8027C66.1166 42.9406 66.4083 42.6961 66.4564 42.3952C66.5046 42.0933 66.2897 41.848 65.9768 41.848H51.3888C51.0592 40.7248 50.4971 39.673 49.6925 38.7535C47.9657 36.7859 45.4481 35.8017 42.774 35.8017C41.1814 35.8017 39.5342 36.1508 37.9638 36.848L38.7536 31.8933H47.9833L49.4036 22.9906L49.5879 22.8359ZM63.1407 59.6341C63.4546 59.6341 63.7462 59.3896 63.7953 59.0869C63.8434 58.7859 63.6286 58.5415 63.3157 58.5415H41.3388C41.0268 58.5415 40.7342 58.7859 40.686 59.0869C40.6379 59.3887 40.8527 59.6341 41.1647 59.6341H63.1407ZM66.6907 37.3767C67.0046 37.3767 67.2962 37.1322 67.3444 36.8313C67.3925 36.5295 67.1777 36.2841 66.8647 36.2841H51.9675C51.6545 36.2841 51.3629 36.5285 51.3147 36.8313C51.2666 37.1322 51.4795 37.3767 51.7934 37.3767H66.6907Z" fill="#F7F9FC"/>
<path d="M68.1879 67.962H33.0342C32.9731 67.962 32.9157 67.9352 32.8759 67.8889C32.8361 67.8426 32.8194 67.7815 32.8287 67.7213L34.8768 54.8824C34.887 54.8167 34.9287 54.7593 34.9889 54.7296C35.0481 54.6991 35.1194 54.7 35.1787 54.7306C36.4731 55.4009 37.9889 55.7546 39.5629 55.7546C41.7324 55.7546 43.9074 55.1111 45.8527 53.8935C45.8861 53.8732 45.924 53.862 45.9629 53.862H64.0277C64.2389 53.862 64.4444 53.6917 64.4759 53.4907C64.4889 53.4093 64.4703 53.3333 64.4231 53.2778C64.3731 53.2185 64.2944 53.1861 64.2018 53.1861H47.4602C47.3722 53.1861 47.2944 53.1315 47.2648 53.0491C47.2352 52.9667 47.2592 52.875 47.3259 52.8185C48.7759 51.5963 49.925 50.0759 50.6481 48.4222C50.6814 48.3463 50.7564 48.2972 50.8389 48.2972H64.9157C65.1268 48.2972 65.3324 48.1278 65.3639 47.9269C65.3768 47.8444 65.3583 47.7685 65.3111 47.713C65.2611 47.6537 65.1824 47.6213 65.0898 47.6213H51.2518C51.1852 47.6213 51.1231 47.5898 51.0833 47.5361C51.0444 47.4824 51.0333 47.413 51.0527 47.35C51.5166 45.8954 51.6453 44.3815 51.4259 42.9732C51.4166 42.913 51.4342 42.8519 51.4731 42.8056C51.512 42.7593 51.5703 42.7324 51.6314 42.7324H65.8018C66.0129 42.7324 66.2185 42.563 66.25 42.362C66.2629 42.2796 66.2444 42.2037 66.1972 42.1482C66.1472 42.0889 66.0685 42.0565 65.9759 42.0565H51.3889C51.2963 42.0565 51.2148 41.9954 51.1889 41.9065C50.8592 40.7815 50.3027 39.7667 49.5352 38.8907C47.9046 37.0333 45.5037 36.0102 42.7731 36.0102C41.1953 36.0102 39.5611 36.3657 38.0472 37.0389C37.9777 37.0694 37.8963 37.0602 37.8352 37.0139C37.774 36.9676 37.7444 36.8917 37.7564 36.8157L38.5463 31.8611C38.562 31.7602 38.65 31.6852 38.7518 31.6852H47.8037L49.1953 22.9574C49.2027 22.9083 49.2287 22.863 49.2666 22.8306L49.4518 22.6741C49.4898 22.6426 49.537 22.625 49.5861 22.625H75.3518C75.4129 22.625 75.4703 22.6519 75.5101 22.6981C75.55 22.7444 75.5666 22.8056 75.5574 22.8657L68.3935 67.7843C68.3777 67.888 68.2907 67.962 68.1879 67.962ZM33.2777 67.5454H68.0101L75.1074 23.0435H49.6639L49.5963 23.1009L48.1889 31.9278C48.1731 32.0287 48.0852 32.1037 47.9833 32.1037H38.9314L38.2287 36.5102C39.6963 35.9102 41.2592 35.5944 42.774 35.5944C45.6259 35.5944 48.1389 36.6676 49.849 38.6167C50.6222 39.5 51.1916 40.5157 51.5435 41.6398H65.9777C66.1907 41.6398 66.387 41.7269 66.5157 41.8778C66.6435 42.0278 66.6963 42.2232 66.6629 42.4278C66.5981 42.8324 66.2203 43.1491 65.8027 43.1491H51.8722C52.0407 44.463 51.924 45.8546 51.5324 47.2046H65.0898C65.3027 47.2046 65.499 47.2917 65.6277 47.4426C65.7555 47.5926 65.8083 47.788 65.775 47.9926C65.7101 48.3972 65.3324 48.7139 64.9148 48.7139H50.974C50.2953 50.2157 49.2787 51.6056 48.012 52.7694H64.2018C64.4148 52.7694 64.6111 52.8565 64.7398 53.0074C64.8676 53.1574 64.9194 53.3519 64.887 53.5565C64.8222 53.9611 64.4444 54.2787 64.0268 54.2787H46.0222C44.0231 55.5176 41.7907 56.1713 39.562 56.1713C38.024 56.1713 36.5379 55.8463 35.2426 55.2278L33.2777 67.5454ZM63.1407 59.8426H41.1648C40.9527 59.8426 40.7564 59.7565 40.6277 59.6046C40.5 59.4546 40.4472 59.2593 40.4805 59.0537C40.5453 58.6491 40.9222 58.3324 41.3389 58.3324H63.3148C63.5277 58.3324 63.724 58.4195 63.8527 58.5704C63.9805 58.7204 64.0324 58.9148 64 59.1195C63.9361 59.525 63.5583 59.8426 63.1407 59.8426ZM41.3389 58.75C41.1287 58.75 40.924 58.9195 40.8916 59.1204C40.8787 59.2028 40.8972 59.2796 40.9444 59.3352C40.9944 59.3945 41.0731 59.4269 41.1639 59.4269H63.1398C63.3509 59.4269 63.5564 59.2565 63.5879 59.0556C63.6009 58.9741 63.5824 58.8982 63.5352 58.8426C63.4852 58.7833 63.4064 58.7509 63.3139 58.7509H41.3389V58.75ZM66.6907 37.5852H51.7935C51.5805 37.5852 51.3851 37.4991 51.2564 37.3482C51.1287 37.1982 51.0768 37.0037 51.1092 36.7991C51.174 36.3935 51.5509 36.0769 51.9676 36.0769H66.8648C67.0777 36.0769 67.274 36.1639 67.4027 36.3148C67.5305 36.4648 67.5833 36.6602 67.55 36.8648C67.4861 37.2685 67.1083 37.5852 66.6907 37.5852ZM51.9676 36.4926C51.7574 36.4926 51.5527 36.663 51.5203 36.8639C51.5074 36.9463 51.5259 37.0222 51.5731 37.0769C51.6231 37.1352 51.7009 37.1676 51.7935 37.1676H66.6907C66.9018 37.1676 67.1074 36.9981 67.1389 36.7972C67.1518 36.7148 67.1333 36.6389 67.0861 36.5833C67.0361 36.5241 66.9574 36.4917 66.8648 36.4917H51.9676V36.4926Z" fill="#F9FAFB"/>
<g opacity="0.5">
<g opacity="0.6">
<path d="M37.3069 40.9639L37.0856 42.3537C37.0514 42.3796 37.0171 42.4055 36.9838 42.4342C36.231 43.062 36.069 44.0824 36.6208 44.7111C36.6449 44.7389 36.6708 44.7657 36.6977 44.7907L35.7384 50.8037C35.6699 50.7333 35.6023 50.6611 35.5375 50.587C34.3986 49.2879 33.9967 47.5852 34.269 45.8833C34.5402 44.1805 35.4847 42.4787 37.0384 41.1805C37.1254 41.1065 37.2162 41.0342 37.3069 40.9639Z" fill="#D0D5DD"/>
</g>
</g>
<path d="M65.0903 47.4131C65.4042 47.4131 65.6181 47.6575 65.5699 47.9603C65.5218 48.2612 65.2292 48.5057 64.9162 48.5057H50.8394C50.9977 48.1455 51.1357 47.7807 51.2514 47.4131H65.0903Z" fill="#D0D5DD"/>
<path d="M64.916 48.7144H50.8392C50.7688 48.7144 50.7031 48.6792 50.6651 48.6199C50.6271 48.5607 50.6206 48.4866 50.6484 48.4227C50.8049 48.0653 50.941 47.7051 51.0531 47.3514C51.0799 47.2644 51.1605 47.2061 51.2521 47.2061H65.0901C65.3031 47.2061 65.4994 47.2931 65.6281 47.444C65.7558 47.594 65.8086 47.7894 65.7753 47.994C65.7114 48.3977 65.3336 48.7144 64.916 48.7144ZM51.154 48.2977H64.916C65.1271 48.2977 65.3327 48.1283 65.3642 47.9274C65.3771 47.8449 65.3586 47.769 65.3114 47.7135C65.2614 47.6542 65.1827 47.6218 65.0901 47.6218H51.4031C51.329 47.8459 51.2457 48.0718 51.154 48.2977Z" fill="#D0D5DD"/>
<path d="M64.2031 52.9775C64.517 52.9775 64.7309 53.222 64.6828 53.5229C64.6346 53.8248 64.342 54.0701 64.0281 54.0701H45.9624C46.4633 53.7572 46.9504 53.4044 47.418 53.0137C47.4318 53.0016 47.4467 52.9896 47.4606 52.9785H64.2031V52.9775Z" fill="#D0D5DD"/>
<path d="M64.0278 54.2788H45.9621C45.8695 54.2788 45.7871 54.2177 45.7621 54.1279C45.7362 54.039 45.7732 53.9427 45.8519 53.8937C46.3491 53.5825 46.8306 53.2325 47.2843 52.8538L47.3232 52.8214C47.3612 52.79 47.4112 52.7705 47.4603 52.7705H64.2028C64.4158 52.7705 64.6121 52.8575 64.7408 53.0085C64.8686 53.1585 64.9204 53.3529 64.888 53.5575C64.8232 53.9612 64.4464 54.2788 64.0278 54.2788ZM46.6529 53.8622H64.0278C64.239 53.8622 64.4445 53.6918 64.476 53.4909C64.489 53.4094 64.4704 53.3335 64.4232 53.2779C64.3732 53.2187 64.2945 53.1862 64.2019 53.1862H47.5353C47.2519 53.4233 46.9566 53.6492 46.6529 53.8622Z" fill="#D0D5DD"/>
<path d="M77.455 25.7036L77.1254 27.774L77.0615 28.173L70.355 70.2221H34.8449L33.0347 67.7545H68.1884L74.9587 25.3064L75.3532 22.8369L77.455 25.7036Z" fill="#E4E7EC"/>
<path d="M70.355 70.431H34.8458C34.7791 70.431 34.7171 70.3995 34.6782 70.3458L32.8671 67.8782C32.8208 67.8152 32.8134 67.731 32.8495 67.6606C32.8847 67.5902 32.9569 67.5467 33.0356 67.5467H68.0115L74.7541 25.2736L75.1485 22.8041C75.1615 22.7208 75.2235 22.6541 75.305 22.6347C75.3874 22.6152 75.4726 22.6458 75.5217 22.7143L77.6235 25.581C77.6569 25.6254 77.6698 25.6819 77.6615 25.7365L77.268 28.206L70.5606 70.256C70.5439 70.3569 70.4569 70.431 70.355 70.431ZM34.9504 70.0143H70.1763L76.856 28.1402L77.2356 25.7569L75.48 23.3624L75.1643 25.3393L68.3939 67.7874C68.3782 67.8884 68.2902 67.9634 68.1884 67.9634H33.4458L34.9504 70.0143Z" fill="#F9FAFB"/>
<path d="M72.5208 72.6914L74.856 75.8747H39.7004L37.3652 72.6914H72.5208Z" fill="#D0D5DD"/>
<path d="M74.856 76.0834H39.7004C39.6337 76.0834 39.5717 76.0519 39.5328 75.9982L37.1976 72.8149C37.1513 72.7519 37.1439 72.6677 37.18 72.5973C37.2152 72.5269 37.2874 72.4834 37.3662 72.4834H72.5217C72.5884 72.4834 72.6504 72.5149 72.6893 72.5686L75.0245 75.7519C75.0708 75.8149 75.0782 75.8991 75.0421 75.9695C75.006 76.039 74.9347 76.0834 74.856 76.0834ZM39.806 75.6667H74.4449L72.4152 72.9001H37.7763L39.806 75.6667Z" fill="#F9FAFB"/>
<path d="M79.6852 27.7725L72.5213 72.69H37.3657L37.7592 70.2206H70.3555L77.125 27.7725H79.6852Z" fill="#F7F9FC"/>
<path d="M72.5213 72.8987H37.3658C37.3047 72.8987 37.2472 72.8719 37.2074 72.8256C37.1676 72.7793 37.151 72.7182 37.1602 72.658L37.5537 70.1895C37.5695 70.0885 37.6574 70.0135 37.7593 70.0135H70.1778L76.9195 27.7404C76.9352 27.6395 77.0232 27.5645 77.125 27.5645H79.6852C79.7463 27.5645 79.8037 27.5913 79.8435 27.6376C79.8834 27.6839 79.9 27.745 79.8908 27.8052L72.7269 72.7228C72.7111 72.8237 72.6241 72.8987 72.5213 72.8987ZM37.6102 72.482H72.3435L79.4408 27.9811H77.3028L70.5611 70.2543C70.5454 70.3552 70.4574 70.4302 70.3556 70.4302H37.9371L37.6102 72.482Z" fill="#F9FAFB"/>
<path d="M79.6839 27.7725L82.0191 30.9558L74.8552 75.8734L72.52 72.6901L79.6839 27.7725Z" fill="#E4E7EC"/>
<path d="M74.8552 76.0822C74.7895 76.0822 74.7274 76.0517 74.6876 75.9971L72.3524 72.8137C72.3191 72.7693 72.3061 72.7128 72.3145 72.6572L79.4784 27.7397C79.4913 27.6563 79.5534 27.5897 79.6348 27.5702C79.7172 27.5508 79.8024 27.5813 79.8515 27.6498L82.1867 30.8332C82.22 30.8776 82.233 30.9341 82.2247 30.9897L75.0608 75.9072C75.0478 75.9906 74.9858 76.0572 74.9043 76.0767C74.8876 76.0804 74.8709 76.0822 74.8552 76.0822ZM72.7395 72.6369L74.7274 75.348L81.7987 31.0091L79.8108 28.298L72.7395 72.6369Z" fill="#F9FAFB"/>
<path d="M33.8251 54.1201L21.6936 64.2618C21.6649 64.2859 21.6353 64.3072 21.6056 64.3294C21.5918 64.3396 21.5788 64.3497 21.5649 64.3599C21.5408 64.3766 21.5158 64.3914 21.4918 64.4072C21.4742 64.4183 21.4566 64.4303 21.439 64.4405C21.426 64.4479 21.4121 64.4544 21.3992 64.4618C21.3668 64.4794 21.3334 64.497 21.3001 64.5118C21.2881 64.5173 21.276 64.522 21.264 64.5266C21.2195 64.546 21.1751 64.5627 21.1306 64.5775C21.1103 64.5849 21.089 64.5914 21.0677 64.5979C21.051 64.6025 21.0334 64.6081 21.0168 64.6118C20.9899 64.6183 20.9631 64.6247 20.9362 64.6303C20.9195 64.634 20.9029 64.6368 20.8871 64.6396C20.8575 64.6442 20.8288 64.6479 20.7992 64.6516C20.7853 64.6534 20.7714 64.6553 20.7575 64.6562C20.7149 64.6599 20.6714 64.6618 20.6288 64.6618C20.2658 64.6618 19.9251 64.5285 19.6908 64.2618L19.2584 63.7692C19.2371 63.7451 19.2177 63.7201 19.1982 63.6942L21.5334 66.8775C21.5519 66.9035 21.5723 66.9285 21.5936 66.9525L22.026 67.4451C22.2603 67.7118 22.601 67.8451 22.964 67.8451C23.0066 67.8451 23.0492 67.8433 23.0927 67.8396C23.1066 67.8386 23.1205 67.8359 23.1344 67.8349C23.164 67.8312 23.1927 67.8275 23.2223 67.8229C23.239 67.8201 23.2556 67.8164 23.2714 67.8136C23.2982 67.8081 23.3251 67.8025 23.3519 67.7951C23.3695 67.7905 23.3862 67.7859 23.4029 67.7812C23.4149 67.7775 23.4279 67.7747 23.4399 67.771C23.4482 67.7683 23.4566 67.7646 23.4658 67.7609C23.5112 67.746 23.5556 67.7285 23.5992 67.7099C23.6075 67.7062 23.6168 67.7034 23.626 67.6997C23.6297 67.6979 23.6325 67.696 23.6362 67.6951C23.6695 67.6794 23.7019 67.6627 23.7353 67.6451C23.7473 67.6386 23.7594 67.634 23.7714 67.6266C23.7732 67.6257 23.7742 67.6247 23.7751 67.6238C23.7927 67.6136 23.8103 67.6016 23.8279 67.5905C23.8501 67.5766 23.8732 67.5636 23.8955 67.5479C23.8973 67.547 23.8992 67.5451 23.901 67.5433C23.9149 67.534 23.9279 67.5229 23.9418 67.5127C23.964 67.496 23.9871 67.4803 24.0084 67.4627C24.0158 67.4572 24.0223 67.4516 24.0297 67.4451L36.1612 57.3035L33.8251 54.1201Z" fill="#667185"/>
<path d="M22.9628 68.0531C22.5239 68.0531 22.135 67.8856 21.8684 67.5818L21.436 67.0893C21.411 67.0605 21.3869 67.0309 21.3647 67.0004L19.0304 63.8189C19.0304 63.818 19.0295 63.818 19.0295 63.817C18.9619 63.7244 18.9813 63.5939 19.0739 63.5263C19.1665 63.4587 19.2971 63.4781 19.3647 63.5707L19.3656 63.5726C19.3804 63.593 19.3961 63.6124 19.4128 63.6318L19.8452 64.1244C20.0313 64.3365 20.3091 64.4531 20.6267 64.4531C20.6637 64.4531 20.6999 64.4513 20.7369 64.4476L20.7739 64.443C20.7989 64.4402 20.8239 64.4374 20.8499 64.4328C20.86 64.4309 20.8711 64.4291 20.8813 64.4263L20.8934 64.4235C20.9165 64.4189 20.9406 64.4133 20.9637 64.4078C20.9786 64.4041 20.9943 64.3994 21.0091 64.3957C21.0276 64.3902 21.0452 64.3846 21.0637 64.3781C21.1026 64.3652 21.1415 64.3504 21.1804 64.3337L21.2119 64.3207C21.2415 64.3068 21.2702 64.292 21.2989 64.2763L21.3341 64.2578C21.3415 64.2531 21.3499 64.2485 21.3573 64.243L21.3961 64.218C21.4128 64.2078 21.4286 64.1976 21.4452 64.1865C21.4508 64.1828 21.4563 64.1781 21.4619 64.1735L21.4887 64.1531C21.5119 64.1355 21.536 64.1189 21.5582 64.0994L33.6897 53.9578C33.7341 53.9207 33.7906 53.9041 33.848 53.9105C33.9054 53.917 33.9563 53.9476 33.9906 53.9939L36.3258 57.1772C36.3906 57.2661 36.3758 57.3902 36.2915 57.4606L24.1378 67.6244C24.1184 67.6402 24.0989 67.655 24.0786 67.6689L24.0517 67.6883C24.0406 67.6967 24.0295 67.705 24.0184 67.7133C23.9934 67.7309 23.9739 67.743 23.9545 67.755L23.9202 67.7763C23.9073 67.7846 23.8943 67.793 23.8813 67.8004C23.8776 67.8031 23.8739 67.805 23.8702 67.8068C23.8619 67.8115 23.8508 67.817 23.8406 67.8217L23.8323 67.8254C23.7952 67.8448 23.7591 67.8643 23.7211 67.8818C23.7221 67.8818 23.7156 67.8846 23.71 67.8874C23.7008 67.8911 23.6906 67.8957 23.6804 67.8994C23.6304 67.9207 23.5804 67.9402 23.5304 67.9568C23.5221 67.9605 23.511 67.9643 23.5008 67.968C23.4915 67.9707 23.4804 67.9735 23.4702 67.9763L23.46 67.9791C23.4406 67.9846 23.4211 67.9902 23.4017 67.9948C23.3711 68.0022 23.3415 68.0096 23.311 68.0152L23.3008 68.017C23.285 68.0198 23.2702 68.0235 23.2545 68.0263C23.2211 68.0318 23.1878 68.0365 23.1554 68.0402L23.1434 68.042C23.1313 68.0439 23.1202 68.0448 23.1082 68.0457C23.0563 68.0513 23.0091 68.0531 22.9628 68.0531ZM20.2943 64.8365L21.7017 66.755C21.7165 66.7754 21.7332 66.7957 21.7499 66.8152L22.1823 67.3078C22.3897 67.5448 22.7156 67.6624 23.0739 67.6318L23.11 67.6272C23.135 67.6244 23.161 67.6217 23.186 67.617C23.1961 67.6152 23.2073 67.6133 23.2174 67.6106L23.2286 67.6087C23.2526 67.6041 23.2758 67.5985 23.2989 67.593C23.3137 67.5893 23.3286 67.5846 23.3443 67.5809L23.3758 67.5726C23.3813 67.5698 23.3906 67.5661 23.3989 67.5633C23.4378 67.5504 23.4776 67.5356 23.5165 67.518C23.5239 67.5143 23.5323 67.5115 23.5406 67.5087L23.5471 67.5059C23.5776 67.492 23.6063 67.4763 23.636 67.4606C23.6434 67.4559 23.6517 67.4522 23.6591 67.4485L23.6656 67.4448C23.6674 67.443 23.6702 67.442 23.6721 67.4411C23.6786 67.4374 23.6869 67.4318 23.6952 67.4272L23.7387 67.4004C23.7517 67.393 23.7647 67.3846 23.7767 67.3763C23.7878 67.368 23.7934 67.3643 23.7989 67.3596L23.8341 67.3328C23.848 67.3226 23.8619 67.3124 23.8758 67.3013L23.8943 67.2865L35.8767 57.2698L33.7887 54.4226L21.8267 64.4217C21.7971 64.4457 21.7674 64.4689 21.7369 64.4911L21.7165 64.5068C21.7054 64.5152 21.6952 64.5235 21.6841 64.5309C21.6619 64.5457 21.6397 64.5596 21.6174 64.5735L21.585 64.5939C21.5711 64.6031 21.5573 64.6115 21.5434 64.6198C21.5323 64.6263 21.5211 64.6318 21.51 64.6374L21.498 64.6439C21.4619 64.6633 21.4249 64.6828 21.3878 64.7004C21.3776 64.705 21.3674 64.7096 21.3563 64.7133L21.3461 64.718C21.2971 64.7393 21.2471 64.7587 21.1961 64.7754C21.173 64.7837 21.1489 64.7911 21.1258 64.7976C21.1063 64.8031 21.0869 64.8087 21.0674 64.8133C21.0378 64.8207 21.0073 64.8281 20.9767 64.8337L20.9665 64.8355C20.9517 64.8383 20.936 64.842 20.9211 64.8439C20.8878 64.8494 20.8554 64.8541 20.8221 64.8578L20.8091 64.8596C20.798 64.8615 20.786 64.8624 20.7739 64.8633C20.7221 64.868 20.6739 64.8698 20.6276 64.8698C20.5128 64.8698 20.4008 64.8587 20.2943 64.8365Z" fill="#F9FAFB"/>
<path d="M51.6324 42.9407C51.575 42.5713 51.4935 42.2055 51.3879 41.8481C51.0592 40.724 50.4963 39.6731 49.6916 38.7537C47.9648 36.7861 45.4472 35.8027 42.7731 35.8027C41.1796 35.8027 39.5324 36.1509 37.9629 36.85C36.8944 37.325 35.8629 37.9601 34.9092 38.7574C30.6972 42.2777 29.4407 47.7592 31.699 51.6944L19.5657 61.8379C18.9287 62.3694 18.7916 63.2333 19.2583 63.7676L19.6907 64.2601C19.924 64.5268 20.2666 64.6611 20.6277 64.6611C20.9907 64.6611 21.375 64.5268 21.6926 64.2601L33.825 54.1194C34.2213 54.4203 34.6416 54.687 35.0815 54.9148C36.4296 55.612 37.9685 55.962 39.562 55.962C41.7046 55.962 43.9463 55.3324 45.962 54.0694C46.4639 53.7564 46.95 53.4037 47.4611 52.9768C48.9898 51.687 50.125 50.1398 50.8398 48.5037C50.9963 48.1453 51.1352 47.7787 51.2509 47.4111C51.7259 45.924 51.8583 44.3916 51.6324 42.9407ZM45.312 50.6092C43.75 51.9157 41.8722 52.5675 40.0981 52.5675C38.325 52.5675 36.6555 51.9148 35.5111 50.6092C33.2194 47.9981 33.8944 43.7666 37.0176 41.1574C38.5796 39.8509 40.4574 39.199 42.2315 39.199C44.0046 39.199 45.674 39.8518 46.8185 41.1574C46.8518 41.1953 46.8833 41.2324 46.9129 41.2703C47.062 41.45 47.199 41.6379 47.3213 41.8296C47.5426 42.1777 47.7176 42.5435 47.8527 42.9268C47.9222 43.1213 47.9796 43.3203 48.025 43.5222C48.275 44.6027 48.212 45.7657 47.8527 46.8935C47.7972 47.0694 47.7333 47.2463 47.6629 47.4203C47.512 47.7944 47.3287 48.162 47.1129 48.5185C47.0092 48.6898 46.899 48.8592 46.7796 49.0259C46.3777 49.5953 45.8861 50.1305 45.312 50.6092Z" fill="#98A2B3"/>
<path d="M20.628 64.8697C20.1891 64.8697 19.8002 64.7021 19.5345 64.3975L19.1021 63.9049C18.8632 63.6308 18.7484 63.2706 18.778 62.891C18.8141 62.4373 19.0521 61.9947 19.4326 61.6781L31.4336 51.6456C30.3771 49.7105 30.1076 47.366 30.6762 45.0216C31.2641 42.5984 32.7206 40.3169 34.7771 38.5975C35.7252 37.8049 36.7697 37.1531 37.8799 36.6595C39.4447 35.9632 41.1373 35.5947 42.7752 35.5947C45.6271 35.5947 48.1401 36.6679 49.8502 38.6169C50.6595 39.541 51.2447 40.6086 51.5901 41.7901C51.6965 42.1521 51.7808 42.5281 51.8401 42.9086C52.0697 44.3799 51.9345 45.9595 51.4512 47.4753C51.3354 47.8429 51.1947 48.2169 51.0326 48.5873C50.2845 50.2994 49.0956 51.8716 47.5965 53.1364C47.0891 53.5605 46.591 53.9234 46.0734 54.2456C44.0641 55.504 41.8132 56.1697 39.5632 56.1697C37.9234 56.1697 36.341 55.7994 34.9873 55.0994C34.5891 54.8938 34.2021 54.6531 33.8336 54.3845L21.8262 64.4206C21.4808 64.7095 21.0558 64.8697 20.628 64.8697ZM42.7743 36.0114C41.1947 36.0114 39.5604 36.3669 38.0484 37.0401C36.9734 37.5179 35.9623 38.1494 35.0438 38.9169C30.9567 42.3327 29.6262 47.6632 31.8808 51.5901C31.9308 51.6781 31.9114 51.7892 31.8336 51.854L19.6993 61.9975C19.4049 62.2438 19.2197 62.5808 19.1928 62.9234C19.1715 63.191 19.2502 63.4419 19.4151 63.6299L19.8475 64.1225C20.0336 64.3355 20.3104 64.4521 20.628 64.4521C20.9576 64.4521 21.2891 64.3271 21.5595 64.1003L33.6919 53.9595C33.7669 53.8975 33.8743 53.8947 33.9521 53.954C34.3401 54.2494 34.7521 54.5105 35.178 54.7299C36.4725 55.3994 37.9891 55.754 39.5632 55.754C41.7345 55.754 43.9095 55.1105 45.8521 53.8938C46.353 53.5808 46.8364 53.229 47.328 52.8179C48.778 51.5957 49.9262 50.0753 50.6493 48.4216C50.8058 48.0642 50.941 47.704 51.053 47.3503C51.5169 45.8947 51.6465 44.3818 51.4271 42.9734C51.3706 42.6114 51.291 42.2531 51.1891 41.9086C50.8614 40.7855 50.3049 39.7707 49.5354 38.8919C47.9058 37.0345 45.5039 36.0114 42.7743 36.0114ZM40.0984 52.7762C38.1864 52.7762 36.5012 52.0558 35.3539 50.7466C34.3299 49.5799 33.8364 48.0355 33.9632 46.3966C34.1188 44.3864 35.1836 42.4179 36.8836 40.9975C38.4317 39.7031 40.3308 38.9901 42.2317 38.9901C44.1438 38.9901 45.8289 39.7105 46.9762 41.0197C47.0114 41.0595 47.0447 41.0994 47.0771 41.1401C47.2271 41.3207 47.3697 41.516 47.4984 41.7169C47.7215 42.0669 47.9076 42.4503 48.0512 42.8558C48.1225 43.0558 48.1826 43.2642 48.2299 43.4753C48.4863 44.5818 48.4252 45.7855 48.053 46.9558C47.9947 47.1392 47.9289 47.3216 47.8576 47.4984C47.703 47.8827 47.5132 48.2614 47.2928 48.6262C47.1808 48.8105 47.0697 48.9808 46.9512 49.1475C46.5289 49.7429 46.0225 50.2882 45.4465 50.7697C43.8984 52.0632 41.9993 52.7762 40.0984 52.7762ZM42.2317 39.4068C40.4289 39.4068 38.6243 40.0855 37.1512 41.3169C35.5364 42.666 34.5252 44.5299 34.3789 46.429C34.2604 47.9549 34.7188 49.3901 35.6678 50.4716C36.7345 51.6892 38.3086 52.3595 40.0984 52.3595C41.9012 52.3595 43.7058 51.6808 45.1789 50.4494C45.728 49.991 46.2095 49.4716 46.6114 48.9058C46.7234 48.7475 46.8299 48.5864 46.9364 48.4105C47.1447 48.0651 47.3243 47.7058 47.4715 47.3419C47.5391 47.1753 47.6012 47.0031 47.6558 46.8299C48.0049 45.7308 48.0632 44.6031 47.8234 43.5679C47.7799 43.3725 47.7243 43.1799 47.6586 42.9957C47.5252 42.6188 47.353 42.2642 47.1475 41.941C47.0289 41.7549 46.8965 41.5734 46.7549 41.4031C46.7243 41.3651 46.6947 41.3299 46.6641 41.2947C45.5956 40.0771 44.0215 39.4068 42.2317 39.4068Z" fill="#F9FAFB"/>
<path d="M40.3516 44.5034C40.3331 44.4506 40.3099 44.4006 40.2784 44.3533C40.259 44.3209 40.2358 44.2904 40.2099 44.2608C40.0534 44.083 39.8257 43.9932 39.5831 43.9932C39.5636 43.9932 39.5442 43.9941 39.5238 43.995C39.2988 44.008 39.0664 44.0969 38.8701 44.2608C38.6219 44.4682 38.4868 44.7506 38.4794 45.0209C38.4738 45.2154 38.534 45.4033 38.6645 45.5524C38.821 45.7302 39.0488 45.82 39.2914 45.82C39.534 45.82 39.7905 45.7311 40.0034 45.5524C40.1044 45.4672 40.1877 45.3709 40.2507 45.2663C40.2803 45.2182 40.3044 45.1682 40.3257 45.1163C40.409 44.9126 40.4192 44.695 40.3516 44.5034Z" fill="#F7F9FC"/>
<path d="M39.5936 42.861C39.5611 42.7684 39.5176 42.6805 39.4649 42.5972C39.4287 42.5407 39.3899 42.487 39.3445 42.4351C39.0686 42.1203 38.6658 41.9629 38.2389 41.9629C37.8491 41.9629 37.4399 42.0934 37.0852 42.3546C37.051 42.3805 37.0167 42.4064 36.9834 42.4342C36.2306 43.062 36.0686 44.0823 36.6204 44.711C36.6454 44.7388 36.6704 44.7657 36.6973 44.7907C36.9676 45.0518 37.3361 45.1814 37.726 45.1814C37.976 45.1814 38.2352 45.1277 38.4824 45.0203C38.6574 44.9444 38.826 44.8407 38.9824 44.711C39.1602 44.561 39.3065 44.3907 39.4167 44.2073C39.4584 44.1379 39.4954 44.0666 39.526 43.9944C39.5334 43.9768 39.5408 43.9601 39.5473 43.9425C39.6936 43.5823 39.7111 43.199 39.5936 42.861Z" fill="#F7F9FC"/>
<path d="M70.355 70.2215H34.8449L33.0347 67.7539H68.1884L70.355 70.2215Z" fill="#D0D5DD"/>
<path d="M70.355 70.4302H34.8458C34.7791 70.4302 34.7171 70.3987 34.6782 70.345L32.8671 67.8774C32.8208 67.8144 32.8134 67.7302 32.8495 67.6598C32.8847 67.5894 32.9569 67.5459 33.0356 67.5459H68.1893C68.2495 67.5459 68.306 67.5718 68.3458 67.6172L70.5124 70.0848C70.5661 70.1459 70.5791 70.2339 70.5458 70.3079C70.5106 70.3829 70.4365 70.4302 70.355 70.4302ZM34.9504 70.0135H69.8939L68.093 67.9626H33.4448L34.9504 70.0135Z" fill="#F9FAFB"/>
<path d="M65.9771 41.8486C66.291 41.8486 66.5049 42.0931 66.4568 42.3959C66.4086 42.6968 66.116 42.9412 65.8031 42.9412H51.6327C51.5753 42.5718 51.4938 42.2051 51.3892 41.8486H65.9771Z" fill="#D0D5DD"/>
<path d="M65.803 43.1499H51.6327C51.5299 43.1499 51.4429 43.0749 51.4271 42.973C51.3716 42.6128 51.2919 42.2545 51.1892 41.9073C51.1706 41.8443 51.1827 41.7758 51.2225 41.724C51.2614 41.6712 51.3234 41.6406 51.3892 41.6406H65.978C66.191 41.6406 66.3873 41.7277 66.516 41.8786C66.6438 42.0286 66.6966 42.224 66.6632 42.4286C66.5984 42.8332 66.2206 43.1499 65.803 43.1499ZM51.8095 42.7332H65.803C66.0142 42.7332 66.2197 42.5638 66.2512 42.3628C66.2642 42.2804 66.2456 42.2045 66.1984 42.149C66.1484 42.0897 66.0697 42.0573 65.9771 42.0573H51.6623C51.7206 42.2804 51.7697 42.5064 51.8095 42.7332Z" fill="#D0D5DD"/>
<path d="M66.8649 36.2842C67.1788 36.2842 67.3927 36.5286 67.3445 36.8314C67.2964 37.1323 67.0038 37.3768 66.6908 37.3768H51.7936C51.4806 37.3768 51.2667 37.1323 51.3149 36.8314C51.363 36.5295 51.6547 36.2842 51.9676 36.2842H66.8649Z" fill="#D0D5DD"/>
<path d="M66.691 37.5855H51.7938C51.5808 37.5855 51.3854 37.4994 51.2567 37.3484C51.1289 37.1984 51.0771 37.004 51.1095 36.7994C51.1743 36.3947 51.5512 36.0771 51.9678 36.0771H66.8651C67.078 36.0771 67.2743 36.1642 67.403 36.3151C67.5308 36.4651 67.5836 36.6605 67.5502 36.8651C67.4864 37.2688 67.1086 37.5855 66.691 37.5855ZM51.9678 36.4929C51.7577 36.4929 51.553 36.6633 51.5206 36.8642C51.5077 36.9466 51.5262 37.0225 51.5734 37.0781C51.6234 37.1364 51.7012 37.1688 51.7938 37.1688H66.691C66.9021 37.1688 67.1077 36.9994 67.1391 36.7984C67.1521 36.716 67.1336 36.6401 67.0864 36.5846C67.0364 36.5253 66.9577 36.4929 66.8651 36.4929H51.9678Z" fill="#D0D5DD"/>
<path d="M63.3151 58.542C63.629 58.542 63.8429 58.7864 63.7948 59.0874C63.7466 59.3892 63.454 59.6346 63.1401 59.6346H41.1651C40.8531 59.6346 40.6383 59.3901 40.6864 59.0874C40.7346 58.7864 41.0272 58.542 41.3392 58.542H63.3151Z" fill="#D0D5DD"/>
<path d="M63.1407 59.8432H41.1648C40.9527 59.8432 40.7574 59.7571 40.6287 59.6062C40.5009 59.4562 40.4481 59.2608 40.4814 59.0553C40.5463 58.6506 40.9231 58.334 41.3398 58.334H63.3148C63.5277 58.334 63.724 58.421 63.8527 58.5719C63.9805 58.7219 64.0324 58.9164 64 59.121C63.9361 59.5256 63.5583 59.8432 63.1407 59.8432ZM41.3388 58.7506C41.1287 58.7506 40.924 58.9201 40.8916 59.121C40.8787 59.2034 40.8972 59.2803 40.9444 59.3358C40.9944 59.3951 41.0722 59.4275 41.1638 59.4275H63.1398C63.3509 59.4275 63.5564 59.2571 63.5879 59.0562C63.6009 58.9747 63.5824 58.8988 63.5351 58.8432C63.4851 58.784 63.4064 58.7516 63.3138 58.7516H41.3388V58.7506Z" fill="#D0D5DD"/>
<path d="M53.9683 46.1243C53.9516 46.0179 53.9331 45.9114 53.9127 45.8058C53.9109 45.7956 53.909 45.7854 53.9072 45.7753C53.9035 45.7558 53.8979 45.7364 53.8942 45.716C53.8766 45.6299 53.8572 45.5438 53.8368 45.4586C53.8294 45.4271 53.822 45.3947 53.8136 45.3632C53.7859 45.2521 53.7562 45.1419 53.7248 45.0327C53.6812 44.8836 53.6312 44.7364 53.5794 44.5901C53.5729 44.5716 53.5683 44.553 53.5609 44.5345C53.5544 44.5151 53.5451 44.4966 53.5386 44.478C53.4896 44.3447 53.4377 44.2132 53.3812 44.0827C53.3766 44.0706 53.372 44.0595 53.3664 44.0475C53.3053 43.9077 53.2386 43.7697 53.1701 43.6327C53.1618 43.6169 53.1553 43.6012 53.1479 43.5854C53.1368 43.5632 53.1229 43.541 53.1118 43.5188C53.0646 43.429 53.0155 43.341 52.9655 43.2521C52.9442 43.216 52.9248 43.179 52.9025 43.1429C52.8312 43.0225 52.7572 42.903 52.6785 42.7854C52.6785 42.7845 52.6775 42.7845 52.6775 42.7836C52.6118 42.6854 52.5442 42.5882 52.4738 42.4919L50.1386 39.3086C50.2099 39.4049 50.2775 39.503 50.3442 39.6021C50.4229 39.7197 50.497 39.8391 50.5683 39.9595C50.5896 39.9956 50.6099 40.0327 50.6312 40.0688C50.6812 40.1567 50.7303 40.2456 50.7775 40.3345C50.7979 40.3725 50.8173 40.4104 50.8368 40.4484C50.9062 40.5854 50.972 40.7234 51.0331 40.8632C51.0377 40.8743 51.0424 40.8864 51.047 40.8984C51.1035 41.029 51.1553 41.1604 51.2044 41.2938C51.2183 41.3308 51.2322 41.3688 51.2451 41.4058C51.297 41.5521 51.3461 41.6993 51.3896 41.8484C51.422 41.9577 51.4507 42.0679 51.4785 42.179C51.4868 42.2114 51.4942 42.2429 51.5016 42.2753C51.522 42.3604 51.5405 42.4456 51.5581 42.5317C51.5646 42.5623 51.5711 42.5919 51.5766 42.6225C51.597 42.728 51.6164 42.8345 51.6322 42.941C51.8581 44.3919 51.7257 45.9234 51.2516 47.4132C51.1359 47.7808 50.997 48.1456 50.8396 48.5058C50.8072 48.5799 50.7729 48.653 50.7396 48.7262C50.7127 48.7836 50.6859 48.841 50.6581 48.8984C50.6349 48.9456 50.6118 48.9938 50.5886 49.041C50.5599 49.0984 50.5303 49.1549 50.5007 49.2123C50.4766 49.2595 50.4516 49.3058 50.4266 49.3521C50.3961 49.4095 50.3646 49.466 50.3322 49.5234C50.3062 49.5697 50.2803 49.6151 50.2544 49.6614C50.2211 49.7179 50.1877 49.7753 50.1535 49.8317C50.1285 49.8734 50.1044 49.9141 50.0785 49.9558C49.9896 50.0993 49.8979 50.2419 49.8025 50.3827C49.784 50.4104 49.7646 50.4382 49.7451 50.4669C49.647 50.6104 49.5451 50.7521 49.4396 50.8929C49.4266 50.9095 49.4136 50.9262 49.4016 50.9419C49.3173 51.0521 49.2312 51.1614 49.1433 51.2697C49.1192 51.2993 49.0951 51.329 49.0701 51.3595C48.9701 51.4799 48.8673 51.6003 48.7618 51.7179C48.7451 51.7364 48.7285 51.754 48.7118 51.7725C48.6257 51.8679 48.5377 51.9614 48.4479 52.0549C48.4183 52.0864 48.3877 52.1169 48.3572 52.1475C48.2627 52.2438 48.1655 52.3401 48.0673 52.4336C48.0535 52.4475 48.0396 52.4614 48.0257 52.4743C47.9664 52.5299 47.9062 52.5845 47.8461 52.6401C47.8136 52.6697 47.7812 52.7003 47.7479 52.7299C47.6535 52.8141 47.5581 52.8966 47.4609 52.979C47.3396 53.0808 47.2192 53.1771 47.0998 53.2706C47.0914 53.2771 47.0831 53.2836 47.0748 53.2901C46.9627 53.3771 46.8516 53.4604 46.7405 53.5419C46.722 53.5558 46.7025 53.5697 46.684 53.5836C46.584 53.6558 46.484 53.7262 46.384 53.7938C46.2442 53.8891 46.1035 53.9817 45.9627 54.0706C45.8238 54.1577 45.684 54.241 45.5424 54.3216C45.5053 54.3429 45.4683 54.3623 45.4312 54.3836C45.3072 54.453 45.1831 54.5206 45.0581 54.5854C45.0109 54.6095 44.9636 54.6345 44.9164 54.6586C44.7794 54.728 44.6414 54.7938 44.5025 54.8577C44.4775 54.8688 44.4535 54.8808 44.4285 54.8919C44.3961 54.9067 44.3627 54.9206 44.3303 54.9345C44.2396 54.9743 44.1488 55.0141 44.0572 55.0512C44.0118 55.0697 43.9664 55.0873 43.9211 55.1058C43.8414 55.1373 43.7609 55.1688 43.6812 55.1993C43.6331 55.2179 43.584 55.2354 43.5359 55.253C43.4572 55.2817 43.3785 55.3086 43.2998 55.3354C43.2516 55.3521 43.2035 55.3678 43.1544 55.3836C43.0896 55.4049 43.0238 55.4243 42.959 55.4447C42.8794 55.4688 42.7988 55.4929 42.7192 55.516C42.6572 55.5336 42.5951 55.5503 42.5322 55.5669C42.4525 55.5882 42.3738 55.6086 42.2942 55.628C42.2312 55.6438 42.1683 55.6586 42.1062 55.6725C42.0266 55.691 41.947 55.7077 41.8674 55.7243C41.8053 55.7373 41.7423 55.7503 41.6803 55.7614C41.5998 55.7762 41.5192 55.791 41.4386 55.804C41.3775 55.8141 41.3155 55.8243 41.2544 55.8336C41.172 55.8456 41.0896 55.8567 41.0081 55.8679C40.9488 55.8753 40.8886 55.8836 40.8294 55.891C40.7433 55.9012 40.6581 55.9086 40.5729 55.916C40.5173 55.9206 40.4609 55.9271 40.4053 55.9308C40.3109 55.9382 40.2173 55.9429 40.1238 55.9475C40.0766 55.9503 40.0303 55.953 39.9831 55.9549C39.8424 55.9604 39.7025 55.9632 39.5627 55.9632C37.9692 55.9632 36.4312 55.6141 35.0822 54.916C34.6414 54.6882 34.2211 54.4225 33.8257 54.1197L36.1609 57.303C36.5562 57.6058 36.9766 57.8706 37.4174 58.0993C38.7655 58.7975 40.3044 59.1466 41.897 59.1466C42.0368 59.1466 42.1766 59.1438 42.3173 59.1382C42.3646 59.1364 42.4109 59.1327 42.4581 59.1308C42.5516 59.1262 42.6461 59.1216 42.7396 59.1141C42.7951 59.1095 42.8507 59.104 42.9062 59.0993C42.9924 59.0919 43.0775 59.0836 43.1636 59.0743C43.2229 59.0679 43.2822 59.0595 43.3414 59.0521C43.4238 59.041 43.5062 59.0308 43.5886 59.0178C43.6498 59.0086 43.7118 58.9984 43.7729 58.9882C43.8535 58.9743 43.934 58.9604 44.0146 58.9456C44.0766 58.9336 44.1396 58.9216 44.2016 58.9086C44.2812 58.8919 44.3609 58.8753 44.4405 58.8567C44.5035 58.8429 44.5655 58.828 44.6275 58.8123C44.7072 58.7929 44.7868 58.7725 44.8664 58.7512C44.9285 58.7345 44.9905 58.7179 45.0525 58.7003C45.1331 58.6771 45.2127 58.653 45.2933 58.629C45.3331 58.6169 45.3738 58.6058 45.4136 58.5938C45.4386 58.5854 45.4636 58.5771 45.4886 58.5688C45.5368 58.553 45.5849 58.5364 45.634 58.5206C45.7127 58.4938 45.7914 58.4669 45.8701 58.4382C45.9183 58.4206 45.9673 58.403 46.0155 58.3845C46.0961 58.3549 46.1757 58.3234 46.2553 58.291C46.3007 58.2725 46.3461 58.2549 46.3914 58.2364C46.4831 58.1984 46.5738 58.1595 46.6646 58.1197C46.697 58.1049 46.7303 58.0919 46.7627 58.0771C46.7683 58.0743 46.7748 58.0716 46.7803 58.0697C46.7988 58.0614 46.8174 58.0512 46.8359 58.0429C46.9748 57.979 47.1127 57.9132 47.2498 57.8438C47.297 57.8197 47.3442 57.7956 47.3914 57.7706C47.5164 57.7058 47.6414 57.6382 47.7646 57.5688C47.7914 57.554 47.8183 57.541 47.8442 57.5253C47.8544 57.5197 47.8655 57.5123 47.8757 57.5067C48.0164 57.4262 48.1572 57.3429 48.2961 57.2558C48.4377 57.1669 48.5775 57.0743 48.7173 56.979C48.7303 56.9706 48.7424 56.9623 48.7553 56.954C48.8424 56.8938 48.9303 56.8317 49.0173 56.7688C49.0359 56.7549 49.0553 56.741 49.0738 56.7271C49.1849 56.6456 49.2961 56.5623 49.4072 56.4753C49.4155 56.4688 49.4238 56.4623 49.4322 56.4558C49.4914 56.4095 49.5516 56.3623 49.6109 56.3132C49.6711 56.2641 49.7322 56.2142 49.7923 56.1632C49.8896 56.0808 49.9849 55.9984 50.0794 55.9141C50.1127 55.8845 50.1442 55.8549 50.1766 55.8253C50.2368 55.7697 50.2979 55.7151 50.3572 55.6586C50.3599 55.6558 50.3636 55.653 50.3664 55.6503C50.3775 55.6401 50.3877 55.629 50.3979 55.6188C50.497 55.5243 50.5933 55.428 50.6886 55.3317C50.7192 55.3012 50.7488 55.2697 50.7785 55.2391C50.8683 55.1456 50.9562 55.0521 51.0423 54.9567C51.0553 54.9429 51.0692 54.929 51.0812 54.9151C51.0849 54.9114 51.0877 54.9067 51.0914 54.903C51.197 54.7845 51.2998 54.6651 51.3998 54.5447C51.4248 54.5151 51.4488 54.4854 51.4729 54.4558C51.5609 54.3475 51.6479 54.2382 51.7312 54.128C51.7405 54.1151 51.7516 54.103 51.7609 54.0901C51.7636 54.0864 51.7664 54.0827 51.7692 54.079C51.8748 53.9382 51.9766 53.7966 52.0748 53.653C52.0942 53.6253 52.1127 53.5975 52.1322 53.5697C52.2275 53.428 52.3201 53.2854 52.409 53.1419C52.4146 53.1327 52.4211 53.1243 52.4266 53.1151C52.4461 53.0827 52.4646 53.0503 52.484 53.0179C52.5183 52.9614 52.5516 52.9049 52.5849 52.8475C52.6118 52.8012 52.6368 52.7549 52.6627 52.7095C52.6942 52.653 52.7257 52.5966 52.7562 52.5391C52.7812 52.4929 52.8062 52.4456 52.8303 52.3984C52.8599 52.3419 52.8896 52.2845 52.9173 52.2271C52.9414 52.1799 52.9646 52.1327 52.9877 52.0845C53.0155 52.0271 53.0423 51.9697 53.0692 51.9123C53.0803 51.8873 53.0933 51.8632 53.1044 51.8382C53.1266 51.7891 53.1479 51.741 53.1692 51.6919C53.3275 51.3317 53.4655 50.9669 53.5812 50.5993C54.0618 49.1077 54.1942 47.5762 53.9683 46.1243Z" fill="#D0D5DD"/>
<path d="M41.8967 59.3546C40.256 59.3546 38.6745 58.9843 37.3208 58.2833C36.8662 58.0482 36.4338 57.7741 36.0328 57.4676C36.0171 57.4556 36.0032 57.4417 35.9912 57.425L33.656 54.2417C33.5949 54.1584 33.6041 54.0426 33.6782 53.9695C33.7523 53.8972 33.868 53.8898 33.9504 53.9528C34.331 54.2445 34.743 54.5056 35.1764 54.7296C36.4708 55.4 37.9865 55.7537 39.5606 55.7537C39.6912 55.7537 39.8301 55.7509 39.9727 55.7454C39.9995 55.7445 40.0254 55.7426 40.0523 55.7408L40.1106 55.7371C40.2032 55.7324 40.2949 55.7278 40.3875 55.7204C40.4236 55.7176 40.4597 55.7139 40.4949 55.7111L40.5514 55.7056C40.6375 55.6982 40.7208 55.6898 40.8032 55.6806C40.8467 55.6759 40.8903 55.6695 40.9338 55.6639L40.9791 55.6584C41.0597 55.6482 41.1403 55.6371 41.2217 55.625C41.2754 55.6167 41.3301 55.6074 41.3838 55.5982L41.4023 55.5954C41.481 55.5824 41.5606 55.5685 41.6393 55.5537C41.7004 55.5417 41.7615 55.5296 41.8236 55.5167C41.9014 55.5009 41.9801 55.4833 42.0578 55.4658C42.1199 55.4519 42.181 55.4371 42.243 55.4222C42.3208 55.4028 42.3995 55.3833 42.4773 55.3621C42.5384 55.3454 42.5995 55.3296 42.6606 55.3121C42.7393 55.2898 42.818 55.2658 42.8967 55.2417L42.9227 55.2333C42.9782 55.2167 43.0338 55.1991 43.0884 55.1815C43.1365 55.1658 43.1838 55.15 43.231 55.1343C43.3088 55.1083 43.3856 55.0815 43.4634 55.0528C43.5106 55.0352 43.5588 55.0185 43.606 55C43.6847 54.9704 43.7634 54.9398 43.8421 54.9084L43.8782 54.8945C43.9106 54.8815 43.944 54.8685 43.9764 54.8556C44.0662 54.8185 44.1551 54.7796 44.2449 54.7408L44.2875 54.7222C44.3051 54.7148 44.3236 54.7065 44.3412 54.6991L44.4134 54.6648C44.5467 54.6037 44.6838 54.538 44.8199 54.4695C44.8662 54.4463 44.9134 54.4222 44.9597 54.3982C45.0819 54.3352 45.2051 54.2685 45.3273 54.2L45.3727 54.175C45.394 54.163 45.4153 54.1519 45.4365 54.1398C45.5884 54.0528 45.7236 53.9722 45.8495 53.8926C45.9782 53.8121 46.1134 53.7232 46.2643 53.6204C46.3625 53.5528 46.4615 53.4843 46.5597 53.413L46.6153 53.3722C46.7356 53.2843 46.843 53.2028 46.944 53.1241L46.969 53.1037C47.094 53.0056 47.2106 52.9111 47.3236 52.8167C47.419 52.7361 47.5125 52.6546 47.6051 52.5722C47.6245 52.5546 47.643 52.5371 47.6625 52.5195L47.7254 52.4621C47.7764 52.4158 47.8282 52.3685 47.8782 52.3213L47.9199 52.2815C48.0134 52.1917 48.1069 52.1 48.206 51.9991C48.2356 51.9685 48.2652 51.938 48.2949 51.9074C48.3828 51.8158 48.4699 51.7232 48.5541 51.6296L48.6032 51.5769C48.7014 51.4676 48.8004 51.3519 48.9069 51.2241L48.9791 51.1361C49.0708 51.0241 49.1541 50.9185 49.2328 50.8139L49.2708 50.7658C49.3671 50.638 49.4653 50.5009 49.5708 50.3472L49.6273 50.2648C49.7236 50.1232 49.8143 49.9815 49.8986 49.8454C49.9199 49.8102 49.9412 49.775 49.9625 49.7398L49.9717 49.7241C50.0051 49.6685 50.0384 49.613 50.0708 49.5565C50.094 49.5167 50.1162 49.4769 50.1384 49.4371L50.1477 49.4204C50.1791 49.3648 50.2097 49.3084 50.2403 49.2528C50.2653 49.2074 50.2893 49.1611 50.3134 49.1148C50.3421 49.0593 50.3708 49.0028 50.3995 48.9472C50.4227 48.9009 50.4458 48.8546 50.468 48.8074C50.4949 48.7509 50.5217 48.6954 50.5477 48.6389L50.556 48.6195C50.5865 48.5537 50.6171 48.488 50.6458 48.4222C50.8023 48.0648 50.9393 47.7046 51.0504 47.35C51.5143 45.8945 51.643 44.3815 51.4236 42.9732C51.4088 42.8769 51.3912 42.775 51.369 42.6621L51.3504 42.5732C51.3328 42.4889 51.3153 42.4056 51.2949 42.3222L51.2717 42.2278C51.2412 42.1046 51.2134 42.0019 51.1847 41.9065C51.1467 41.7778 51.1023 41.6408 51.043 41.4741C51.0301 41.438 51.0171 41.4009 51.0032 41.3648C50.9504 41.2232 50.9004 41.0972 50.8495 40.9796L50.8356 40.9454C50.7819 40.8222 50.7199 40.6908 50.644 40.5417C50.6254 40.5046 50.606 40.4676 50.5865 40.4306C50.5402 40.3435 50.493 40.2574 50.444 40.1713L50.4245 40.138C50.4106 40.1139 50.3967 40.0889 50.3819 40.0648C50.3041 39.9343 50.2328 39.8204 50.1634 39.7167C50.0986 39.6195 50.031 39.5232 49.9634 39.4306C49.8958 39.338 49.9152 39.2074 50.0078 39.1398C50.1004 39.0722 50.231 39.0917 50.2986 39.1843L50.2995 39.1852L52.6338 42.3676C52.7051 42.4648 52.7754 42.5658 52.843 42.6667C52.844 42.6685 52.8449 42.6704 52.8467 42.6722C52.9199 42.7824 52.994 42.9009 53.0745 43.0352C53.0902 43.0611 53.1041 43.0871 53.119 43.1121L53.1384 43.1463C53.1902 43.2371 53.2402 43.3278 53.2884 43.4195L53.3014 43.4435C53.3097 43.4583 53.318 43.4732 53.3254 43.488C53.331 43.4982 53.3356 43.5093 53.3402 43.5195L53.3477 43.5361C53.4264 43.6917 53.4921 43.8306 53.5495 43.9621L53.5643 43.9972C53.619 44.125 53.6717 44.2574 53.7264 44.4037L53.7338 44.4232C53.7393 44.4361 53.7449 44.4491 53.7495 44.463C53.7541 44.475 53.7578 44.488 53.7615 44.5009L53.768 44.5204C53.8291 44.6917 53.8764 44.8361 53.9162 44.9732C53.9458 45.0741 53.9745 45.1815 54.0078 45.3111C54.0143 45.3361 54.0199 45.3621 54.0264 45.3871L54.0319 45.4093C54.0532 45.4972 54.0727 45.5852 54.0903 45.6732L54.0958 45.6963C54.0986 45.7084 54.1014 45.7204 54.1041 45.7334L54.1097 45.7658C54.1328 45.8861 54.1514 45.9926 54.1671 46.0926C54.3958 47.5648 54.2625 49.1435 53.7791 50.6593C53.6634 51.0259 53.5217 51.4009 53.3588 51.7722C53.3375 51.8213 53.3152 51.8713 53.293 51.9204C53.2856 51.9361 53.2791 51.9509 53.2717 51.9658L53.2569 51.9963C53.2301 52.0546 53.2023 52.113 53.1745 52.1704C53.1514 52.2195 53.1273 52.2676 53.1032 52.3158C53.0745 52.3741 53.0449 52.4315 53.0143 52.4898C52.9893 52.538 52.9643 52.5852 52.9384 52.6334C52.9069 52.6917 52.8754 52.7491 52.843 52.8065L52.8291 52.8315C52.8078 52.8704 52.7856 52.9093 52.7634 52.9472C52.7301 53.0056 52.6958 53.063 52.6606 53.1204L52.6365 53.1602C52.6254 53.1796 52.6134 53.1991 52.6023 53.2185L52.5893 53.2389C52.4967 53.388 52.4023 53.5343 52.3032 53.6806L52.2449 53.7648C52.1347 53.925 52.0328 54.0667 51.9338 54.1982L51.8949 54.2491C51.8134 54.3556 51.7254 54.4685 51.6319 54.5824L51.6227 54.5945C51.6014 54.6204 51.5801 54.6472 51.5578 54.6732C51.4477 54.8056 51.3458 54.925 51.244 55.038L51.2328 55.0509C51.2254 55.0593 51.2171 55.0685 51.2088 55.0769L51.193 55.0935C51.1051 55.1898 51.0162 55.2852 50.9254 55.3796C50.8949 55.4111 50.8643 55.4426 50.8338 55.4741C50.731 55.5787 50.6338 55.6741 50.5384 55.7658L50.5273 55.7769C50.5199 55.7843 50.5134 55.7908 50.506 55.7982C50.5051 55.7991 50.4986 55.8046 50.4977 55.8056C50.4458 55.8546 50.393 55.9028 50.3403 55.9509L50.2764 56.0102C50.256 56.0287 50.2356 56.0482 50.2143 56.0667C50.119 56.1519 50.0217 56.2361 49.9227 56.3195C49.8606 56.3713 49.7995 56.4222 49.7384 56.4713C49.6773 56.5204 49.6171 56.5685 49.5569 56.6158L49.5319 56.6361C49.4264 56.7185 49.3153 56.8028 49.193 56.8917L49.1356 56.9343C49.0467 56.9982 48.9578 57.0621 48.869 57.1232C48.8606 57.1287 48.8523 57.1343 48.844 57.1398L48.8301 57.1491C48.6754 57.2546 48.5347 57.3463 48.4014 57.4306C48.269 57.5139 48.1291 57.5972 47.9745 57.6861L47.9421 57.7056C47.9264 57.7148 47.9097 57.7232 47.894 57.7315C47.8828 57.7371 47.8717 57.7426 47.8615 57.7491C47.7347 57.8204 47.6069 57.8889 47.4819 57.9537C47.4338 57.9787 47.3856 58.0037 47.3375 58.0278C47.1958 58.0991 47.0541 58.1667 46.9171 58.2296L46.8958 58.2398C46.8838 58.2454 46.8717 58.2519 46.8597 58.2565L46.8467 58.2621C46.8217 58.2732 46.8014 58.2824 46.781 58.2908L46.7421 58.3074C46.6495 58.3482 46.5569 58.388 46.4643 58.4259C46.4319 58.4398 46.3986 58.4528 46.3653 58.4658L46.3264 58.4815C46.2449 58.5139 46.1634 58.5454 46.0819 58.5759C46.0328 58.5945 45.9838 58.6121 45.9347 58.6306C45.8551 58.6593 45.7745 58.6871 45.6949 58.7148C45.644 58.7315 45.5958 58.7482 45.5477 58.7639L45.5162 58.7741C45.5014 58.7796 45.4856 58.7843 45.4708 58.7889C45.4467 58.7963 45.4227 58.8037 45.3977 58.8102L45.3486 58.825C45.2671 58.85 45.1856 58.8741 45.1041 58.8972C45.0412 58.9148 44.9782 58.9324 44.9153 58.9491C44.8338 58.9704 44.7532 58.9917 44.6717 59.0111C44.6088 59.0269 44.5449 59.0417 44.481 59.0565C44.3995 59.075 44.319 59.0926 44.2375 59.1093C44.1736 59.1222 44.1106 59.1352 44.0467 59.1472C43.9652 59.163 43.8828 59.1769 43.8004 59.1908L43.7791 59.1945C43.7236 59.2037 43.669 59.213 43.6134 59.2213C43.5291 59.2343 43.4458 59.2454 43.3615 59.2556L43.3162 59.2611C43.2708 59.2667 43.2254 59.2732 43.181 59.2778C43.094 59.288 43.0069 59.2954 42.9199 59.3037L42.8643 59.3093C42.8254 59.313 42.7875 59.3167 42.7486 59.3195C42.6523 59.3269 42.5569 59.3315 42.4615 59.3361L42.4078 59.3389C42.3782 59.3408 42.3486 59.3426 42.319 59.3435C42.1773 59.3519 42.0328 59.3546 41.8967 59.3546ZM36.3106 57.1546C36.6847 57.4389 37.0893 57.6935 37.5134 57.913C38.8078 58.5833 40.3236 58.9371 41.8977 58.9371C42.0282 58.9371 42.1671 58.9343 42.3097 58.9287C42.3365 58.9278 42.3634 58.9259 42.3903 58.9241L42.4477 58.9204C42.5403 58.9158 42.6319 58.9111 42.7245 58.9037C42.7606 58.9009 42.7967 58.8972 42.8328 58.8945L42.8893 58.8889C42.9745 58.8815 43.0578 58.8732 43.1421 58.8639C43.1847 58.8593 43.2273 58.8537 43.2708 58.8482L43.3171 58.8417C43.3977 58.8315 43.4791 58.8204 43.5597 58.8084C43.6125 58.8 43.6662 58.7917 43.719 58.7824L43.7403 58.7787C43.8199 58.7658 43.8986 58.7519 43.9773 58.7371C44.0384 58.725 44.0995 58.713 44.1615 58.7C44.2403 58.6843 44.318 58.6667 44.3967 58.6491C44.4578 58.6352 44.5199 58.6204 44.581 58.6056C44.6597 58.5861 44.7375 58.5658 44.8162 58.5454C44.8773 58.5287 44.9384 58.513 44.9986 58.4954C45.0773 58.4732 45.156 58.4491 45.2347 58.425L45.2903 58.4084C45.3115 58.4019 45.3319 58.3963 45.3523 58.3898L45.4264 58.3648C45.4727 58.35 45.5199 58.3343 45.5662 58.3185C45.6458 58.2917 45.7236 58.2648 45.8004 58.2371C45.8477 58.2195 45.8958 58.2028 45.943 58.1843C46.0217 58.1546 46.1004 58.1241 46.1791 58.0926L46.219 58.0769C46.2504 58.0648 46.281 58.0519 46.3125 58.0398C46.4023 58.0028 46.4921 57.9639 46.581 57.925L46.6236 57.9065C46.6421 57.8991 46.6597 57.8908 46.6773 57.8833L46.718 57.8648C46.7291 57.8593 46.7393 57.8546 46.7504 57.8491C46.8828 57.788 47.0199 57.7222 47.1578 57.6537C47.2051 57.6306 47.2514 57.6065 47.2977 57.5824C47.419 57.5195 47.5421 57.4528 47.6653 57.3843C47.6791 57.3769 47.693 57.3695 47.7069 57.3621C47.719 57.3556 47.731 57.3491 47.743 57.3426L47.7736 57.3241C47.9245 57.238 48.0597 57.1565 48.1875 57.0769C48.3162 56.9963 48.4523 56.9074 48.6023 56.8046L48.6393 56.7806C48.7254 56.7213 48.8115 56.6602 48.8977 56.5982L48.9541 56.5565C49.0727 56.4695 49.1801 56.3889 49.2819 56.3084L49.3069 56.288C49.3643 56.2426 49.4236 56.1963 49.4828 56.1482C49.5421 56.1 49.6023 56.0509 49.6615 56.0009C49.7569 55.9204 49.8504 55.8389 49.943 55.7565C49.9625 55.7398 49.981 55.7222 49.9986 55.7056L50.0652 55.6445C50.1152 55.5982 50.1662 55.5528 50.2152 55.5056C50.2162 55.5046 50.2208 55.5 50.2227 55.4991L50.2569 55.4658C50.3495 55.3778 50.443 55.2852 50.543 55.1834C50.5727 55.1528 50.6023 55.1222 50.6319 55.0917C50.7199 55 50.8069 54.9074 50.8912 54.8139L50.9403 54.7602C51.0375 54.6509 51.1375 54.5361 51.244 54.4074C51.2653 54.3824 51.2856 54.3574 51.306 54.3315L51.3162 54.3195C51.406 54.2093 51.4921 54.1 51.5708 53.9972L51.6088 53.9482C51.7041 53.8222 51.8023 53.6852 51.9088 53.5306L51.9643 53.4491C52.0606 53.3074 52.1514 53.1658 52.2365 53.0287L52.2532 53.0028C52.2634 52.9861 52.2736 52.9685 52.2838 52.9509L52.3097 52.9074C52.343 52.8519 52.3764 52.7963 52.4088 52.7408C52.4301 52.7037 52.4514 52.6667 52.4717 52.6287L52.4856 52.6037C52.5162 52.5482 52.5477 52.4926 52.5773 52.4371C52.6023 52.3908 52.6264 52.3454 52.6504 52.2991C52.6791 52.2435 52.7078 52.188 52.7356 52.1315C52.7588 52.0843 52.7819 52.038 52.8051 51.9908C52.8319 51.9352 52.8588 51.8787 52.8847 51.8222L52.9199 51.7491C52.9412 51.7019 52.9625 51.6546 52.9838 51.6065C53.1412 51.2482 53.2773 50.888 53.3884 50.5343C53.8523 49.0787 53.981 47.5658 53.7615 46.1574C53.7467 46.063 53.7291 45.9621 53.7069 45.8472L53.6893 45.7593C53.6717 45.675 53.6532 45.5917 53.6338 45.5084L53.6282 45.4852C53.6227 45.4621 53.6171 45.438 53.6115 45.4148C53.5801 45.2908 53.5523 45.188 53.5245 45.0926C53.4865 44.9621 53.4412 44.825 53.3828 44.6611C53.3791 44.6491 53.3754 44.6389 53.3717 44.6278C53.3699 44.6213 53.3671 44.6139 53.3653 44.6074C53.3625 44.6 53.3597 44.5935 53.3569 44.5871C53.3523 44.5759 53.3477 44.5639 53.343 44.5528C53.2912 44.4139 53.2412 44.2871 53.1893 44.1676L53.1754 44.1334C53.1217 44.0093 53.0588 43.8769 52.9838 43.7287C52.9791 43.7195 52.9736 43.7083 52.969 43.6982L52.9615 43.6815C52.9569 43.6722 52.9514 43.6621 52.9458 43.6528C52.9393 43.6417 52.9328 43.6296 52.9264 43.6176C52.8801 43.5296 52.8328 43.4435 52.7838 43.3574L52.7634 43.3213C52.7504 43.2982 52.7365 43.2741 52.7227 43.2509C52.6449 43.1204 52.5736 43.0056 52.5041 42.9028C52.5032 42.9019 52.5023 42.9 52.5014 42.8982C52.4375 42.8028 52.3708 42.7083 52.3041 42.6167L51.5069 41.5296C51.5384 41.6232 51.5653 41.7093 51.5893 41.7917C51.619 41.8926 51.6486 42 51.681 42.1296L51.7051 42.2278C51.7254 42.3158 51.7449 42.4028 51.7634 42.4908L51.7828 42.5834C51.806 42.7019 51.8245 42.8084 51.8402 42.9102C52.069 44.3824 51.9347 45.9611 51.4523 47.4769C51.3365 47.8445 51.1949 48.2195 51.0319 48.5898C51.0023 48.6583 50.9699 48.7269 50.9384 48.7954L50.9301 48.8139C50.9032 48.8722 50.8754 48.9306 50.8477 48.9889C50.8245 49.0371 50.8004 49.0852 50.7764 49.1343C50.7467 49.1926 50.7171 49.2509 50.6875 49.3083C50.6625 49.3556 50.6375 49.4037 50.6125 49.4509C50.581 49.5093 50.5486 49.5667 50.5162 49.625L50.5069 49.6417C50.4838 49.6834 50.4606 49.7241 50.4365 49.7658C50.4032 49.8241 50.369 49.8815 50.3338 49.9389L50.3245 49.9546C50.3023 49.9917 50.2801 50.0287 50.2578 50.0648C50.1708 50.2065 50.0764 50.3528 49.9764 50.5L49.918 50.5852C49.8088 50.7445 49.7069 50.8861 49.6069 51.0185L49.568 51.0685C49.4856 51.1769 49.3995 51.2861 49.3051 51.4019L49.2301 51.4926C49.1208 51.625 49.018 51.7435 48.9162 51.8565L48.8653 51.9111C48.7773 52.0074 48.6884 52.1028 48.5967 52.1982C48.5662 52.2296 48.5356 52.2611 48.5051 52.2926C48.4032 52.3963 48.3069 52.4917 48.2097 52.5843L48.1671 52.6259C48.1152 52.675 48.0625 52.7232 48.0088 52.7722L47.9486 52.8278C47.9273 52.8472 47.9069 52.8667 47.8856 52.8852C47.7903 52.9704 47.693 53.0546 47.594 53.138C47.4764 53.2361 47.3569 53.3333 47.2273 53.4343L47.2023 53.4546C47.0977 53.5361 46.9865 53.6204 46.8634 53.7102L46.806 53.7528C46.7041 53.8269 46.6023 53.8972 46.5014 53.9667C46.3467 54.0722 46.206 54.1639 46.0727 54.2482C45.9412 54.3306 45.8014 54.4139 45.6458 54.5037C45.6227 54.5167 45.5995 54.5296 45.5754 54.5426L45.5328 54.5667C45.4069 54.6371 45.2791 54.7065 45.1532 54.7713C45.1051 54.7963 45.0569 54.8213 45.0088 54.8454C44.8671 54.9167 44.7264 54.9843 44.5884 55.0472L44.556 55.0621C44.5421 55.0685 44.5273 55.0759 44.5134 55.0824C44.493 55.0917 44.4727 55.1 44.4523 55.1093L44.4125 55.1259C44.3199 55.1667 44.2273 55.2065 44.1347 55.2445C44.1004 55.2583 44.0662 55.2722 44.031 55.2861L43.9958 55.3C43.9143 55.3324 43.8338 55.3639 43.7514 55.3945C43.7023 55.413 43.6532 55.4306 43.6032 55.4491C43.5236 55.4778 43.443 55.5056 43.3634 55.5324C43.3143 55.5491 43.2652 55.5658 43.2162 55.5815C43.1588 55.6 43.1004 55.6176 43.043 55.6352L43.0171 55.6426C42.9356 55.6676 42.8541 55.6917 42.7727 55.7148C42.7097 55.7324 42.6458 55.75 42.5828 55.7667C42.5023 55.788 42.4217 55.8093 42.3403 55.8287C42.2764 55.8445 42.2125 55.8593 42.1486 55.8741C42.068 55.8926 41.9865 55.9102 41.906 55.9269C41.843 55.9398 41.7791 55.9528 41.7153 55.9648C41.6328 55.9806 41.5514 55.9945 41.469 56.0083L41.4504 56.0111C41.394 56.0204 41.3375 56.0296 41.281 56.0389C41.1967 56.0519 41.1134 56.063 41.0301 56.0732L40.9856 56.0787C40.9393 56.0852 40.894 56.0908 40.8486 56.0963C40.7625 56.1065 40.6764 56.1139 40.5903 56.1222L40.5328 56.1278C40.494 56.1315 40.4551 56.1352 40.4171 56.138C40.3217 56.1454 40.2264 56.15 40.131 56.1546L40.0764 56.1574C40.0467 56.1593 40.0171 56.1611 39.9875 56.1621C39.8393 56.1676 39.6958 56.1704 39.5597 56.1704C37.919 56.1704 36.3375 55.8 34.9838 55.0991C34.881 55.0463 34.7801 54.9908 34.6801 54.9343L36.3106 57.1546Z" fill="#F9FAFB"/>
<path d="M81.0619 60.0251C81.8228 60.0251 82.4396 59.4082 82.4396 58.6473C82.4396 57.8864 81.8228 57.2695 81.0619 57.2695C80.3009 57.2695 79.6841 57.8864 79.6841 58.6473C79.6841 59.4082 80.3009 60.0251 81.0619 60.0251Z" fill="#F9FAFB"/>
<path d="M23.1234 54.9421C23.8843 54.9421 24.5012 54.3252 24.5012 53.5643C24.5012 52.8034 23.8843 52.1865 23.1234 52.1865C22.3625 52.1865 21.7456 52.8034 21.7456 53.5643C21.7456 54.3252 22.3625 54.9421 23.1234 54.9421Z" fill="#F9FAFB"/>
<path d="M23.8133 56.0553C24.0813 56.0553 24.2985 55.8381 24.2985 55.5701C24.2985 55.3022 24.0813 55.085 23.8133 55.085C23.5454 55.085 23.3281 55.3022 23.3281 55.5701C23.3281 55.8381 23.5454 56.0553 23.8133 56.0553Z" fill="#F9FAFB"/>
<path d="M30.6444 37.613C31.4053 37.613 32.0222 36.9961 32.0222 36.2352C32.0222 35.4743 31.4053 34.8574 30.6444 34.8574C29.8835 34.8574 29.2666 35.4743 29.2666 36.2352C29.2666 36.9961 29.8835 37.613 30.6444 37.613Z" fill="#F9FAFB"/>
<path d="M32.2542 35.3385C32.5222 35.3385 32.7394 35.1213 32.7394 34.8534C32.7394 34.5854 32.5222 34.3682 32.2542 34.3682C31.9863 34.3682 31.769 34.5854 31.769 34.8534C31.769 35.1213 31.9863 35.3385 32.2542 35.3385Z" fill="#F9FAFB"/>
<path d="M84.5999 30.3579C85.909 30.3579 86.9702 29.2967 86.9702 27.9876C86.9702 26.6784 85.909 25.6172 84.5999 25.6172C83.2907 25.6172 82.2295 26.6784 82.2295 27.9876C82.2295 29.2967 83.2907 30.3579 84.5999 30.3579Z" fill="#E4E7EC"/>
<path d="M82.2298 26.816C82.8531 26.816 83.3585 26.3107 83.3585 25.6873C83.3585 25.0639 82.8531 24.5586 82.2298 24.5586C81.6064 24.5586 81.1011 25.0639 81.1011 25.6873C81.1011 26.3107 81.6064 26.816 82.2298 26.816Z" fill="#F9FAFB"/>
</svg>
