<svg width="35" height="35" viewBox="0 0 35 35" fill="none" xmlns="http://www.w3.org/2000/svg">
<circle cx="17.5" cy="17.5" r="17.5" fill="#F3B923"/>
<circle cx="17.5" cy="17.5" r="17.5" fill="#F3B923"/>
<path d="M19.629 17.316C21.4997 17.316 23.0214 16.7293 23.0214 16.0081C23.0214 15.2869 21.4997 14.7002 19.629 14.7002C17.7583 14.7002 16.2363 15.2869 16.2363 16.0081C16.2363 16.7293 17.7583 17.316 19.629 17.316ZM19.2272 15.2393V15.2038C19.2272 15.1182 19.407 15.0489 19.629 15.0489C19.8508 15.0489 20.0308 15.1182 20.0308 15.2038V15.2395C20.5089 15.2791 20.8687 15.4433 20.8687 15.6393C20.8687 15.7248 20.6887 15.7941 20.4669 15.7941C20.2448 15.7941 20.0651 15.7248 20.0651 15.6393C20.0651 15.5846 19.9496 15.5401 19.8079 15.5401H19.4477C19.306 15.5401 19.1905 15.5846 19.1905 15.6393C19.1905 15.6705 19.2294 15.7003 19.2947 15.7189L19.629 15.8143L20.4412 16.046C20.708 16.1221 20.8687 16.2438 20.8708 16.3719V16.3733C20.8727 16.4826 20.7642 16.5856 20.5649 16.6634C20.4171 16.7211 20.2322 16.7598 20.0308 16.7762V16.8124C20.0308 16.898 19.8508 16.9673 19.629 16.9673C19.407 16.9673 19.2272 16.898 19.2272 16.8124V16.7767C19.0312 16.7606 18.8509 16.7234 18.7052 16.6678C18.5035 16.5911 18.3915 16.4887 18.3899 16.3794C18.3886 16.2939 18.5672 16.2241 18.789 16.2236H18.7917C19.0124 16.2236 19.1921 16.2924 19.1935 16.3776C19.194 16.431 19.3056 16.4761 19.452 16.4761C19.674 16.4756 19.5913 16.4758 19.8117 16.4753C19.9543 16.4748 20.0683 16.4302 20.0672 16.3754V16.374C20.0667 16.343 20.0279 16.3134 19.963 16.295L19.629 16.1997L18.8166 15.9679C18.5477 15.8911 18.387 15.7682 18.387 15.6393C18.387 15.4428 18.7478 15.2786 19.2272 15.2393Z" fill="white"/>
<path d="M14.1315 18.0605C14.0286 17.9916 13.7998 17.9677 13.6201 18.0076L11.7302 18.4282C11.5512 18.4682 11.4898 18.5564 11.5931 18.6255L13.5248 19.9152C13.6282 19.9842 13.8569 20.0079 14.0362 19.9681L15.9261 19.5474C16.1054 19.5075 16.1665 19.4193 16.0632 19.3502L14.1315 18.0605Z" fill="white"/>
<path d="M24.9605 17.8022C24.7786 17.7048 24.4266 17.6828 24.1743 17.753C23.4088 17.9656 21.9387 18.3739 21.822 18.4064C21.7681 18.424 21.7116 18.4401 21.6527 18.4542C21.4215 18.5103 21.1534 18.5402 20.8735 18.5402H18.9489C18.7271 18.5402 18.5471 18.4709 18.5471 18.3853C18.5471 18.2996 18.7274 18.2304 18.9489 18.2304H21.0071C21.3096 18.2304 21.5517 18.1334 21.5391 18.0166C21.5273 17.9058 21.282 17.8199 20.9943 17.8199H19.4276C19.3215 17.7766 19.2053 17.7369 19.0807 17.7015C18.6524 17.5798 18.1231 17.5078 17.5502 17.5078C16.5315 17.5078 15.5179 17.7552 15.0977 18.0855L16.7412 19.1828H19.8243C20.4296 19.1828 21.0259 19.1231 21.5506 19.0068C21.7325 18.9665 21.9272 18.9181 22.1383 18.8596C23.0228 18.6147 24.8311 18.1058 24.8324 18.1055C25.0853 18.0355 25.1426 17.8996 24.9605 17.8022Z" fill="white"/>
</svg>
