<svg width="41" height="40" viewBox="0 0 41 40" fill="none" xmlns="http://www.w3.org/2000/svg">
<path d="M12 24L16.5858 19.4142C17.3668 18.6332 18.6332 18.6332 19.4142 19.4142L24 24M22 22L23.5858 20.4142C24.3668 19.6332 25.6332 19.6332 26.4142 20.4142L28 22M22 16H22.01M14 28H26C27.1046 28 28 27.1046 28 26V14C28 12.8954 27.1046 12 26 12H14C12.8954 12 12 12.8954 12 14V26C12 27.1046 12.8954 28 14 28Z" stroke="#6C6C6C" stroke-width="1.5" stroke-linecap="round" stroke-linejoin="round"/>
<path d="M12 24L16.5858 19.4142C17.3668 18.6332 18.6332 18.6332 19.4142 19.4142L24 24M22 22L23.5858 20.4142C24.3668 19.6332 25.6332 19.6332 26.4142 20.4142L28 22M22 16H22.01M14 28H26C27.1046 28 28 27.1046 28 26V14C28 12.8954 27.1046 12 26 12H14C12.8954 12 12 12.8954 12 14V26C12 27.1046 12.8954 28 14 28Z" stroke="black" stroke-opacity="0.2" stroke-width="1.5" stroke-linecap="round" stroke-linejoin="round"/>
</svg>
