<svg width="68" height="68" viewBox="0 0 68 68" fill="none" xmlns="http://www.w3.org/2000/svg">
<rect width="68" height="68" rx="6" fill="#FF9900" fill-opacity="0.1"/>
<path d="M34 50C42.8366 50 50 42.8366 50 34C50 25.1634 42.8366 18 34 18C25.1634 18 18 25.1634 18 34C18 42.8366 25.1634 50 34 50Z" fill="#F4B513"/>
<path d="M34.5 25.6925V32.3848" stroke="white" stroke-width="2.23077" stroke-linecap="round" stroke-linejoin="round"/>
<path d="M34.5002 40.1924C35.1162 40.1924 35.6155 39.6931 35.6155 39.0771C35.6155 38.461 35.1162 37.9617 34.5002 37.9617C33.8841 37.9617 33.3848 38.461 33.3848 39.0771C33.3848 39.6931 33.8841 40.1924 34.5002 40.1924Z" stroke="white" stroke-width="2.23077" stroke-linecap="round" stroke-linejoin="round"/>
</svg>
