<svg width="56" height="56" viewBox="0 0 56 56" fill="none" xmlns="http://www.w3.org/2000/svg">
<circle cx="28" cy="28" r="28" fill="#FCF3F4"/>
<g clip-path="url(#clip0_9_730)">
<path fill-rule="evenodd" clip-rule="evenodd" d="M33.4482 29.3184C35.0466 30.4034 36.1666 31.8734 36.1666 33.8334V37.3334H39.6666C40.3082 37.3334 40.8332 36.8084 40.8332 36.1667V33.8334C40.8332 31.29 36.6682 29.785 33.4482 29.3184Z" fill="#F3B923"/>
<path d="M24.5007 27.9993C27.078 27.9993 29.1673 25.91 29.1673 23.3327C29.1673 20.7554 27.078 18.666 24.5007 18.666C21.9233 18.666 19.834 20.7554 19.834 23.3327C19.834 25.91 21.9233 27.9993 24.5007 27.9993Z" fill="#F3B923"/>
<path fill-rule="evenodd" clip-rule="evenodd" d="M31.5009 27.9993C34.0792 27.9993 36.1676 25.911 36.1676 23.3327C36.1676 20.7543 34.0792 18.666 31.5009 18.666C30.9526 18.666 30.4392 18.7827 29.9492 18.946C30.9176 20.1477 31.5009 21.676 31.5009 23.3327C31.5009 24.9893 30.9176 26.5177 29.9492 27.7193C30.4392 27.8827 30.9526 27.9993 31.5009 27.9993Z" fill="#F3B923"/>
<path fill-rule="evenodd" clip-rule="evenodd" d="M24.5003 29.166C21.3853 29.166 15.167 30.7293 15.167 33.8327V36.166C15.167 36.8077 15.692 37.3327 16.3337 37.3327H32.667C33.3087 37.3327 33.8337 36.8077 33.8337 36.166V33.8327C33.8337 30.7293 27.6153 29.166 24.5003 29.166Z" fill="#F3B923"/>
</g>
<defs>
<clipPath id="clip0_9_730">
<rect width="28" height="28" fill="white" transform="translate(14 14)"/>
</clipPath>
</defs>
</svg>
