<svg width="64" height="64" viewBox="0 0 64 64" fill="none" xmlns="http://www.w3.org/2000/svg">
<rect width="64" height="64" rx="5.81818" fill="#FCF3F4"/>
<path fill-rule="evenodd" clip-rule="evenodd" d="M26.8213 30.5319V29.0701H28.2136V25.75H28.7263L31.3989 29.0701H34.283V25.9165H35.7518V29.0701H37.1454V30.5319H35.7518V32.4496H37.1454V33.9114H35.7518V36.0741H35.253L33.5154 33.9114H29.6824V35.9076H28.2136V33.9114H26.8213V32.4496H28.2136V30.5319H26.8213ZM29.6824 30.5319V32.4496H32.3409L30.8001 30.5319H29.6824ZM32.5756 30.5319L34.1193 32.4496H34.283V30.5319H32.5756Z" fill="#A90836"/>
<path d="M33.5177 48.1607C33.5177 48.999 32.8381 49.6786 31.9999 49.6786C31.1616 49.6786 30.482 48.999 30.482 48.1607C30.482 47.3224 31.1616 46.6429 31.9999 46.6429C32.8381 46.6429 33.5177 47.3224 33.5177 48.1607Z" fill="#A90836"/>
<path fill-rule="evenodd" clip-rule="evenodd" d="M43.4284 49.3214C43.4284 50.8008 42.2292 52 40.7499 52H23.2499C21.7705 52 20.5713 50.8008 20.5713 49.3214V14.6786C20.5713 13.1992 21.7705 12 23.2499 12H40.7499C42.2292 12 43.4284 13.1992 43.4284 14.6786V49.3214ZM40.7499 13.0714H23.2499C22.3623 13.0714 21.6427 13.791 21.6427 14.6786V15.125L42.357 15.125V14.6786C42.357 13.791 41.6375 13.0714 40.7499 13.0714ZM21.6427 16.1964V44.5893L42.357 44.5893V16.1964L21.6427 16.1964ZM42.357 49.3214V45.6607H21.6427V49.3214C21.6427 50.209 22.3623 50.9286 23.2499 50.9286H40.7499C41.6375 50.9286 42.357 50.209 42.357 49.3214Z" fill="#A90836"/>
</svg>
