<svg width="56" height="56" viewBox="0 0 56 56" fill="none" xmlns="http://www.w3.org/2000/svg">
<circle cx="28" cy="28" r="28" fill="#FCF3F4"/>
<g clip-path="url(#clip0_9_4153)">
<path d="M18 36H38V38H18V36ZM20 28H22V35H20V28ZM25 28H27V35H25V28ZM29 28H31V35H29V28ZM34 28H36V35H34V28ZM18 23L28 18L38 23V27H18V23ZM28 24C28.2652 24 28.5196 23.8946 28.7071 23.7071C28.8946 23.5196 29 23.2652 29 23C29 22.7348 28.8946 22.4804 28.7071 22.2929C28.5196 22.1054 28.2652 22 28 22C27.7348 22 27.4804 22.1054 27.2929 22.2929C27.1054 22.4804 27 22.7348 27 23C27 23.2652 27.1054 23.5196 27.2929 23.7071C27.4804 23.8946 27.7348 24 28 24Z" fill="#F3B923"/>
</g>
<defs>
<clipPath id="clip0_9_4153">
<rect width="24" height="24" fill="white" transform="translate(16 16)"/>
</clipPath>
</defs>
</svg>
