<svg width="56" height="56" viewBox="0 0 56 56" fill="none" xmlns="http://www.w3.org/2000/svg">
<circle cx="28" cy="28" r="28" fill="#FCF3F4"/>
<g clip-path="url(#clip0_9_736)">
<path d="M20.7576 24.5891H21.0312C22.0849 24.5891 22.947 25.4512 22.947 26.5049V36.0837C22.947 37.1373 22.0849 37.9994 21.0312 37.9994H20.7576C19.7039 37.9994 18.8418 37.1373 18.8418 36.0837V26.5049C18.8418 25.4512 19.7039 24.5891 20.7576 24.5891ZM28.4206 18.8418C29.4743 18.8418 30.3364 19.7039 30.3364 20.7576V36.0837C30.3364 37.1373 29.4743 37.9994 28.4206 37.9994C27.3669 37.9994 26.5049 37.1373 26.5049 36.0837V20.7576C26.5049 19.7039 27.3669 18.8418 28.4206 18.8418ZM36.0837 29.789C37.1373 29.789 37.9994 30.6511 37.9994 31.7048V36.0837C37.9994 37.1373 37.1373 37.9994 36.0837 37.9994C35.03 37.9994 34.1679 37.1373 34.1679 36.0837V31.7048C34.1679 30.6511 35.03 29.789 36.0837 29.789Z" fill="#F3B923"/>
</g>
<defs>
<clipPath id="clip0_9_736">
<rect width="32.8417" height="32.8417" fill="white" transform="translate(12 12)"/>
</clipPath>
</defs>
</svg>
