<svg width="68" height="68" viewBox="0 0 68 68" fill="none" xmlns="http://www.w3.org/2000/svg">
<rect width="68" height="68" rx="6" transform="matrix(1 0 0 -1 0 68)" fill="#EDF4EF"/>
<path d="M49.2429 37.1931C47.8894 40.4208 43.8633 40.5944 40.8091 40.5597C41.1562 42.9544 41.4685 46.2169 40.8091 47.6052C40.1497 48.9935 38.7961 49.8959 37.2343 50C37.1302 50 36.9913 50 36.8872 50C35.3948 50 34.0759 49.2364 33.3124 47.9176C29.7028 42.0174 26.6486 39.3102 25.7809 38.9631C25.6421 38.9284 25.538 38.859 25.4338 38.8243C25.1909 38.859 24.9826 38.8937 24.7397 38.8937H20.6443C18.6312 38.8937 17 37.2278 17 35.18V23.9696C17 21.9566 18.6312 20.3254 20.6443 20.3254H24.7397C24.8785 20.3254 25.0174 20.3254 25.1562 20.3601C26.6139 19.2495 29.4599 18.5206 34.0065 18.0694C34.7006 18 35.2907 18 35.8807 18C39.5249 18 42.9957 18.9718 45.4252 20.6377C50.1453 23.9002 51.3601 32.3688 49.2429 37.1931ZM20.6443 36.9848H24.4967V22.2343H20.6443C19.6725 22.2343 18.9089 22.9978 18.9089 23.9696V35.18C18.9089 36.1866 19.6725 36.9848 20.6443 36.9848ZM44.3492 22.1996C42.2321 20.7419 39.1432 19.9089 35.8807 19.9089C35.2907 19.9089 34.8048 19.9089 34.2148 19.9783C29.1475 20.4642 27.1692 21.2972 26.4056 21.8178V37.1584H26.4403C28.0369 37.7484 31.3688 41.0456 34.9783 46.9111C35.4642 47.7093 36.2278 48.1258 37.1302 48.0564C38.0325 47.987 38.7614 47.5011 39.1432 46.7028C39.5249 45.9393 39.3861 43.0586 38.7961 39.692L38.6226 38.5813H40.0803C42.6486 38.6508 46.5358 38.7202 47.5423 36.3948C49.2777 32.3688 48.167 24.8373 44.3492 22.1996Z" fill="#962121"/>
</svg>
