<svg width="68" height="68" viewBox="0 0 68 68" fill="none" xmlns="http://www.w3.org/2000/svg">
<rect width="68" height="68" rx="6" fill="#EDF4EF"/>
<path d="M49.2429 30.8069C47.8894 27.5792 43.8633 27.4056 40.8091 27.4403C41.1562 25.0456 41.4685 21.7831 40.8091 20.3948C40.1497 19.0065 38.7961 18.1041 37.2343 18C37.1302 18 36.9913 18 36.8872 18C35.3948 18 34.0759 18.7636 33.3124 20.0824C29.7028 25.9826 26.6486 28.6898 25.7809 29.0369C25.6421 29.0716 25.538 29.141 25.4338 29.1757C25.1909 29.141 24.9826 29.1063 24.7397 29.1063H20.6443C18.6312 29.1063 17 30.7722 17 32.82V44.0304C17 46.0434 18.6312 47.6746 20.6443 47.6746H24.7397C24.8785 47.6746 25.0174 47.6746 25.1562 47.6399C26.6139 48.7505 29.4599 49.4794 34.0065 49.9306C34.7006 50 35.2907 50 35.8807 50C39.5249 50 42.9957 49.0282 45.4252 47.3623C50.1453 44.0998 51.3601 35.6312 49.2429 30.8069ZM20.6443 31.0152H24.4967V45.7657H20.6443C19.6725 45.7657 18.9089 45.0022 18.9089 44.0304V32.82C18.9089 31.8134 19.6725 31.0152 20.6443 31.0152ZM44.3492 45.8004C42.2321 47.2581 39.1432 48.0911 35.8807 48.0911C35.2907 48.0911 34.8048 48.0911 34.2148 48.0217C29.1475 47.5358 27.1692 46.7028 26.4056 46.1822V30.8416H26.4403C28.0369 30.2516 31.3688 26.9544 34.9783 21.0889C35.4642 20.2907 36.2278 19.8742 37.1301 19.9436C38.0325 20.013 38.7614 20.4989 39.1432 21.2972C39.5249 22.0607 39.3861 24.9414 38.7961 28.308L38.6226 29.4187H40.0803C42.6486 29.3492 46.5358 29.2798 47.5423 31.6052C49.2777 35.6312 48.167 43.1627 44.3492 45.8004Z" fill="#219653"/>
</svg>
