<svg width="101" height="100" viewBox="0 0 101 100" fill="none" xmlns="http://www.w3.org/2000/svg">
<path d="M81.0618 44.3199C82.1239 44.3199 82.985 43.4589 82.985 42.3968C82.985 41.3347 82.1239 40.4736 81.0618 40.4736C79.9997 40.4736 79.1387 41.3347 79.1387 42.3968C79.1387 43.4589 79.9997 44.3199 81.0618 44.3199Z" fill="#F9FAFB"/>
<path d="M51.0002 80.334C69.8796 80.334 85.1844 74.3301 85.1844 66.9239C85.1844 59.5176 69.8796 53.5137 51.0002 53.5137C32.1207 53.5137 16.8159 59.5176 16.8159 66.9239C16.8159 74.3301 32.1207 80.334 51.0002 80.334Z" fill="#F9FAFB"/>
<path d="M85.0612 34.0481L81.5028 62.3194C81.3945 63.1814 80.8028 63.9046 79.9806 64.1833L55.0815 72.6009V63.7287L75.0714 48.6175L79.601 31.499H82.8121C84.176 31.499 85.2315 32.6953 85.0612 34.0481Z" fill="#D0D5DD"/>
<path d="M55.0814 72.8105C55.0388 72.8105 54.9962 72.7975 54.9601 72.7716C54.9055 72.7327 54.873 72.6698 54.873 72.6022V63.73C54.873 63.6642 54.9036 63.6031 54.9554 63.5642L74.8888 48.4957L79.3999 31.4466C79.424 31.355 79.5064 31.292 79.6018 31.292H82.8129C83.523 31.292 84.199 31.5975 84.6684 32.13C85.1379 32.6624 85.3564 33.3716 85.2675 34.0753L81.7092 62.3466C81.5916 63.2809 80.9388 64.08 80.0462 64.3818L55.148 72.7994C55.1267 72.8068 55.1036 72.8105 55.0814 72.8105ZM55.2897 63.8327V72.3114L79.9129 63.9864C80.6545 63.7355 81.198 63.0716 81.2953 62.2938L84.8536 34.0225C84.9277 33.4374 84.7453 32.8475 84.3555 32.404C83.9647 31.9614 83.4027 31.7077 82.8119 31.7077H79.761L75.273 48.6716C75.261 48.717 75.2342 48.7568 75.1971 48.7846L55.2897 63.8327Z" fill="#F9FAFB"/>
<path d="M55.0826 63.7307L29.6558 60.1974L49.6456 45.9854L75.0724 48.6187L55.0826 63.7307Z" fill="#D0D5DD"/>
<path d="M55.0824 63.9388C55.0732 63.9388 55.063 63.9379 55.0537 63.937L29.6269 60.4046C29.5426 60.3925 29.4732 60.3305 29.4528 60.2481C29.4324 60.1648 29.4648 60.0786 29.5343 60.0286L49.5241 45.8166C49.5658 45.787 49.6158 45.774 49.6667 45.7796L75.0935 48.4129C75.1787 48.4222 75.25 48.4814 75.2732 48.5638C75.2963 48.6462 75.2667 48.7342 75.1982 48.7861L55.2084 63.8972C55.1713 63.924 55.1269 63.9388 55.0824 63.9388ZM30.2037 60.0629L55.025 63.512L74.5241 48.7722L49.7019 46.2018L30.2037 60.0629Z" fill="#F9FAFB"/>
<path d="M50.1771 47.7197L56.5633 48.3818L50.1753 47.7197H50.1771Z" fill="#D0D5DD"/>
<path d="M56.5639 48.5896C56.5564 48.5896 56.549 48.5896 56.5426 48.5887L50.1546 47.9267C50.0444 47.9156 49.962 47.8193 49.9676 47.7091C49.974 47.5915 50.0805 47.5008 50.1981 47.5128L56.5851 48.1748C56.7 48.1869 56.7824 48.2887 56.7713 48.4035C56.7592 48.5091 56.6685 48.5896 56.5639 48.5896Z" fill="#F9FAFB"/>
<path d="M70.6318 49.8383L66.5985 52.8883L59.542 52.1578L63.7975 49.1318H63.7985L70.6318 49.8383Z" fill="#D0D5DD"/>
<path d="M66.5983 53.0963C66.5909 53.0963 66.5844 53.0963 66.577 53.0954L59.5205 52.3648C59.4344 52.3556 59.3622 52.2945 59.3409 52.2102C59.3187 52.126 59.3511 52.038 59.4215 51.9871L63.677 48.9611C63.7178 48.9315 63.7705 48.9186 63.8205 48.9241L70.6539 49.6315C70.7391 49.6408 70.8104 49.7 70.8335 49.7824C70.8567 49.8649 70.827 49.9528 70.7585 50.0047L66.7252 53.0547C66.6881 53.0815 66.6437 53.0963 66.5983 53.0963ZM60.1131 52.0074L66.5381 52.6732L70.0844 49.9917L63.8548 49.3473L60.1131 52.0074Z" fill="#F9FAFB"/>
<path d="M52.3066 51.4073L48.0491 54.435L41.6621 53.773L45.9195 50.7471L52.3066 51.4073Z" fill="#D0D5DD"/>
<path d="M48.049 54.643C48.0416 54.643 48.0351 54.643 48.0277 54.6421L41.6407 53.9801C41.5545 53.9708 41.4823 53.9097 41.461 53.8255C41.4388 53.7412 41.4712 53.6532 41.5416 53.6023L45.799 50.5764C45.8407 50.5467 45.8907 50.5338 45.9407 50.5393L52.3277 51.1995C52.4138 51.2088 52.486 51.2699 52.5073 51.3542C52.5286 51.4384 52.4971 51.5264 52.4268 51.5773L48.1694 54.6051C48.1342 54.6292 48.0916 54.643 48.049 54.643ZM42.2333 53.6227L47.9925 54.219L51.736 51.5569L45.9768 50.9616L42.2333 53.6227Z" fill="#F9FAFB"/>
<path d="M48.0493 54.4355L43.7919 57.4623H43.7909L37.4058 56.8003L41.6622 53.7734L48.0493 54.4355Z" fill="#D0D5DD"/>
<path d="M43.7917 57.6703C43.7843 57.6703 43.776 57.6703 43.7695 57.6694L37.3843 57.0073C37.2982 56.9981 37.226 56.937 37.2047 56.8527C37.1825 56.7684 37.2149 56.6805 37.2852 56.6296L41.5417 53.6018C41.5834 53.5721 41.6334 53.5592 41.6843 53.5647L48.0713 54.2268C48.1575 54.236 48.2297 54.2971 48.251 54.3814C48.2732 54.4657 48.2408 54.5536 48.1704 54.6045L43.9139 57.6323C43.8778 57.6573 43.8352 57.6703 43.7917 57.6703ZM37.976 56.6499L43.7352 57.2462L47.4778 54.5842L41.7186 53.9879L37.976 56.6499Z" fill="#F9FAFB"/>
<path d="M62.5648 55.9382L58.5305 58.9882L51.0259 58.2114L55.2842 55.1836L62.5648 55.9382Z" fill="#D0D5DD"/>
<path d="M58.5304 59.1962C58.523 59.1962 58.5165 59.1962 58.5091 59.1953L51.0054 58.4185C50.9193 58.4092 50.8471 58.3481 50.8258 58.2638C50.8036 58.1796 50.836 58.0916 50.9063 58.0407L55.1637 55.0129C55.2054 54.9833 55.2554 54.9703 55.3063 54.9759L62.5869 55.7305C62.6721 55.7398 62.7434 55.799 62.7665 55.8814C62.7897 55.9638 62.76 56.0518 62.6915 56.1036L58.6573 59.1536C58.6193 59.1814 58.5749 59.1962 58.5304 59.1962ZM51.5971 58.061L58.4702 58.7731L62.0174 56.0916L55.3406 55.3999L51.5971 58.061Z" fill="#F9FAFB"/>
<path d="M58.5304 58.9878L54.5508 61.9961L47.1489 60.9674L51.0258 58.2109L58.5304 58.9878Z" fill="#D0D5DD"/>
<path d="M54.5511 62.2042C54.5418 62.2042 54.5316 62.2033 54.5224 62.2023L47.1205 61.1736C47.0363 61.1616 46.9668 61.0996 46.9464 61.0171C46.9261 60.9338 46.9585 60.8477 47.0279 60.7977L50.9048 58.0412C50.9464 58.0116 50.9964 57.9986 51.0474 58.0042L58.5511 58.781C58.6363 58.7903 58.7076 58.8496 58.7307 58.932C58.7539 59.0144 58.7242 59.1023 58.6557 59.1542L54.677 62.1625C54.6409 62.1894 54.5964 62.2042 54.5511 62.2042ZM47.6974 60.8329L54.4946 61.7773L57.9826 59.1403L51.0826 58.4255L47.6974 60.8329Z" fill="#F9FAFB"/>
<path d="M51.026 58.211L47.1491 60.9675L40.2148 60.0045L43.7908 57.4619H43.7917L51.026 58.211Z" fill="#D0D5DD"/>
<path d="M47.1494 61.1755C47.1401 61.1755 47.13 61.1746 47.1207 61.1737L40.1864 60.2107C40.1022 60.1987 40.0327 60.1366 40.0124 60.0542C39.992 59.9709 40.0244 59.8848 40.0938 59.8348L43.6698 57.2922C43.7105 57.2626 43.7633 57.2496 43.8133 57.2552L51.0476 58.0042C51.1337 58.0135 51.2059 58.0746 51.2272 58.1589C51.2494 58.2431 51.217 58.3311 51.1466 58.382L47.2698 61.1385C47.2346 61.1626 47.192 61.1755 47.1494 61.1755ZM40.7633 59.87L47.0957 60.7496L50.455 58.3607L43.8475 57.6765L40.7633 59.87Z" fill="#F9FAFB"/>
<path d="M43.7905 57.4618L40.2146 60.0044L34.0942 59.1535L37.4053 56.7998L43.7905 57.4618Z" fill="#D0D5DD"/>
<path d="M40.2149 60.2125C40.2056 60.2125 40.1955 60.2116 40.1862 60.2106L34.0658 59.3597C33.9816 59.3477 33.9121 59.2856 33.8918 59.2032C33.8714 59.1199 33.9038 59.0338 33.9732 58.9838L37.2834 56.6301C37.3251 56.6005 37.3751 56.5875 37.426 56.5931L43.8112 57.2551C43.8973 57.2643 43.9695 57.3255 43.9908 57.4097C44.0131 57.494 43.9806 57.5819 43.9103 57.6329L40.3343 60.1755C40.3001 60.1995 40.2584 60.2125 40.2149 60.2125ZM34.6427 59.019L40.1612 59.7866L43.2195 57.6125L37.4612 57.0162L34.6427 59.019Z" fill="#F9FAFB"/>
<path d="M63.7974 49.1309L56.5649 48.3809L63.7983 49.129H63.8001L70.6316 49.8373L63.7983 49.1309H63.7974Z" fill="#D0D5DD"/>
<path d="M70.6325 50.046C70.625 50.046 70.6176 50.046 70.6112 50.0451L63.7834 49.3386C63.7815 49.3386 63.7787 49.3386 63.7769 49.3377L56.5436 48.5877C56.4287 48.5757 56.3463 48.4738 56.3574 48.359C56.3695 48.2442 56.4713 48.1618 56.5862 48.1729L56.5945 48.1738L63.8149 48.921C63.8167 48.921 63.8195 48.921 63.8213 48.922L70.6537 49.6303C70.7686 49.6423 70.851 49.7442 70.8399 49.859C70.8278 49.9664 70.7371 50.046 70.6325 50.046Z" fill="#F9FAFB"/>
<path d="M49.5557 45.9853L55.7455 30.5371L79.601 31.5001L75.0723 48.6195L49.5557 45.9853Z" fill="#D0D5DD"/>
<path d="M75.0724 48.8275C75.065 48.8275 75.0585 48.8275 75.0511 48.8266L49.5344 46.1932C49.4696 46.1867 49.4113 46.1497 49.3779 46.0942C49.3437 46.0386 49.3381 45.9701 49.3631 45.909L55.5529 30.4608C55.5853 30.3793 55.6659 30.3266 55.7548 30.3303L79.6103 31.2932C79.6733 31.296 79.7316 31.3266 79.7696 31.3775C79.8076 31.4284 79.8196 31.4932 79.8039 31.5543L75.2752 48.6729C75.2492 48.7645 75.1659 48.8275 75.0724 48.8275ZM49.852 45.8062L74.9168 48.3932L79.3335 31.6979L55.8844 30.7516L49.852 45.8062Z" fill="#F9FAFB"/>
<path d="M51.7437 45.0526L57.0316 31.8545L77.4131 32.6767L73.5436 47.3026L51.7437 45.0526Z" fill="#F7F9FC"/>
<path d="M73.5437 47.5106C73.5363 47.5106 73.5298 47.5106 73.5224 47.5097L51.7224 45.2587C51.6576 45.2523 51.5993 45.2152 51.5659 45.1597C51.5317 45.1041 51.5261 45.0356 51.5511 44.9745L56.8391 31.7763C56.8715 31.6949 56.952 31.6412 57.0409 31.6458L77.4224 32.4689C77.4854 32.4717 77.5437 32.5023 77.5817 32.5532C77.6196 32.6041 77.6317 32.6689 77.615 32.73L73.7456 47.355C73.7206 47.4476 73.6381 47.5106 73.5437 47.5106ZM52.04 44.8726L73.3881 47.0763L77.1456 32.8745L57.1706 32.068L52.04 44.8726Z" fill="#F9FAFB"/>
<path d="M29.6558 60.1973V69.0695L55.0817 72.6028V63.7297L29.6558 60.1973Z" fill="#667185"/>
<path d="M55.0815 72.8107C55.0722 72.8107 55.062 72.8098 55.0528 72.8089L29.6268 69.2765C29.5241 69.2626 29.4472 69.1737 29.4472 69.07L29.4463 60.1978C29.4463 60.1376 29.4722 60.0802 29.5176 60.0404C29.563 60.0005 29.6231 59.9829 29.6833 59.9913L55.1093 63.5237C55.212 63.5376 55.2889 63.6265 55.2889 63.7302V72.6024C55.2889 72.6626 55.263 72.72 55.2176 72.7598C55.1805 72.7922 55.1315 72.8107 55.0815 72.8107ZM29.8639 68.8876L54.8731 72.3626V63.9107L29.8639 60.4357V68.8876Z" fill="#F9FAFB"/>
<path d="M52.1408 66.5941V67.7348L32.2788 65.2237V64.082L52.1408 66.5941Z" fill="#D0D5DD"/>
<path d="M52.349 67.9707L32.0703 65.4077V63.8457L52.349 66.4105V67.9707ZM32.487 65.0401L51.9324 67.4985V66.7772L32.487 64.3179V65.0401Z" fill="#D0D5DD"/>
<path d="M10.0679 89.2782C13.8669 88.3106 17.6679 87.355 21.1512 85.4911C24.6632 83.6124 26.9058 80.8559 27.9919 77.0217C28.8521 73.9828 29.2299 70.7995 30.9873 68.1245C32.2605 66.1865 34.2318 64.9004 34.2318 64.9004L50.5031 66.9578C48.8077 68.7782 47.3494 70.8532 46.091 72.993C44.9382 74.9532 43.9068 76.7921 43.3151 79.0078C42.7123 81.2652 42.3466 83.6217 41.2577 85.7161C40.166 87.8152 38.3994 89.505 36.4327 90.8198C32.6169 93.3708 28.1364 94.9309 23.7179 96.0559C23.7179 96.055 10.0679 89.2782 10.0679 89.2782Z" fill="#E4E7EC"/>
<path d="M23.7175 96.2635C23.686 96.2635 23.6536 96.2561 23.6249 96.2423L9.97487 89.4654C9.8971 89.4265 9.8508 89.3432 9.86006 89.2571C9.86932 89.17 9.93135 89.0987 10.0156 89.0774L10.1443 89.045C13.8249 88.108 17.6314 87.1395 21.0527 85.3089C24.523 83.4524 26.7276 80.7237 27.7906 76.9663C28.0101 76.1913 28.2017 75.3932 28.386 74.62C28.9267 72.3636 29.4851 70.0302 30.8119 68.0108C32.0943 66.0589 34.0351 64.7793 34.1165 64.7265C34.1582 64.6997 34.2073 64.6876 34.2564 64.6941L50.5277 66.7515C50.6054 66.7617 50.6712 66.8135 50.6971 66.8876C50.7239 66.9608 50.7073 67.0432 50.6536 67.1006C49.1091 68.7589 47.6341 70.7774 46.2693 73.0997C45.1045 75.0821 44.0934 76.8987 43.5147 79.0626C43.3647 79.6228 43.2276 80.2006 43.0943 80.7589C42.6888 82.4598 42.2702 84.2182 41.4406 85.8136C40.4304 87.7552 38.7841 89.4987 36.5462 90.9941C33.2323 93.2098 29.1712 94.883 23.7665 96.2589C23.7517 96.2617 23.7341 96.2635 23.7175 96.2635ZM10.6638 89.3423L23.7406 95.8348C29.0601 94.4747 33.0573 92.8256 36.3165 90.6469C38.4952 89.1904 40.0952 87.4997 41.0721 85.62C41.8777 84.071 42.2906 82.3376 42.6906 80.6617C42.8239 80.1006 42.9628 79.52 43.1138 78.9543C43.7054 76.7395 44.7304 74.8969 45.9119 72.8876C47.2119 70.6765 48.6119 68.7358 50.0776 67.1145L34.2841 65.1182C33.9425 65.3534 32.2702 66.5534 31.1619 68.2404C29.8749 70.1997 29.3249 72.4969 28.7925 74.7182C28.6064 75.495 28.4138 76.2978 28.1925 77.0802C27.0962 80.9515 24.8258 83.7635 21.2499 85.6765C17.9128 87.4598 14.2378 88.4302 10.6638 89.3423Z" fill="#F9FAFB"/>
<path d="M59.5419 52.1572L55.2845 55.1832L48.0493 54.435L52.3067 51.4072L59.5419 52.1572Z" fill="#D0D5DD"/>
<path d="M55.2843 55.3911C55.2769 55.3911 55.2705 55.3911 55.263 55.3902L48.0279 54.6411C47.9418 54.6319 47.8695 54.5707 47.8482 54.4865C47.826 54.4022 47.8584 54.3143 47.9288 54.2633L52.1862 51.2356C52.2279 51.2059 52.2779 51.193 52.3288 51.1985L59.564 51.9485C59.6501 51.9578 59.7223 52.0189 59.7436 52.1032C59.7649 52.1874 59.7334 52.2754 59.6631 52.3263L55.4056 55.3522C55.3695 55.3782 55.3269 55.3911 55.2843 55.3911ZM48.6195 54.2837L55.2269 54.968L58.9705 52.3069L52.363 51.6217L48.6195 54.2837Z" fill="#F9FAFB"/>
<path d="M63.7993 49.1317V49.1289H63.8007" fill="#D0D5DD"/>
<path d="M63.7992 49.3385C63.6843 49.3385 63.5908 49.2459 63.5908 49.1311V49.1302C63.5908 49.0154 63.6843 48.9219 63.7992 48.9219C63.914 48.9219 64.0084 49.0154 64.0084 49.1302C64.0084 49.2145 63.9584 49.2867 63.8871 49.32C63.8593 49.3321 63.8297 49.3385 63.7992 49.3385Z" fill="#F9FAFB"/>
<path d="M56.563 48.3818L52.3065 51.4077L45.9194 50.7475L50.175 47.7197L56.563 48.3818Z" fill="#D0D5DD"/>
<path d="M52.3063 51.6158C52.2989 51.6158 52.2924 51.6158 52.285 51.6148L45.898 50.9546C45.8119 50.9454 45.7396 50.8843 45.7184 50.8009C45.6961 50.7167 45.7285 50.6287 45.7989 50.5778L50.0545 47.55C50.0961 47.5204 50.1461 47.5074 50.1971 47.513L56.585 48.175C56.6711 48.1843 56.7434 48.2454 56.7647 48.3296C56.7869 48.4139 56.7545 48.5019 56.6841 48.5528L52.4276 51.5787C52.3915 51.6019 52.3498 51.6158 52.3063 51.6158ZM46.4906 50.5963L52.2498 51.1917L55.9924 48.5315L50.2322 47.9352L46.4906 50.5963Z" fill="#F9FAFB"/>
<path d="M63.7974 49.1318L59.5418 52.1578L52.3066 51.4078L56.5631 48.3818H56.565L63.7974 49.1318Z" fill="#D0D5DD"/>
<path d="M59.5417 52.3658C59.5343 52.3658 59.5278 52.3658 59.5204 52.3648L52.2852 51.6148C52.1991 51.6056 52.1269 51.5445 52.1056 51.4602C52.0833 51.376 52.1157 51.288 52.1861 51.2371L56.4426 48.2111C56.4833 48.1815 56.5361 48.1686 56.5861 48.1741L63.8195 48.9241C63.9056 48.9334 63.9778 48.9945 63.9991 49.0787C64.0213 49.163 63.9889 49.251 63.9185 49.3019L59.663 52.3278C59.6269 52.3528 59.5852 52.3658 59.5417 52.3658ZM52.8778 51.2574L59.4852 51.9426L63.2269 49.2815L56.6204 48.5963L52.8778 51.2574Z" fill="#F9FAFB"/>
<path d="M66.5986 52.8878L62.5652 55.9378L55.2847 55.1832L59.5421 52.1572L66.5986 52.8878Z" fill="#D0D5DD"/>
<path d="M62.5651 56.1458C62.5577 56.1458 62.5512 56.1458 62.5438 56.1449L55.2632 55.3902C55.1771 55.381 55.1049 55.3199 55.0836 55.2356C55.0614 55.1514 55.0938 55.0634 55.1641 55.0125L59.4216 51.9865C59.4632 51.9569 59.5132 51.9439 59.5641 51.9495L66.6206 52.6801C66.7058 52.6893 66.7771 52.7486 66.8003 52.831C66.8234 52.9134 66.7938 53.0014 66.7253 53.0532L62.6919 56.1032C62.654 56.131 62.6104 56.1458 62.5651 56.1458ZM55.8558 55.0328L62.5049 55.7217L66.0512 53.0402L59.5993 52.3717L55.8558 55.0328Z" fill="#F9FAFB"/>
<path d="M55.2841 55.1837L51.0258 58.2115L43.7915 57.4624L48.0489 54.4355L55.2841 55.1837Z" fill="#D0D5DD"/>
<path d="M51.0262 58.4194C51.0188 58.4194 51.0123 58.4194 51.0049 58.4185L43.7707 57.6694C43.6846 57.6602 43.6123 57.5991 43.591 57.5148C43.5697 57.4305 43.6012 57.3426 43.6716 57.2917L47.9281 54.2639C47.9697 54.2342 48.0197 54.2213 48.0707 54.2268L55.3059 54.9759C55.392 54.9852 55.4642 55.0463 55.4855 55.1305C55.5077 55.2148 55.4753 55.3028 55.4049 55.3537L51.1475 58.3815C51.1123 58.4055 51.0697 58.4194 51.0262 58.4194ZM44.3633 57.312L50.9697 57.9963L54.7133 55.3342L48.1058 54.65L44.3633 57.312Z" fill="#F9FAFB"/>
<path d="M72.023 35.9737C72.0156 35.9737 72.0072 35.9737 71.9998 35.9727L60.9628 35.2866C60.7581 35.2737 60.6035 35.0977 60.6165 34.894C60.6294 34.6894 60.8054 34.5338 61.0091 34.5477L72.047 35.2348C72.2517 35.2477 72.4063 35.4237 72.3933 35.6274C72.3804 35.8227 72.2174 35.9737 72.023 35.9737Z" fill="#D0D5DD"/>
<path d="M70.8979 38.7255C70.8905 38.7255 70.8822 38.7255 70.8748 38.7245L59.8368 38.0375C59.6322 38.0245 59.4775 37.8486 59.4905 37.6449C59.5035 37.4403 59.6803 37.2856 59.8831 37.2986L70.9211 37.9856C71.1257 37.9986 71.2803 38.1745 71.2674 38.3782C71.2553 38.5736 71.0924 38.7255 70.8979 38.7255Z" fill="#D0D5DD"/>
<path d="M44.4229 71.7672C44.4035 71.7672 44.3831 71.7654 44.3627 71.7626L32.2183 69.7746C32.0164 69.7413 31.8794 69.5515 31.9127 69.3496C31.946 69.1478 32.1359 69.0107 32.3377 69.0441L44.4822 71.032C44.684 71.0654 44.821 71.2552 44.7877 71.457C44.7581 71.6376 44.6016 71.7672 44.4229 71.7672Z" fill="#D0D5DD"/>
<path d="M43.3963 73.9121C43.3768 73.9121 43.3583 73.9103 43.3389 73.9075L31.2759 72.0223C31.0741 71.9908 30.9352 71.801 30.9676 71.5992C30.9991 71.3973 31.1889 71.2584 31.3907 71.2908L43.4537 73.176C43.6555 73.2075 43.7944 73.3973 43.762 73.5992C43.7333 73.7816 43.575 73.9121 43.3963 73.9121Z" fill="#D0D5DD"/>
<path d="M42.2104 76.2883C42.1909 76.2883 42.1715 76.2865 42.1511 76.2837L30.6085 74.4383C30.4067 74.4059 30.2687 74.2161 30.3011 74.0143C30.3335 73.8124 30.5233 73.6745 30.7252 73.7069L42.2678 75.5522C42.4696 75.5846 42.6076 75.7745 42.5752 75.9763C42.5465 76.1587 42.3891 76.2883 42.2104 76.2883Z" fill="#D0D5DD"/>
<path d="M41.3999 78.6651C41.3805 78.6651 41.361 78.6633 41.3407 78.6605L29.9962 76.8475C29.7944 76.8151 29.6564 76.6253 29.6888 76.4235C29.7212 76.2216 29.911 76.0836 30.1129 76.116L41.4573 77.929C41.6592 77.9614 41.7971 78.1512 41.7647 78.3531C41.736 78.5346 41.5786 78.6651 41.3999 78.6651Z" fill="#D0D5DD"/>
<path d="M69.7729 41.4764C69.7655 41.4764 69.7572 41.4764 69.7498 41.4755L58.7118 40.7885C58.5072 40.7755 58.3525 40.5996 58.3655 40.3959C58.3785 40.1913 58.5544 40.0366 58.7581 40.0496L69.7961 40.7366C70.0007 40.7496 70.1553 40.9255 70.1424 41.1292C70.1303 41.3255 69.9674 41.4764 69.7729 41.4764Z" fill="#D0D5DD"/>
<path d="M68.6479 44.2274C68.6405 44.2274 68.6322 44.2274 68.6248 44.2265L57.5868 43.5395C57.3822 43.5265 57.2275 43.3506 57.2405 43.1469C57.2535 42.9422 57.4294 42.7876 57.6331 42.8006L68.6711 43.4876C68.8757 43.5006 69.0303 43.6765 69.0174 43.8802C69.0053 44.0765 68.8414 44.2274 68.6479 44.2274Z" fill="#D0D5DD"/>
<path d="M89.0323 40.209L89.2388 41.4988C89.3629 42.2719 89.8934 42.8775 90.6573 43.1164L91.9323 43.5136L90.5305 43.9108C89.6916 44.1497 88.9675 44.7544 88.5962 45.5284L87.9786 46.8182L87.7712 45.5284C87.6471 44.7553 87.1166 44.1497 86.3527 43.9108L85.0786 43.5136L86.4795 43.1164C87.3184 42.8775 88.0425 42.2729 88.4138 41.4988L89.0323 40.209Z" fill="#D0D5DD"/>
<path d="M48.5906 35.1406L48.7489 36.1295C48.8443 36.7221 49.2508 37.1869 49.8369 37.3693L50.8146 37.674L49.7396 37.9795C49.0961 38.1619 48.5415 38.6258 48.2563 39.2184L47.7822 40.2082L47.6239 39.2184C47.5285 38.6258 47.1211 38.1619 46.5359 37.9795L45.5591 37.674L46.6332 37.3693C47.2767 37.1869 47.8313 36.7221 48.1165 36.1295L48.5906 35.1406Z" fill="#D0D5DD"/>
<path d="M75.2973 67.2051L75.3853 67.7569C75.439 68.0866 75.6659 68.3458 75.9918 68.4477L76.5362 68.618L75.9381 68.7884C75.5788 68.8903 75.2696 69.1495 75.1112 69.4792L74.8473 70.031L74.7594 69.4792C74.7057 69.1495 74.4797 68.8903 74.1538 68.7884L73.6094 68.618L74.2085 68.4477C74.5677 68.3458 74.876 68.0866 75.0344 67.7569L75.2973 67.2051Z" fill="#D0D5DD"/>
<path d="M25.5166 68.6172L25.6045 69.1681C25.6573 69.4987 25.8842 69.757 26.211 69.8589L26.7555 70.0292L26.1573 70.1996C25.7981 70.3014 25.4888 70.5607 25.3305 70.8913L25.0666 71.4422L24.9786 70.8913C24.9268 70.5607 24.699 70.3024 24.3731 70.1996L23.8286 70.0292L24.4268 69.8589C24.786 69.7579 25.0953 69.4987 25.2527 69.1681L25.5166 68.6172Z" fill="#D0D5DD"/>
<path d="M81.0619 60.0251C81.8228 60.0251 82.4396 59.4082 82.4396 58.6473C82.4396 57.8864 81.8228 57.2695 81.0619 57.2695C80.3009 57.2695 79.6841 57.8864 79.6841 58.6473C79.6841 59.4082 80.3009 60.0251 81.0619 60.0251Z" fill="#F9FAFB"/>
<path d="M23.1229 54.9421C23.8838 54.9421 24.5007 54.3252 24.5007 53.5643C24.5007 52.8034 23.8838 52.1865 23.1229 52.1865C22.362 52.1865 21.7451 52.8034 21.7451 53.5643C21.7451 54.3252 22.362 54.9421 23.1229 54.9421Z" fill="#F9FAFB"/>
<path d="M23.8128 56.0553C24.0808 56.0553 24.298 55.8381 24.298 55.5701C24.298 55.3022 24.0808 55.085 23.8128 55.085C23.5449 55.085 23.3276 55.3022 23.3276 55.5701C23.3276 55.8381 23.5449 56.0553 23.8128 56.0553Z" fill="#F9FAFB"/>
<path d="M30.6444 37.613C31.4053 37.613 32.0222 36.9961 32.0222 36.2352C32.0222 35.4743 31.4053 34.8574 30.6444 34.8574C29.8835 34.8574 29.2666 35.4743 29.2666 36.2352C29.2666 36.9961 29.8835 37.613 30.6444 37.613Z" fill="#F9FAFB"/>
<path d="M32.2542 35.3385C32.5222 35.3385 32.7394 35.1213 32.7394 34.8534C32.7394 34.5854 32.5222 34.3682 32.2542 34.3682C31.9863 34.3682 31.769 34.5854 31.769 34.8534C31.769 35.1213 31.9863 35.3385 32.2542 35.3385Z" fill="#F9FAFB"/>
<path d="M84.5999 30.3569C85.909 30.3569 86.9702 29.2957 86.9702 27.9866C86.9702 26.6775 85.909 25.6162 84.5999 25.6162C83.2907 25.6162 82.2295 26.6775 82.2295 27.9866C82.2295 29.2957 83.2907 30.3569 84.5999 30.3569Z" fill="#E4E7EC"/>
<path d="M82.2298 26.817C82.8531 26.817 83.3585 26.3116 83.3585 25.6883C83.3585 25.0649 82.8531 24.5596 82.2298 24.5596C81.6064 24.5596 81.1011 25.0649 81.1011 25.6883C81.1011 26.3116 81.6064 26.817 82.2298 26.817Z" fill="#F9FAFB"/>
</svg>
