<svg width="24" height="24" viewBox="0 0 24 24" fill="none" xmlns="http://www.w3.org/2000/svg">
<path d="M17 3H7C4 3 2 4.5 2 8V15C2 18.5 4 20 7 20H17C20 20 22 18.5 22 15V8C22 4.5 20 3 17 3ZM3.75 8C3.75 6.21 5.21 4.75 7 4.75H8.5C8.91 4.75 9.25 5.09 9.25 5.5C9.25 5.91 8.91 6.25 8.5 6.25H7C6.04 6.25 5.25 7.04 5.25 8V9.5C5.25 9.91 4.91 10.25 4.5 10.25C4.09 10.25 3.75 9.91 3.75 9.5V8ZM8.5 18.25H7C5.21 18.25 3.75 16.79 3.75 15V13.5C3.75 13.09 4.09 12.75 4.5 12.75C4.91 12.75 5.25 13.09 5.25 13.5V15C5.25 15.96 6.04 16.75 7 16.75H8.5C8.91 16.75 9.25 17.09 9.25 17.5C9.25 17.91 8.91 18.25 8.5 18.25ZM12 14.5C10.34 14.5 9 13.16 9 11.5C9 9.84 10.34 8.5 12 8.5C13.66 8.5 15 9.84 15 11.5C15 13.16 13.66 14.5 12 14.5ZM20.25 15C20.25 16.79 18.79 18.25 17 18.25H15.5C15.09 18.25 14.75 17.91 14.75 17.5C14.75 17.09 15.09 16.75 15.5 16.75H17C17.96 16.75 18.75 15.96 18.75 15V13.5C18.75 13.09 19.09 12.75 19.5 12.75C19.91 12.75 20.25 13.09 20.25 13.5V15ZM20.25 9.5C20.25 9.91 19.91 10.25 19.5 10.25C19.09 10.25 18.75 9.91 18.75 9.5V8C18.75 7.04 17.96 6.25 17 6.25H15.5C15.09 6.25 14.75 5.91 14.75 5.5C14.75 5.09 15.09 4.75 15.5 4.75H17C18.79 4.75 20.25 6.21 20.25 8V9.5Z" fill="#6C6C6C"/>
</svg>
